solid OpenSCAD_Model
  facet normal 0 0 -1
    outer loop
      vertex -7.75 0 0
      vertex -7.37069 2.39488 0
      vertex -7.37069 -2.39488 0
    endloop
  endfacet
  facet normal 0 0 -1
    outer loop
      vertex -7.37069 -2.39488 0
      vertex -7.37069 2.39488 0
      vertex -6.26988 4.55534 0
    endloop
  endfacet
  facet normal 0 0 -1
    outer loop
      vertex -7.37069 -2.39488 0
      vertex -6.26988 4.55534 0
      vertex -4.55534 6.26988 0
    endloop
  endfacet
  facet normal 0 0 -1
    outer loop
      vertex -7.37069 -2.39488 0
      vertex -4.55534 6.26988 0
      vertex -2.39488 7.37069 0
    endloop
  endfacet
  facet normal 0 0 -1
    outer loop
      vertex -7.37069 -2.39488 0
      vertex -2.39488 7.37069 0
      vertex 0 7.75 0
    endloop
  endfacet
  facet normal 0 0 -1
    outer loop
      vertex 6.375 7.75 0
      vertex 0 7.75 0
      vertex 9.75 7.75 0
    endloop
  endfacet
  facet normal 0 0 -1
    outer loop
      vertex 6.375 2.5 0
      vertex 3.4089 2.86041 0
      vertex 2.225 3.85381 0
    endloop
  endfacet
  facet normal 0 0 -1
    outer loop
      vertex 0.772734 4.38239 0
      vertex 0 7.75 0
      vertex 6.375 7.75 0
    endloop
  endfacet
  facet normal 0 0 -1
    outer loop
      vertex 6.375 2.5 0
      vertex 3.61698 2.5 0
      vertex 3.4089 2.86041 0
    endloop
  endfacet
  facet normal 0 0 -1
    outer loop
      vertex 0.772734 4.38239 0
      vertex 6.375 7.75 0
      vertex 2.225 3.85381 0
    endloop
  endfacet
  facet normal 0 0 -1
    outer loop
      vertex -0.772734 4.38239 0
      vertex 0 7.75 0
      vertex 0.772734 4.38239 0
    endloop
  endfacet
  facet normal 0 0 -1
    outer loop
      vertex -4.45 0 0
      vertex -7.37069 -2.39488 0
      vertex -4.18163 1.52199 0
    endloop
  endfacet
  facet normal 0 0 -1
    outer loop
      vertex -2.225 3.85381 0
      vertex 0 7.75 0
      vertex -0.772734 4.38239 0
    endloop
  endfacet
  facet normal 0 0 -1
    outer loop
      vertex -3.4089 2.86041 0
      vertex 0 7.75 0
      vertex -2.225 3.85381 0
    endloop
  endfacet
  facet normal 0 0 -1
    outer loop
      vertex -7.37069 -2.39488 0
      vertex 0 7.75 0
      vertex -3.4089 2.86041 0
    endloop
  endfacet
  facet normal 0 0 -1
    outer loop
      vertex -7.37069 -2.39488 0
      vertex -3.4089 2.86041 0
      vertex -4.18163 1.52199 0
    endloop
  endfacet
  facet normal 0 0 -1
    outer loop
      vertex -4.18163 -1.52199 0
      vertex -7.37069 -2.39488 0
      vertex -4.45 0 0
    endloop
  endfacet
  facet normal 0 0 -1
    outer loop
      vertex 6.375 -2.5 0
      vertex 3.4089 -2.86041 0
      vertex 3.61698 -2.5 0
    endloop
  endfacet
  facet normal 0 0 -1
    outer loop
      vertex -7.37069 -2.39488 0
      vertex -4.18163 -1.52199 0
      vertex -3.4089 -2.86041 0
    endloop
  endfacet
  facet normal 0 0 -1
    outer loop
      vertex -3.4089 -2.86041 0
      vertex -2.225 -3.85381 0
      vertex -7.37069 -2.39488 0
    endloop
  endfacet
  facet normal 0 0 -1
    outer loop
      vertex -2.225 -3.85381 0
      vertex -0.772734 -4.38239 0
      vertex -7.37069 -2.39488 0
    endloop
  endfacet
  facet normal 0 0 -1
    outer loop
      vertex -0.772734 -4.38239 0
      vertex 6.375 -7.75 0
      vertex -7.37069 -2.39488 0
    endloop
  endfacet
  facet normal 0 0 -1
    outer loop
      vertex 2.225 -3.85381 0
      vertex 6.375 -2.5 0
      vertex 0.772734 -4.38239 0
    endloop
  endfacet
  facet normal 0 0 -1
    outer loop
      vertex 3.4089 -2.86041 0
      vertex 6.375 -2.5 0
      vertex 2.225 -3.85381 0
    endloop
  endfacet
  facet normal 0 0 -1
    outer loop
      vertex 0.772734 -4.38239 0
      vertex 6.375 -2.5 0
      vertex 6.375 -7.75 0
    endloop
  endfacet
  facet normal 0 0 -1
    outer loop
      vertex 0.772734 -4.38239 0
      vertex 6.375 -7.75 0
      vertex -0.772734 -4.38239 0
    endloop
  endfacet
  facet normal 0 0 -1
    outer loop
      vertex -7.37069 -2.39488 0
      vertex 6.375 -7.75 0
      vertex 0 -7.75 0
    endloop
  endfacet
  facet normal 0 0 -1
    outer loop
      vertex -7.37069 -2.39488 0
      vertex 0 -7.75 0
      vertex -2.39488 -7.37069 0
    endloop
  endfacet
  facet normal 0 0 -1
    outer loop
      vertex -7.37069 -2.39488 0
      vertex -2.39488 -7.37069 0
      vertex -4.55534 -6.26988 0
    endloop
  endfacet
  facet normal 0 0 -1
    outer loop
      vertex -7.37069 -2.39488 0
      vertex -4.55534 -6.26988 0
      vertex -6.26988 -4.55534 0
    endloop
  endfacet
  facet normal 0 0 -1
    outer loop
      vertex 6.375 2.5 0
      vertex 2.225 3.85381 0
      vertex 6.375 7.75 0
    endloop
  endfacet
  facet normal -0.987688 0.156434 0
    outer loop
      vertex -7.75 0 0
      vertex -7.75 0 15.5
      vertex -7.37069 2.39488 0
    endloop
  endfacet
  facet normal -0.987688 0.156434 0
    outer loop
      vertex -7.37069 2.39488 0
      vertex -7.75 0 15.5
      vertex -7.37069 2.39488 15.5
    endloop
  endfacet
  facet normal -0.987688 -0.156434 0
    outer loop
      vertex -7.75 0 0
      vertex -7.37069 -2.39488 0
      vertex -7.75 0 15.5
    endloop
  endfacet
  facet normal -0.987688 -0.156434 0
    outer loop
      vertex -7.75 0 15.5
      vertex -7.37069 -2.39488 0
      vertex -7.37069 -2.39488 15.5
    endloop
  endfacet
  facet normal -0.891007 -0.45399 0
    outer loop
      vertex -7.37069 -2.39488 0
      vertex -6.26988 -4.55534 0
      vertex -7.37069 -2.39488 15.5
    endloop
  endfacet
  facet normal -0.891007 -0.45399 0
    outer loop
      vertex -7.37069 -2.39488 15.5
      vertex -6.26988 -4.55534 0
      vertex -6.26988 -4.55534 15.5
    endloop
  endfacet
  facet normal -0.707107 -0.707107 0
    outer loop
      vertex -6.26988 -4.55534 15.5
      vertex -6.26988 -4.55534 0
      vertex -4.55534 -6.26988 0
    endloop
  endfacet
  facet normal -0.707107 -0.707107 0
    outer loop
      vertex -4.55534 -6.26988 15.5
      vertex -6.26988 -4.55534 15.5
      vertex -4.55534 -6.26988 0
    endloop
  endfacet
  facet normal -0.45399 -0.891007 0
    outer loop
      vertex -4.55534 -6.26988 15.5
      vertex -4.55534 -6.26988 0
      vertex -2.39488 -7.37069 0
    endloop
  endfacet
  facet normal -0.45399 -0.891007 0
    outer loop
      vertex -2.39488 -7.37069 15.5
      vertex -4.55534 -6.26988 15.5
      vertex -2.39488 -7.37069 0
    endloop
  endfacet
  facet normal -0.156434 -0.987688 0
    outer loop
      vertex -2.39488 -7.37069 15.5
      vertex -2.39488 -7.37069 0
      vertex 0 -7.75 0
    endloop
  endfacet
  facet normal -0.156434 -0.987688 0
    outer loop
      vertex 0 -7.75 15.5
      vertex -2.39488 -7.37069 15.5
      vertex 0 -7.75 0
    endloop
  endfacet
  facet normal 0 -1 0
    outer loop
      vertex 3.538 -7.75 3.875
      vertex 0 -7.75 0
      vertex 6.375 -7.75 0
    endloop
  endfacet
  facet normal 0 -1 0
    outer loop
      vertex 3.459 -7.75 4.016
      vertex 0 -7.75 0
      vertex 3.538 -7.75 3.875
    endloop
  endfacet
  facet normal 0 -1 0
    outer loop
      vertex 3.45006 -7.75 4.03856
      vertex 0 -7.75 0
      vertex 3.459 -7.75 4.016
    endloop
  endfacet
  facet normal 0 -1 0
    outer loop
      vertex 0 -7.75 15.5
      vertex 0 -7.75 0
      vertex 3.45006 -7.75 4.03856
    endloop
  endfacet
  facet normal 0 -1 0
    outer loop
      vertex 5.0178 -7.75 6.37487
      vertex 0 -7.75 15.5
      vertex 5.12164 -7.75 6.17108
    endloop
  endfacet
  facet normal 0 -1 0
    outer loop
      vertex 4.8 -7.75 7.75
      vertex 0 -7.75 15.5
      vertex 5.0178 -7.75 6.37487
    endloop
  endfacet
  facet normal 0 -1 0
    outer loop
      vertex 5.0178 -7.75 9.12513
      vertex 0 -7.75 15.5
      vertex 4.8 -7.75 7.75
    endloop
  endfacet
  facet normal 0 -1 0
    outer loop
      vertex 5.64987 -7.75 10.3656
      vertex 0 -7.75 15.5
      vertex 5.0178 -7.75 9.12513
    endloop
  endfacet
  facet normal 0 -1 0
    outer loop
      vertex 6.63436 -7.75 11.3501
      vertex 0 -7.75 15.5
      vertex 5.64987 -7.75 10.3656
    endloop
  endfacet
  facet normal 0 -1 0
    outer loop
      vertex 7.87487 -7.75 11.9822
      vertex 0 -7.75 15.5
      vertex 6.63436 -7.75 11.3501
    endloop
  endfacet
  facet normal 0 -1 0
    outer loop
      vertex 9.25 -7.75 12.2
      vertex 0 -7.75 15.5
      vertex 7.87487 -7.75 11.9822
    endloop
  endfacet
  facet normal 0 -1 0
    outer loop
      vertex 9.75 -7.75 12.1208
      vertex 0 -7.75 15.5
      vertex 9.25 -7.75 12.2
    endloop
  endfacet
  facet normal 0 -1 0
    outer loop
      vertex 9.75 -7.75 15.5
      vertex 0 -7.75 15.5
      vertex 9.75 -7.75 12.1208
    endloop
  endfacet
  facet normal 0 -1 0
    outer loop
      vertex 3.554 -7.75 3.885
      vertex 3.459 -7.75 4.016
      vertex 3.538 -7.75 3.875
    endloop
  endfacet
  facet normal 0 -1 0
    outer loop
      vertex 3.45006 -7.75 4.03856
      vertex 5.12164 -7.75 6.17108
      vertex 0 -7.75 15.5
    endloop
  endfacet
  facet normal -0.806868 9.73967e-017 -0.590732
    outer loop
      vertex 6.375 -7.75 0
      vertex 6.375 -2.5 0
      vertex 6.375 -2.5 -1.16573e-015
    endloop
  endfacet
  facet normal 0 1 0
    outer loop
      vertex 16.267 -2.5 12.575
      vertex 9.75 -2.5 15.5
      vertex 14.125 -2.5 15.5
    endloop
  endfacet
  facet normal 0 1 0
    outer loop
      vertex 3.61698 -2.5 15.5
      vertex 9.75 -2.5 15.5
      vertex 16.267 -2.5 12.575
    endloop
  endfacet
  facet normal 0 1 0
    outer loop
      vertex 3.61698 -2.5 15.5
      vertex 16.267 -2.5 12.575
      vertex 16.52 -2.5 12.305
    endloop
  endfacet
  facet normal 0 1 0
    outer loop
      vertex 3.61698 -2.5 15.5
      vertex 16.52 -2.5 12.305
      vertex 16.689 -2.5 11.998
    endloop
  endfacet
  facet normal 0 1 0
    outer loop
      vertex 3.61698 -2.5 15.5
      vertex 16.689 -2.5 11.998
      vertex 16.962 -2.5 11.625
    endloop
  endfacet
  facet normal 0 1 0
    outer loop
      vertex 3.61698 -2.5 15.5
      vertex 16.962 -2.5 11.625
      vertex 16.91 -2.5 11.595
    endloop
  endfacet
  facet normal 0 1 0
    outer loop
      vertex 3.61698 -2.5 15.5
      vertex 16.91 -2.5 11.595
      vertex 17.456 -2.5 10.603
    endloop
  endfacet
  facet normal 0 1 0
    outer loop
      vertex 3.61698 -2.5 15.5
      vertex 17.456 -2.5 10.603
      vertex 17.939 -2.5 8.721
    endloop
  endfacet
  facet normal 0 1 0
    outer loop
      vertex 12.8501 -2.5 10.3656
      vertex 17.939 -2.5 8.721
      vertex 17.939 -2.5 6.779
    endloop
  endfacet
  facet normal 0 1 0
    outer loop
      vertex 13.4822 -2.5 9.12513
      vertex 17.939 -2.5 6.779
      vertex 17.456 -2.5 4.897
    endloop
  endfacet
  facet normal 0 1 0
    outer loop
      vertex 13.7 -2.5 7.75
      vertex 17.456 -2.5 4.897
      vertex 16.91 -2.5 3.905
    endloop
  endfacet
  facet normal 0 1 0
    outer loop
      vertex 16.91 -2.5 3.905
      vertex 16.962 -2.5 3.875
      vertex 16.689 -2.5 3.502
    endloop
  endfacet
  facet normal 0 1 0
    outer loop
      vertex 13.4822 -2.5 6.37487
      vertex 16.689 -2.5 3.502
      vertex 16.52 -2.5 3.195
    endloop
  endfacet
  facet normal 0 1 0
    outer loop
      vertex 13.7 -2.5 7.75
      vertex 16.689 -2.5 3.502
      vertex 13.4822 -2.5 6.37487
    endloop
  endfacet
  facet normal 0 1 0
    outer loop
      vertex 11.8656 -2.5 4.14987
      vertex 16.267 -2.5 2.925
      vertex 14.125 -2.5 -1.16573e-015
    endloop
  endfacet
  facet normal 0 1 0
    outer loop
      vertex 6.63436 -2.5 4.14987
      vertex 14.125 -2.5 -1.16573e-015
      vertex 6.375 -2.5 -1.16573e-015
    endloop
  endfacet
  facet normal 0 1 0
    outer loop
      vertex 5.0178 -2.5 6.37487
      vertex 6.375 -2.5 0
      vertex 3.61698 -2.5 0
    endloop
  endfacet
  facet normal 0 1 0
    outer loop
      vertex 4.8 -2.5 7.75
      vertex 5.0178 -2.5 6.37487
      vertex 3.61698 -2.5 0
    endloop
  endfacet
  facet normal 0 1 0
    outer loop
      vertex 11.8656 -2.5 4.14987
      vertex 14.125 -2.5 -1.16573e-015
      vertex 10.6251 -2.5 3.5178
    endloop
  endfacet
  facet normal 0 1 0
    outer loop
      vertex 9.25 -2.5 3.3
      vertex 14.125 -2.5 -1.16573e-015
      vertex 7.87487 -2.5 3.5178
    endloop
  endfacet
  facet normal 0 1 0
    outer loop
      vertex 7.87487 -2.5 3.5178
      vertex 14.125 -2.5 -1.16573e-015
      vertex 6.63436 -2.5 4.14987
    endloop
  endfacet
  facet normal 0 1 0
    outer loop
      vertex 5.64987 -2.5 5.13436
      vertex 6.63436 -2.5 4.14987
      vertex 6.375 -2.5 -1.16573e-015
    endloop
  endfacet
  facet normal 0 1 0
    outer loop
      vertex 10.6251 -2.5 3.5178
      vertex 14.125 -2.5 -1.16573e-015
      vertex 9.25 -2.5 3.3
    endloop
  endfacet
  facet normal 0 1 0
    outer loop
      vertex 13.4822 -2.5 6.37487
      vertex 16.267 -2.5 2.925
      vertex 12.8501 -2.5 5.13436
    endloop
  endfacet
  facet normal 0 1 0
    outer loop
      vertex 12.8501 -2.5 5.13436
      vertex 16.267 -2.5 2.925
      vertex 11.8656 -2.5 4.14987
    endloop
  endfacet
  facet normal 0 1 0
    outer loop
      vertex 13.4822 -2.5 6.37487
      vertex 16.52 -2.5 3.195
      vertex 16.267 -2.5 2.925
    endloop
  endfacet
  facet normal 0 1 0
    outer loop
      vertex 13.7 -2.5 7.75
      vertex 16.91 -2.5 3.905
      vertex 16.689 -2.5 3.502
    endloop
  endfacet
  facet normal 0 1 0
    outer loop
      vertex 13.4822 -2.5 9.12513
      vertex 17.456 -2.5 4.897
      vertex 13.7 -2.5 7.75
    endloop
  endfacet
  facet normal 0 1 0
    outer loop
      vertex 12.8501 -2.5 10.3656
      vertex 17.939 -2.5 6.779
      vertex 13.4822 -2.5 9.12513
    endloop
  endfacet
  facet normal 0 1 0
    outer loop
      vertex 11.8656 -2.5 11.3501
      vertex 17.939 -2.5 8.721
      vertex 12.8501 -2.5 10.3656
    endloop
  endfacet
  facet normal 0 1 0
    outer loop
      vertex 9.25 -2.5 12.2
      vertex 3.61698 -2.5 15.5
      vertex 10.6251 -2.5 11.9822
    endloop
  endfacet
  facet normal 0 1 0
    outer loop
      vertex 10.6251 -2.5 11.9822
      vertex 17.939 -2.5 8.721
      vertex 11.8656 -2.5 11.3501
    endloop
  endfacet
  facet normal 0 1 0
    outer loop
      vertex 3.61698 -2.5 15.5
      vertex 17.939 -2.5 8.721
      vertex 10.6251 -2.5 11.9822
    endloop
  endfacet
  facet normal 0 1 0
    outer loop
      vertex 7.87487 -2.5 11.9822
      vertex 3.61698 -2.5 15.5
      vertex 9.25 -2.5 12.2
    endloop
  endfacet
  facet normal 0 1 0
    outer loop
      vertex 6.63436 -2.5 11.3501
      vertex 3.61698 -2.5 15.5
      vertex 7.87487 -2.5 11.9822
    endloop
  endfacet
  facet normal 0 1 0
    outer loop
      vertex 5.64987 -2.5 10.3656
      vertex 3.61698 -2.5 15.5
      vertex 6.63436 -2.5 11.3501
    endloop
  endfacet
  facet normal 0 1 0
    outer loop
      vertex 4.8 -2.5 7.75
      vertex 3.61698 -2.5 15.5
      vertex 5.0178 -2.5 9.12513
    endloop
  endfacet
  facet normal 0 1 0
    outer loop
      vertex 3.61698 -2.5 15.5
      vertex 5.64987 -2.5 10.3656
      vertex 5.0178 -2.5 9.12513
    endloop
  endfacet
  facet normal 0 1 0
    outer loop
      vertex 3.61698 -2.5 15.5
      vertex 4.8 -2.5 7.75
      vertex 3.61698 -2.5 0
    endloop
  endfacet
  facet normal 0 1 0
    outer loop
      vertex 5.64987 -2.5 5.13436
      vertex 6.375 -2.5 -1.16573e-015
      vertex 6.375 -2.5 0
    endloop
  endfacet
  facet normal 0 1 0
    outer loop
      vertex 5.64987 -2.5 5.13436
      vertex 6.375 -2.5 0
      vertex 5.0178 -2.5 6.37487
    endloop
  endfacet
  facet normal -0.866025 0.5 0
    outer loop
      vertex 3.61698 -2.5 15.5
      vertex 3.61698 -2.5 0
      vertex 3.4089 -2.86041 15.5
    endloop
  endfacet
  facet normal -0.866025 0.5 0
    outer loop
      vertex 3.4089 -2.86041 15.5
      vertex 3.61698 -2.5 0
      vertex 3.4089 -2.86041 0
    endloop
  endfacet
  facet normal -0.642787 0.766045 0
    outer loop
      vertex 3.4089 -2.86041 15.5
      vertex 3.4089 -2.86041 0
      vertex 2.225 -3.85381 15.5
    endloop
  endfacet
  facet normal -0.642787 0.766045 0
    outer loop
      vertex 2.225 -3.85381 15.5
      vertex 3.4089 -2.86041 0
      vertex 2.225 -3.85381 0
    endloop
  endfacet
  facet normal -0.34202 0.939693 0
    outer loop
      vertex 2.225 -3.85381 15.5
      vertex 2.225 -3.85381 0
      vertex 0.772734 -4.38239 15.5
    endloop
  endfacet
  facet normal -0.34202 0.939693 0
    outer loop
      vertex 0.772734 -4.38239 15.5
      vertex 2.225 -3.85381 0
      vertex 0.772734 -4.38239 0
    endloop
  endfacet
  facet normal 0 1 0
    outer loop
      vertex 0.772734 -4.38239 15.5
      vertex 0.772734 -4.38239 0
      vertex -0.772734 -4.38239 15.5
    endloop
  endfacet
  facet normal 0 1 0
    outer loop
      vertex -0.772734 -4.38239 15.5
      vertex 0.772734 -4.38239 0
      vertex -0.772734 -4.38239 0
    endloop
  endfacet
  facet normal 0.34202 0.939693 0
    outer loop
      vertex -0.772734 -4.38239 15.5
      vertex -0.772734 -4.38239 0
      vertex -2.225 -3.85381 15.5
    endloop
  endfacet
  facet normal 0.34202 0.939693 0
    outer loop
      vertex -2.225 -3.85381 15.5
      vertex -0.772734 -4.38239 0
      vertex -2.225 -3.85381 0
    endloop
  endfacet
  facet normal 0.642787 0.766045 0
    outer loop
      vertex -2.225 -3.85381 15.5
      vertex -2.225 -3.85381 0
      vertex -3.4089 -2.86041 15.5
    endloop
  endfacet
  facet normal 0.642787 0.766045 0
    outer loop
      vertex -3.4089 -2.86041 15.5
      vertex -2.225 -3.85381 0
      vertex -3.4089 -2.86041 0
    endloop
  endfacet
  facet normal 0.866025 0.5 0
    outer loop
      vertex -4.18163 -1.52199 15.5
      vertex -3.4089 -2.86041 15.5
      vertex -3.4089 -2.86041 0
    endloop
  endfacet
  facet normal 0.866025 0.5 0
    outer loop
      vertex -4.18163 -1.52199 0
      vertex -4.18163 -1.52199 15.5
      vertex -3.4089 -2.86041 0
    endloop
  endfacet
  facet normal 0.984808 0.173648 0
    outer loop
      vertex -4.45 0 15.5
      vertex -4.18163 -1.52199 15.5
      vertex -4.18163 -1.52199 0
    endloop
  endfacet
  facet normal 0.984808 0.173648 0
    outer loop
      vertex -4.45 0 0
      vertex -4.45 0 15.5
      vertex -4.18163 -1.52199 0
    endloop
  endfacet
  facet normal 0.984808 -0.173648 0
    outer loop
      vertex -4.18163 1.52199 0
      vertex -4.18163 1.52199 15.5
      vertex -4.45 0 15.5
    endloop
  endfacet
  facet normal 0.984808 -0.173648 0
    outer loop
      vertex -4.45 0 0
      vertex -4.18163 1.52199 0
      vertex -4.45 0 15.5
    endloop
  endfacet
  facet normal 0.866025 -0.5 0
    outer loop
      vertex -3.4089 2.86041 0
      vertex -3.4089 2.86041 15.5
      vertex -4.18163 1.52199 15.5
    endloop
  endfacet
  facet normal 0.866025 -0.5 0
    outer loop
      vertex -4.18163 1.52199 0
      vertex -3.4089 2.86041 0
      vertex -4.18163 1.52199 15.5
    endloop
  endfacet
  facet normal 0.642787 -0.766045 0
    outer loop
      vertex -2.225 3.85381 0
      vertex -2.225 3.85381 15.5
      vertex -3.4089 2.86041 15.5
    endloop
  endfacet
  facet normal 0.642787 -0.766045 0
    outer loop
      vertex -3.4089 2.86041 0
      vertex -2.225 3.85381 0
      vertex -3.4089 2.86041 15.5
    endloop
  endfacet
  facet normal 0.34202 -0.939693 0
    outer loop
      vertex -0.772734 4.38239 0
      vertex -0.772734 4.38239 15.5
      vertex -2.225 3.85381 15.5
    endloop
  endfacet
  facet normal 0.34202 -0.939693 0
    outer loop
      vertex -2.225 3.85381 0
      vertex -0.772734 4.38239 0
      vertex -2.225 3.85381 15.5
    endloop
  endfacet
  facet normal 0 -1 0
    outer loop
      vertex 0.772734 4.38239 0
      vertex 0.772734 4.38239 15.5
      vertex -0.772734 4.38239 15.5
    endloop
  endfacet
  facet normal 0 -1 0
    outer loop
      vertex -0.772734 4.38239 0
      vertex 0.772734 4.38239 0
      vertex -0.772734 4.38239 15.5
    endloop
  endfacet
  facet normal -0.34202 -0.939693 0
    outer loop
      vertex 2.225 3.85381 0
      vertex 2.225 3.85381 15.5
      vertex 0.772734 4.38239 15.5
    endloop
  endfacet
  facet normal -0.34202 -0.939693 0
    outer loop
      vertex 0.772734 4.38239 0
      vertex 2.225 3.85381 0
      vertex 0.772734 4.38239 15.5
    endloop
  endfacet
  facet normal -0.642787 -0.766045 0
    outer loop
      vertex 3.4089 2.86041 0
      vertex 3.4089 2.86041 15.5
      vertex 2.225 3.85381 15.5
    endloop
  endfacet
  facet normal -0.642787 -0.766045 0
    outer loop
      vertex 2.225 3.85381 0
      vertex 3.4089 2.86041 0
      vertex 2.225 3.85381 15.5
    endloop
  endfacet
  facet normal -0.866025 -0.5 0
    outer loop
      vertex 3.61698 2.5 15.5
      vertex 3.4089 2.86041 15.5
      vertex 3.61698 2.5 0
    endloop
  endfacet
  facet normal -0.866025 -0.5 0
    outer loop
      vertex 3.61698 2.5 0
      vertex 3.4089 2.86041 15.5
      vertex 3.4089 2.86041 0
    endloop
  endfacet
  facet normal 0 -1 0
    outer loop
      vertex 6.375 2.5 0
      vertex 6.375 2.5 -2.27596e-015
      vertex 14.125 2.5 -2.27596e-015
    endloop
  endfacet
  facet normal 0 -1 0
    outer loop
      vertex 16.52 2.5 3.195
      vertex 6.375 2.5 0
      vertex 16.267 2.5 2.925
    endloop
  endfacet
  facet normal 0 -1 0
    outer loop
      vertex 16.267 2.5 2.925
      vertex 6.375 2.5 0
      vertex 14.125 2.5 -2.27596e-015
    endloop
  endfacet
  facet normal 0 -1 0
    outer loop
      vertex 16.689 2.5 3.502
      vertex 6.375 2.5 0
      vertex 16.52 2.5 3.195
    endloop
  endfacet
  facet normal 0 -1 0
    outer loop
      vertex 16.962 2.5 3.875
      vertex 6.375 2.5 0
      vertex 16.689 2.5 3.502
    endloop
  endfacet
  facet normal 0 -1 0
    outer loop
      vertex 16.91 2.5 3.905
      vertex 6.375 2.5 0
      vertex 16.962 2.5 3.875
    endloop
  endfacet
  facet normal 0 -1 0
    outer loop
      vertex 17.456 2.5 4.897
      vertex 6.375 2.5 0
      vertex 16.91 2.5 3.905
    endloop
  endfacet
  facet normal 0 -1 0
    outer loop
      vertex 17.939 2.5 6.779
      vertex 6.375 2.5 0
      vertex 17.456 2.5 4.897
    endloop
  endfacet
  facet normal 0 -1 0
    outer loop
      vertex 17.939 2.5 8.721
      vertex 6.375 2.5 0
      vertex 17.939 2.5 6.779
    endloop
  endfacet
  facet normal 0 -1 0
    outer loop
      vertex 11.8656 2.5 4.14987
      vertex 6.375 2.5 0
      vertex 17.939 2.5 8.721
    endloop
  endfacet
  facet normal 0 -1 0
    outer loop
      vertex 11.8656 2.5 4.14987
      vertex 10.6251 2.5 3.5178
      vertex 6.375 2.5 0
    endloop
  endfacet
  facet normal 0 -1 0
    outer loop
      vertex 13.7 2.5 7.75
      vertex 13.4822 2.5 6.37487
      vertex 17.456 2.5 10.603
    endloop
  endfacet
  facet normal 0 -1 0
    outer loop
      vertex 16.689 2.5 11.998
      vertex 16.91 2.5 11.595
      vertex 16.962 2.5 11.625
    endloop
  endfacet
  facet normal 0 -1 0
    outer loop
      vertex 7.87487 2.5 3.5178
      vertex 6.63436 2.5 4.14987
      vertex 6.375 2.5 0
    endloop
  endfacet
  facet normal 0 -1 0
    outer loop
      vertex 11.8656 2.5 11.3501
      vertex 12.8501 2.5 10.3656
      vertex 14.125 2.5 15.5
    endloop
  endfacet
  facet normal 0 -1 0
    outer loop
      vertex 6.63436 2.5 11.3501
      vertex 7.87487 2.5 11.9822
      vertex 9.75 2.5 15.5
    endloop
  endfacet
  facet normal 0 -1 0
    outer loop
      vertex 3.61698 2.5 0
      vertex 4.8 2.5 7.75
      vertex 3.61698 2.5 15.5
    endloop
  endfacet
  facet normal 0 -1 0
    outer loop
      vertex 3.61698 2.5 15.5
      vertex 5.64987 2.5 10.3656
      vertex 9.75 2.5 15.5
    endloop
  endfacet
  facet normal 0 -1 0
    outer loop
      vertex 3.61698 2.5 15.5
      vertex 5.0178 2.5 9.12513
      vertex 5.64987 2.5 10.3656
    endloop
  endfacet
  facet normal 0 -1 0
    outer loop
      vertex 5.64987 2.5 10.3656
      vertex 6.63436 2.5 11.3501
      vertex 9.75 2.5 15.5
    endloop
  endfacet
  facet normal 0 -1 0
    outer loop
      vertex 9.75 2.5 15.5
      vertex 9.25 2.5 12.2
      vertex 14.125 2.5 15.5
    endloop
  endfacet
  facet normal 0 -1 0
    outer loop
      vertex 9.25 2.5 12.2
      vertex 10.6251 2.5 11.9822
      vertex 14.125 2.5 15.5
    endloop
  endfacet
  facet normal 0 -1 0
    outer loop
      vertex 5.64987 2.5 5.13436
      vertex 5.0178 2.5 6.37487
      vertex 6.375 2.5 0
    endloop
  endfacet
  facet normal 0 -1 0
    outer loop
      vertex 10.6251 2.5 11.9822
      vertex 11.8656 2.5 11.3501
      vertex 14.125 2.5 15.5
    endloop
  endfacet
  facet normal 0 -1 0
    outer loop
      vertex 14.125 2.5 15.5
      vertex 12.8501 2.5 10.3656
      vertex 16.267 2.5 12.575
    endloop
  endfacet
  facet normal 0 -1 0
    outer loop
      vertex 12.8501 2.5 10.3656
      vertex 13.4822 2.5 9.12513
      vertex 16.267 2.5 12.575
    endloop
  endfacet
  facet normal 0 -1 0
    outer loop
      vertex 16.91 2.5 11.595
      vertex 13.7 2.5 7.75
      vertex 17.456 2.5 10.603
    endloop
  endfacet
  facet normal 0 -1 0
    outer loop
      vertex 17.456 2.5 10.603
      vertex 13.4822 2.5 6.37487
      vertex 17.939 2.5 8.721
    endloop
  endfacet
  facet normal 0 -1 0
    outer loop
      vertex 13.4822 2.5 6.37487
      vertex 12.8501 2.5 5.13436
      vertex 17.939 2.5 8.721
    endloop
  endfacet
  facet normal 0 -1 0
    outer loop
      vertex 12.8501 2.5 5.13436
      vertex 11.8656 2.5 4.14987
      vertex 17.939 2.5 8.721
    endloop
  endfacet
  facet normal 0 -1 0
    outer loop
      vertex 10.6251 2.5 3.5178
      vertex 9.25 2.5 3.3
      vertex 6.375 2.5 0
    endloop
  endfacet
  facet normal 0 -1 0
    outer loop
      vertex 9.25 2.5 3.3
      vertex 7.87487 2.5 3.5178
      vertex 6.375 2.5 0
    endloop
  endfacet
  facet normal 0 -1 0
    outer loop
      vertex 5.64987 2.5 5.13436
      vertex 6.375 2.5 0
      vertex 6.63436 2.5 4.14987
    endloop
  endfacet
  facet normal 0 -1 0
    outer loop
      vertex 3.61698 2.5 0
      vertex 5.0178 2.5 6.37487
      vertex 4.8 2.5 7.75
    endloop
  endfacet
  facet normal 0 -1 0
    outer loop
      vertex 3.61698 2.5 0
      vertex 6.375 2.5 0
      vertex 5.0178 2.5 6.37487
    endloop
  endfacet
  facet normal 0 -1 0
    outer loop
      vertex 4.8 2.5 7.75
      vertex 5.0178 2.5 9.12513
      vertex 3.61698 2.5 15.5
    endloop
  endfacet
  facet normal 0 -1 0
    outer loop
      vertex 7.87487 2.5 11.9822
      vertex 9.25 2.5 12.2
      vertex 9.75 2.5 15.5
    endloop
  endfacet
  facet normal 0 -1 0
    outer loop
      vertex 13.4822 2.5 9.12513
      vertex 16.52 2.5 12.305
      vertex 16.267 2.5 12.575
    endloop
  endfacet
  facet normal 0 -1 0
    outer loop
      vertex 13.4822 2.5 9.12513
      vertex 16.689 2.5 11.998
      vertex 16.52 2.5 12.305
    endloop
  endfacet
  facet normal 0 -1 0
    outer loop
      vertex 13.4822 2.5 9.12513
      vertex 16.91 2.5 11.595
      vertex 16.689 2.5 11.998
    endloop
  endfacet
  facet normal 0 -1 0
    outer loop
      vertex 13.4822 2.5 9.12513
      vertex 13.7 2.5 7.75
      vertex 16.91 2.5 11.595
    endloop
  endfacet
  facet normal -0.806868 9.73967e-017 -0.590732
    outer loop
      vertex 6.375 2.5 0
      vertex 6.375 7.75 0
      vertex 6.375 2.5 -2.27596e-015
    endloop
  endfacet
  facet normal -0.806868 9.73967e-017 -0.590732
    outer loop
      vertex 6.375 2.5 -2.27596e-015
      vertex 6.375 7.75 0
      vertex 6.375 7.75 -3.44169e-015
    endloop
  endfacet
  facet normal 2.83275e-016 1 -2.22045e-016
    outer loop
      vertex 2.5 7.75 7.75
      vertex 2.743 7.75 9.677
      vertex 2.743 7.75 5.823
    endloop
  endfacet
  facet normal 2.83275e-016 1 -2.22045e-016
    outer loop
      vertex 2.743 7.75 5.823
      vertex 2.743 7.75 9.677
      vertex 3.459 7.75 11.484
    endloop
  endfacet
  facet normal 2.83275e-016 1 -2.22045e-016
    outer loop
      vertex 2.743 7.75 5.823
      vertex 3.459 7.75 11.484
      vertex 3.554 7.75 11.615
    endloop
  endfacet
  facet normal 2.83275e-016 1 -2.22045e-016
    outer loop
      vertex 3.554 7.75 11.615
      vertex 3.538 7.75 11.625
      vertex 6.375 7.75 15.5
    endloop
  endfacet
  facet normal 2.83275e-016 1 -2.22045e-016
    outer loop
      vertex 3.554 7.75 11.615
      vertex 6.375 7.75 15.5
      vertex 2.743 7.75 5.823
    endloop
  endfacet
  facet normal 2.83275e-016 1 -2.22045e-016
    outer loop
      vertex 9.25 7.75 12.2
      vertex 6.375 7.75 15.5
      vertex 14.125 7.75 15.5
    endloop
  endfacet
  facet normal 2.83275e-016 1 -2.22045e-016
    outer loop
      vertex 11.8656 7.75 11.3501
      vertex 14.125 7.75 15.5
      vertex 16.267 7.75 12.575
    endloop
  endfacet
  facet normal 2.83275e-016 1 -2.22045e-016
    outer loop
      vertex 12.8501 7.75 10.3656
      vertex 16.52 7.75 12.305
      vertex 16.689 7.75 11.998
    endloop
  endfacet
  facet normal 2.83275e-016 1 -2.22045e-016
    outer loop
      vertex 11.8656 7.75 11.3501
      vertex 16.52 7.75 12.305
      vertex 12.8501 7.75 10.3656
    endloop
  endfacet
  facet normal 2.83275e-016 1 -2.22045e-016
    outer loop
      vertex 13.4822 7.75 9.12513
      vertex 17.456 7.75 10.603
      vertex 17.939 7.75 8.721
    endloop
  endfacet
  facet normal 2.83275e-016 1 -2.22045e-016
    outer loop
      vertex 13.7 7.75 7.75
      vertex 17.939 7.75 8.721
      vertex 17.939 7.75 6.779
    endloop
  endfacet
  facet normal 2.83275e-016 1 -2.22045e-016
    outer loop
      vertex 13.4822 7.75 6.37487
      vertex 17.939 7.75 6.779
      vertex 17.456 7.75 4.897
    endloop
  endfacet
  facet normal 2.83275e-016 1 -2.22045e-016
    outer loop
      vertex 12.8501 7.75 5.13436
      vertex 17.456 7.75 4.897
      vertex 16.91 7.75 3.905
    endloop
  endfacet
  facet normal 2.83275e-016 1 -2.22045e-016
    outer loop
      vertex 11.8656 7.75 4.14987
      vertex 16.689 7.75 3.502
      vertex 16.52 7.75 3.195
    endloop
  endfacet
  facet normal 2.83275e-016 1 -2.22045e-016
    outer loop
      vertex 12.8501 7.75 5.13436
      vertex 16.962 7.75 3.875
      vertex 16.689 7.75 3.502
    endloop
  endfacet
  facet normal 2.83275e-016 1 -2.22045e-016
    outer loop
      vertex 9.75 7.75 3.37919
      vertex 16.267 7.75 2.925
      vertex 14.125 7.75 -3.44169e-015
    endloop
  endfacet
  facet normal 2.83275e-016 1 -2.22045e-016
    outer loop
      vertex 9.75 7.75 0
      vertex 14.125 7.75 -3.44169e-015
      vertex 6.375 7.75 -3.44169e-015
    endloop
  endfacet
  facet normal 2.83275e-016 1 -2.22045e-016
    outer loop
      vertex 11.8656 7.75 4.14987
      vertex 16.267 7.75 2.925
      vertex 10.6251 7.75 3.5178
    endloop
  endfacet
  facet normal 2.83275e-016 1 -2.22045e-016
    outer loop
      vertex 9.75 7.75 3.37919
      vertex 14.125 7.75 -3.44169e-015
      vertex 9.75 7.75 0
    endloop
  endfacet
  facet normal 2.83275e-016 1 -2.22045e-016
    outer loop
      vertex 10.6251 7.75 3.5178
      vertex 16.267 7.75 2.925
      vertex 9.75 7.75 3.37919
    endloop
  endfacet
  facet normal 2.83275e-016 1 -2.22045e-016
    outer loop
      vertex 11.8656 7.75 4.14987
      vertex 16.52 7.75 3.195
      vertex 16.267 7.75 2.925
    endloop
  endfacet
  facet normal 2.83275e-016 1 -2.22045e-016
    outer loop
      vertex 12.8501 7.75 5.13436
      vertex 16.689 7.75 3.502
      vertex 11.8656 7.75 4.14987
    endloop
  endfacet
  facet normal 2.83275e-016 1 -2.22045e-016
    outer loop
      vertex 12.8501 7.75 10.3656
      vertex 17.456 7.75 10.603
      vertex 13.4822 7.75 9.12513
    endloop
  endfacet
  facet normal 2.83275e-016 1 -2.22045e-016
    outer loop
      vertex 12.8501 7.75 5.13436
      vertex 16.91 7.75 3.905
      vertex 16.962 7.75 3.875
    endloop
  endfacet
  facet normal 2.83275e-016 1 -2.22045e-016
    outer loop
      vertex 13.4822 7.75 6.37487
      vertex 17.456 7.75 4.897
      vertex 12.8501 7.75 5.13436
    endloop
  endfacet
  facet normal 2.83275e-016 1 -2.22045e-016
    outer loop
      vertex 13.7 7.75 7.75
      vertex 17.939 7.75 6.779
      vertex 13.4822 7.75 6.37487
    endloop
  endfacet
  facet normal 2.83275e-016 1 -2.22045e-016
    outer loop
      vertex 12.8501 7.75 10.3656
      vertex 16.91 7.75 11.595
      vertex 17.456 7.75 10.603
    endloop
  endfacet
  facet normal 2.83275e-016 1 -2.22045e-016
    outer loop
      vertex 13.4822 7.75 9.12513
      vertex 17.939 7.75 8.721
      vertex 13.7 7.75 7.75
    endloop
  endfacet
  facet normal 2.83275e-016 1 -2.22045e-016
    outer loop
      vertex 12.8501 7.75 10.3656
      vertex 16.689 7.75 11.998
      vertex 16.962 7.75 11.625
    endloop
  endfacet
  facet normal 2.83275e-016 1 -2.22045e-016
    outer loop
      vertex 11.8656 7.75 11.3501
      vertex 16.267 7.75 12.575
      vertex 16.52 7.75 12.305
    endloop
  endfacet
  facet normal 2.83275e-016 1 -2.22045e-016
    outer loop
      vertex 10.6251 7.75 11.9822
      vertex 14.125 7.75 15.5
      vertex 11.8656 7.75 11.3501
    endloop
  endfacet
  facet normal 2.83275e-016 1 -2.22045e-016
    outer loop
      vertex 9.25 7.75 12.2
      vertex 14.125 7.75 15.5
      vertex 10.6251 7.75 11.9822
    endloop
  endfacet
  facet normal 2.83275e-016 1 -2.22045e-016
    outer loop
      vertex 7.87487 7.75 11.9822
      vertex 6.375 7.75 15.5
      vertex 9.25 7.75 12.2
    endloop
  endfacet
  facet normal 2.83275e-016 1 -2.22045e-016
    outer loop
      vertex 4.8 7.75 7.75
      vertex 2.743 7.75 5.823
      vertex 5.0178 7.75 9.12513
    endloop
  endfacet
  facet normal 2.83275e-016 1 -2.22045e-016
    outer loop
      vertex 6.63436 7.75 11.3501
      vertex 6.375 7.75 15.5
      vertex 7.87487 7.75 11.9822
    endloop
  endfacet
  facet normal 2.83275e-016 1 -2.22045e-016
    outer loop
      vertex 5.64987 7.75 10.3656
      vertex 6.375 7.75 15.5
      vertex 6.63436 7.75 11.3501
    endloop
  endfacet
  facet normal 2.83275e-016 1 -2.22045e-016
    outer loop
      vertex 2.743 7.75 5.823
      vertex 6.375 7.75 15.5
      vertex 5.64987 7.75 10.3656
    endloop
  endfacet
  facet normal 2.83275e-016 1 -2.22045e-016
    outer loop
      vertex 2.743 7.75 5.823
      vertex 5.64987 7.75 10.3656
      vertex 5.0178 7.75 9.12513
    endloop
  endfacet
  facet normal 2.83275e-016 1 -2.22045e-016
    outer loop
      vertex 5.0178 7.75 6.37487
      vertex 2.743 7.75 5.823
      vertex 4.8 7.75 7.75
    endloop
  endfacet
  facet normal 2.83275e-016 1 -2.22045e-016
    outer loop
      vertex 5.12164 7.75 6.17108
      vertex 2.743 7.75 5.823
      vertex 5.0178 7.75 6.37487
    endloop
  endfacet
  facet normal 2.83275e-016 1 -2.22045e-016
    outer loop
      vertex 12.8501 7.75 10.3656
      vertex 16.962 7.75 11.625
      vertex 16.91 7.75 11.595
    endloop
  endfacet
  facet normal 2.83275e-016 1 -2.22045e-016
    outer loop
      vertex 3.45006 7.75 4.03856
      vertex 2.743 7.75 5.823
      vertex 5.12164 7.75 6.17108
    endloop
  endfacet
  facet normal 2.83275e-016 1 -2.22045e-016
    outer loop
      vertex 9.75 7.75 0
      vertex 6.375 7.75 -3.44169e-015
      vertex 6.375 7.75 0
    endloop
  endfacet
  facet normal 0 1 0
    outer loop
      vertex 5.64987 7.75 5.13436
      vertex 9.75 7.75 0
      vertex 3.45006 7.75 4.03856
    endloop
  endfacet
  facet normal 0 1 0
    outer loop
      vertex 6.375 7.75 15.5
      vertex 0 7.75 15.5
      vertex 9.75 7.75 15.5
    endloop
  endfacet
  facet normal 0 1 0
    outer loop
      vertex 3.538 7.75 11.625
      vertex 0 7.75 15.5
      vertex 6.375 7.75 15.5
    endloop
  endfacet
  facet normal 0 1 0
    outer loop
      vertex 3.459 7.75 11.484
      vertex 0 7.75 15.5
      vertex 3.538 7.75 11.625
    endloop
  endfacet
  facet normal 0 1 0
    outer loop
      vertex 5.12164 7.75 6.17108
      vertex 5.64987 7.75 5.13436
      vertex 3.45006 7.75 4.03856
    endloop
  endfacet
  facet normal 0 1 0
    outer loop
      vertex 2.743 7.75 9.677
      vertex 0 7.75 15.5
      vertex 3.459 7.75 11.484
    endloop
  endfacet
  facet normal 0 1 0
    outer loop
      vertex 0 7.75 0
      vertex 0 7.75 15.5
      vertex 2.743 7.75 9.677
    endloop
  endfacet
  facet normal 0 1 0
    outer loop
      vertex 0 7.75 0
      vertex 2.743 7.75 9.677
      vertex 2.5 7.75 7.75
    endloop
  endfacet
  facet normal 0 1 0
    outer loop
      vertex 0 7.75 0
      vertex 2.5 7.75 7.75
      vertex 2.743 7.75 5.823
    endloop
  endfacet
  facet normal 0 1 0
    outer loop
      vertex 0 7.75 0
      vertex 2.743 7.75 5.823
      vertex 3.45006 7.75 4.03856
    endloop
  endfacet
  facet normal 0 1 0
    outer loop
      vertex 0 7.75 0
      vertex 3.45006 7.75 4.03856
      vertex 9.75 7.75 0
    endloop
  endfacet
  facet normal 0 1 0
    outer loop
      vertex 7.87487 7.75 3.5178
      vertex 9.75 7.75 0
      vertex 6.63436 7.75 4.14987
    endloop
  endfacet
  facet normal 0 1 0
    outer loop
      vertex 5.64987 7.75 5.13436
      vertex 6.63436 7.75 4.14987
      vertex 9.75 7.75 0
    endloop
  endfacet
  facet normal 0 1 0
    outer loop
      vertex 9.25 7.75 3.3
      vertex 9.75 7.75 0
      vertex 7.87487 7.75 3.5178
    endloop
  endfacet
  facet normal 0 1 0
    outer loop
      vertex 9.75 7.75 0
      vertex 9.25 7.75 3.3
      vertex 9.75 7.75 3.37919
    endloop
  endfacet
  facet normal 0 1 0
    outer loop
      vertex 3.459 7.75 11.484
      vertex 3.538 7.75 11.625
      vertex 3.554 7.75 11.615
    endloop
  endfacet
  facet normal -0.156434 0.987688 0
    outer loop
      vertex -2.39488 7.37069 0
      vertex -2.39488 7.37069 15.5
      vertex 0 7.75 0
    endloop
  endfacet
  facet normal -0.156434 0.987688 0
    outer loop
      vertex 0 7.75 0
      vertex -2.39488 7.37069 15.5
      vertex 0 7.75 15.5
    endloop
  endfacet
  facet normal -0.45399 0.891007 0
    outer loop
      vertex -4.55534 6.26988 0
      vertex -4.55534 6.26988 15.5
      vertex -2.39488 7.37069 0
    endloop
  endfacet
  facet normal -0.45399 0.891007 0
    outer loop
      vertex -2.39488 7.37069 0
      vertex -4.55534 6.26988 15.5
      vertex -2.39488 7.37069 15.5
    endloop
  endfacet
  facet normal -0.707107 0.707107 0
    outer loop
      vertex -6.26988 4.55534 0
      vertex -6.26988 4.55534 15.5
      vertex -4.55534 6.26988 0
    endloop
  endfacet
  facet normal -0.707107 0.707107 0
    outer loop
      vertex -4.55534 6.26988 0
      vertex -6.26988 4.55534 15.5
      vertex -4.55534 6.26988 15.5
    endloop
  endfacet
  facet normal -0.891007 0.45399 0
    outer loop
      vertex -7.37069 2.39488 0
      vertex -7.37069 2.39488 15.5
      vertex -6.26988 4.55534 0
    endloop
  endfacet
  facet normal -0.891007 0.45399 0
    outer loop
      vertex -6.26988 4.55534 0
      vertex -7.37069 2.39488 15.5
      vertex -6.26988 4.55534 15.5
    endloop
  endfacet
  facet normal 0 0 1
    outer loop
      vertex -7.37069 2.39488 15.5
      vertex -7.75 0 15.5
      vertex -7.37069 -2.39488 15.5
    endloop
  endfacet
  facet normal 0 0 1
    outer loop
      vertex -4.55534 -6.26988 15.5
      vertex -7.37069 2.39488 15.5
      vertex -6.26988 -4.55534 15.5
    endloop
  endfacet
  facet normal 0 0 1
    outer loop
      vertex -6.26988 -4.55534 15.5
      vertex -7.37069 2.39488 15.5
      vertex -7.37069 -2.39488 15.5
    endloop
  endfacet
  facet normal 0 0 1
    outer loop
      vertex -2.39488 -7.37069 15.5
      vertex -7.37069 2.39488 15.5
      vertex -4.55534 -6.26988 15.5
    endloop
  endfacet
  facet normal 0 0 1
    outer loop
      vertex 0 -7.75 15.5
      vertex -7.37069 2.39488 15.5
      vertex -2.39488 -7.37069 15.5
    endloop
  endfacet
  facet normal 0 0 1
    outer loop
      vertex -3.4089 -2.86041 15.5
      vertex -7.37069 2.39488 15.5
      vertex 0 -7.75 15.5
    endloop
  endfacet
  facet normal 0 0 1
    outer loop
      vertex 9.75 -2.5 15.5
      vertex 3.61698 -2.5 15.5
      vertex 9.75 -7.75 15.5
    endloop
  endfacet
  facet normal 0 0 1
    outer loop
      vertex 3.61698 -2.5 15.5
      vertex 3.4089 -2.86041 15.5
      vertex 9.75 -7.75 15.5
    endloop
  endfacet
  facet normal 0 0 1
    outer loop
      vertex 9.75 -7.75 15.5
      vertex 2.225 -3.85381 15.5
      vertex 0 -7.75 15.5
    endloop
  endfacet
  facet normal 0 0 1
    outer loop
      vertex 2.225 -3.85381 15.5
      vertex 0.772734 -4.38239 15.5
      vertex 0 -7.75 15.5
    endloop
  endfacet
  facet normal 0 0 1
    outer loop
      vertex 0.772734 -4.38239 15.5
      vertex -0.772734 -4.38239 15.5
      vertex 0 -7.75 15.5
    endloop
  endfacet
  facet normal 0 0 1
    outer loop
      vertex -0.772734 -4.38239 15.5
      vertex -2.225 -3.85381 15.5
      vertex 0 -7.75 15.5
    endloop
  endfacet
  facet normal 0 0 1
    outer loop
      vertex -2.225 -3.85381 15.5
      vertex -3.4089 -2.86041 15.5
      vertex 0 -7.75 15.5
    endloop
  endfacet
  facet normal 0 0 1
    outer loop
      vertex -4.18163 -1.52199 15.5
      vertex -7.37069 2.39488 15.5
      vertex -3.4089 -2.86041 15.5
    endloop
  endfacet
  facet normal 0 0 1
    outer loop
      vertex -3.4089 2.86041 15.5
      vertex -7.37069 2.39488 15.5
      vertex -4.18163 1.52199 15.5
    endloop
  endfacet
  facet normal 0 0 1
    outer loop
      vertex -2.225 3.85381 15.5
      vertex -7.37069 2.39488 15.5
      vertex -3.4089 2.86041 15.5
    endloop
  endfacet
  facet normal 0 0 1
    outer loop
      vertex -0.772734 4.38239 15.5
      vertex -7.37069 2.39488 15.5
      vertex -2.225 3.85381 15.5
    endloop
  endfacet
  facet normal 0 0 1
    outer loop
      vertex 9.75 7.75 15.5
      vertex -7.37069 2.39488 15.5
      vertex -0.772734 4.38239 15.5
    endloop
  endfacet
  facet normal 0 0 1
    outer loop
      vertex 9.75 7.75 15.5
      vertex -0.772734 4.38239 15.5
      vertex 0.772734 4.38239 15.5
    endloop
  endfacet
  facet normal 0 0 1
    outer loop
      vertex 3.61698 2.5 15.5
      vertex 9.75 2.5 15.5
      vertex 3.4089 2.86041 15.5
    endloop
  endfacet
  facet normal 0 0 1
    outer loop
      vertex 9.75 2.5 15.5
      vertex 0.772734 4.38239 15.5
      vertex 2.225 3.85381 15.5
    endloop
  endfacet
  facet normal 0 0 1
    outer loop
      vertex 9.75 2.5 15.5
      vertex 2.225 3.85381 15.5
      vertex 3.4089 2.86041 15.5
    endloop
  endfacet
  facet normal 0 0 1
    outer loop
      vertex 9.75 7.75 15.5
      vertex 0.772734 4.38239 15.5
      vertex 9.75 2.5 15.5
    endloop
  endfacet
  facet normal 0 0 1
    outer loop
      vertex 0 7.75 15.5
      vertex -7.37069 2.39488 15.5
      vertex 9.75 7.75 15.5
    endloop
  endfacet
  facet normal 0 0 1
    outer loop
      vertex -2.39488 7.37069 15.5
      vertex -7.37069 2.39488 15.5
      vertex 0 7.75 15.5
    endloop
  endfacet
  facet normal 0 0 1
    outer loop
      vertex -4.55534 6.26988 15.5
      vertex -7.37069 2.39488 15.5
      vertex -2.39488 7.37069 15.5
    endloop
  endfacet
  facet normal 0 0 1
    outer loop
      vertex -6.26988 4.55534 15.5
      vertex -7.37069 2.39488 15.5
      vertex -4.55534 6.26988 15.5
    endloop
  endfacet
  facet normal 0 0 1
    outer loop
      vertex 3.4089 -2.86041 15.5
      vertex 2.225 -3.85381 15.5
      vertex 9.75 -7.75 15.5
    endloop
  endfacet
  facet normal 0 0 1
    outer loop
      vertex -4.18163 -1.52199 15.5
      vertex -4.45 0 15.5
      vertex -7.37069 2.39488 15.5
    endloop
  endfacet
  facet normal 0 0 1
    outer loop
      vertex -4.45 0 15.5
      vertex -4.18163 1.52199 15.5
      vertex -7.37069 2.39488 15.5
    endloop
  endfacet
  facet normal -0.156435 -2.19311e-016 -0.987688
    outer loop
      vertex 10.6251 -2.5 11.9822
      vertex 10.6251 -7.75 11.9822
      vertex 9.25 -2.5 12.2
    endloop
  endfacet
  facet normal -0.156435 -2.19311e-016 -0.987688
    outer loop
      vertex 9.25 -2.5 12.2
      vertex 10.6251 -7.75 11.9822
      vertex 9.75 -7.75 12.1208
    endloop
  endfacet
  facet normal -0.156435 -2.19311e-016 -0.987688
    outer loop
      vertex 9.25 -2.5 12.2
      vertex 9.75 -7.75 12.1208
      vertex 9.25 -7.75 12.2
    endloop
  endfacet
  facet normal 0.156435 -2.19311e-016 -0.987688
    outer loop
      vertex 9.25 -2.5 12.2
      vertex 9.25 -7.75 12.2
      vertex 7.87487 -2.5 11.9822
    endloop
  endfacet
  facet normal 0.156435 -2.19311e-016 -0.987688
    outer loop
      vertex 7.87487 -2.5 11.9822
      vertex 9.25 -7.75 12.2
      vertex 7.87487 -7.75 11.9822
    endloop
  endfacet
  facet normal 0.45399 -1.97843e-016 -0.891007
    outer loop
      vertex 7.87487 -2.5 11.9822
      vertex 7.87487 -7.75 11.9822
      vertex 6.63436 -2.5 11.3501
    endloop
  endfacet
  facet normal 0.45399 -1.97843e-016 -0.891007
    outer loop
      vertex 6.63436 -2.5 11.3501
      vertex 7.87487 -7.75 11.9822
      vertex 6.63436 -7.75 11.3501
    endloop
  endfacet
  facet normal 0.707107 -1.57009e-016 -0.707107
    outer loop
      vertex 5.64987 -2.5 10.3656
      vertex 6.63436 -2.5 11.3501
      vertex 6.63436 -7.75 11.3501
    endloop
  endfacet
  facet normal 0.707107 -1.57009e-016 -0.707107
    outer loop
      vertex 5.64987 -7.75 10.3656
      vertex 5.64987 -2.5 10.3656
      vertex 6.63436 -7.75 11.3501
    endloop
  endfacet
  facet normal 0.891007 -1.00806e-016 -0.45399
    outer loop
      vertex 5.0178 -2.5 9.12513
      vertex 5.64987 -2.5 10.3656
      vertex 5.64987 -7.75 10.3656
    endloop
  endfacet
  facet normal 0.891007 -1.00806e-016 -0.45399
    outer loop
      vertex 5.0178 -7.75 9.12513
      vertex 5.0178 -2.5 9.12513
      vertex 5.64987 -7.75 10.3656
    endloop
  endfacet
  facet normal 0.987688 -3.47355e-017 -0.156435
    outer loop
      vertex 4.8 -2.5 7.75
      vertex 5.0178 -2.5 9.12513
      vertex 5.0178 -7.75 9.12513
    endloop
  endfacet
  facet normal 0.987688 -3.47355e-017 -0.156435
    outer loop
      vertex 4.8 -7.75 7.75
      vertex 4.8 -2.5 7.75
      vertex 5.0178 -7.75 9.12513
    endloop
  endfacet
  facet normal 0.987688 3.47355e-017 0.156435
    outer loop
      vertex 5.0178 -7.75 6.37487
      vertex 5.0178 -2.5 6.37487
      vertex 4.8 -2.5 7.75
    endloop
  endfacet
  facet normal 0.987688 3.47355e-017 0.156435
    outer loop
      vertex 4.8 -7.75 7.75
      vertex 5.0178 -7.75 6.37487
      vertex 4.8 -2.5 7.75
    endloop
  endfacet
  facet normal 0.891007 1.00806e-016 0.45399
    outer loop
      vertex 5.12164 -7.75 6.17108
      vertex 5.64987 -7.75 5.13436
      vertex 5.64987 -2.5 5.13436
    endloop
  endfacet
  facet normal 0.891007 1.00806e-016 0.45399
    outer loop
      vertex 5.0178 -7.75 6.37487
      vertex 5.12164 -7.75 6.17108
      vertex 5.0178 -2.5 6.37487
    endloop
  endfacet
  facet normal 0.891007 1.00806e-016 0.45399
    outer loop
      vertex 5.0178 -2.5 6.37487
      vertex 5.12164 -7.75 6.17108
      vertex 5.64987 -2.5 5.13436
    endloop
  endfacet
  facet normal -2.83275e-016 -1 2.22045e-016
    outer loop
      vertex 5.12164 -7.75 6.17108
      vertex 3.45006 -7.75 4.03856
      vertex 3.459 -7.75 4.016
    endloop
  endfacet
  facet normal -2.83275e-016 -1 2.22045e-016
    outer loop
      vertex 6.375 -7.75 0
      vertex 5.12164 -7.75 6.17108
      vertex 3.554 -7.75 3.885
    endloop
  endfacet
  facet normal -2.83275e-016 -1 2.22045e-016
    outer loop
      vertex 3.554 -7.75 3.885
      vertex 5.12164 -7.75 6.17108
      vertex 3.459 -7.75 4.016
    endloop
  endfacet
  facet normal -2.83275e-016 -1 2.22045e-016
    outer loop
      vertex 6.375 -7.75 0
      vertex 3.554 -7.75 3.885
      vertex 3.538 -7.75 3.875
    endloop
  endfacet
  facet normal -2.83275e-016 -1 2.22045e-016
    outer loop
      vertex 5.64987 -7.75 5.13436
      vertex 5.12164 -7.75 6.17108
      vertex 6.375 -7.75 0
    endloop
  endfacet
  facet normal -2.83275e-016 -1 2.22045e-016
    outer loop
      vertex 10.6251 -7.75 3.5178
      vertex 9.25 -7.75 3.3
      vertex 14.125 -7.75 0
    endloop
  endfacet
  facet normal -2.83275e-016 -1 2.22045e-016
    outer loop
      vertex 12.8501 -7.75 5.13436
      vertex 16.962 -7.75 3.875
      vertex 16.91 -7.75 3.905
    endloop
  endfacet
  facet normal -2.83275e-016 -1 2.22045e-016
    outer loop
      vertex 13.4822 -7.75 6.37487
      vertex 12.8501 -7.75 5.13436
      vertex 17.456 -7.75 4.897
    endloop
  endfacet
  facet normal -2.83275e-016 -1 2.22045e-016
    outer loop
      vertex 13.7 -7.75 7.75
      vertex 13.4822 -7.75 6.37487
      vertex 17.939 -7.75 6.779
    endloop
  endfacet
  facet normal -2.83275e-016 -1 2.22045e-016
    outer loop
      vertex 13.4822 -7.75 9.12513
      vertex 13.7 -7.75 7.75
      vertex 17.939 -7.75 8.721
    endloop
  endfacet
  facet normal -2.83275e-016 -1 2.22045e-016
    outer loop
      vertex 12.8501 -7.75 5.13436
      vertex 16.689 -7.75 3.502
      vertex 16.962 -7.75 3.875
    endloop
  endfacet
  facet normal -2.83275e-016 -1 2.22045e-016
    outer loop
      vertex 12.8501 -7.75 5.13436
      vertex 16.52 -7.75 3.195
      vertex 16.689 -7.75 3.502
    endloop
  endfacet
  facet normal -2.83275e-016 -1 2.22045e-016
    outer loop
      vertex 12.8501 -7.75 5.13436
      vertex 16.267 -7.75 2.925
      vertex 16.52 -7.75 3.195
    endloop
  endfacet
  facet normal -2.83275e-016 -1 2.22045e-016
    outer loop
      vertex 12.8501 -7.75 5.13436
      vertex 11.8656 -7.75 4.14987
      vertex 16.267 -7.75 2.925
    endloop
  endfacet
  facet normal -2.83275e-016 -1 2.22045e-016
    outer loop
      vertex 12.8501 -7.75 10.3656
      vertex 16.689 -7.75 11.998
      vertex 16.52 -7.75 12.305
    endloop
  endfacet
  facet normal -2.83275e-016 -1 2.22045e-016
    outer loop
      vertex 11.8656 -7.75 11.3501
      vertex 12.8501 -7.75 10.3656
      vertex 16.267 -7.75 12.575
    endloop
  endfacet
  facet normal -2.83275e-016 -1 2.22045e-016
    outer loop
      vertex 9.75 -7.75 15.5
      vertex 9.75 -7.75 12.1208
      vertex 14.125 -7.75 15.5
    endloop
  endfacet
  facet normal -2.83275e-016 -1 2.22045e-016
    outer loop
      vertex 9.75 -7.75 12.1208
      vertex 10.6251 -7.75 11.9822
      vertex 14.125 -7.75 15.5
    endloop
  endfacet
  facet normal -2.83275e-016 -1 2.22045e-016
    outer loop
      vertex 14.125 -7.75 15.5
      vertex 11.8656 -7.75 11.3501
      vertex 16.267 -7.75 12.575
    endloop
  endfacet
  facet normal -2.83275e-016 -1 2.22045e-016
    outer loop
      vertex 16.267 -7.75 12.575
      vertex 12.8501 -7.75 10.3656
      vertex 16.52 -7.75 12.305
    endloop
  endfacet
  facet normal -2.83275e-016 -1 2.22045e-016
    outer loop
      vertex 17.456 -7.75 10.603
      vertex 13.4822 -7.75 9.12513
      vertex 17.939 -7.75 8.721
    endloop
  endfacet
  facet normal -2.83275e-016 -1 2.22045e-016
    outer loop
      vertex 17.939 -7.75 8.721
      vertex 13.7 -7.75 7.75
      vertex 17.939 -7.75 6.779
    endloop
  endfacet
  facet normal -2.83275e-016 -1 2.22045e-016
    outer loop
      vertex 17.939 -7.75 6.779
      vertex 13.4822 -7.75 6.37487
      vertex 17.456 -7.75 4.897
    endloop
  endfacet
  facet normal -2.83275e-016 -1 2.22045e-016
    outer loop
      vertex 17.456 -7.75 4.897
      vertex 12.8501 -7.75 5.13436
      vertex 16.91 -7.75 3.905
    endloop
  endfacet
  facet normal -2.83275e-016 -1 2.22045e-016
    outer loop
      vertex 16.267 -7.75 2.925
      vertex 11.8656 -7.75 4.14987
      vertex 14.125 -7.75 0
    endloop
  endfacet
  facet normal -2.83275e-016 -1 2.22045e-016
    outer loop
      vertex 11.8656 -7.75 4.14987
      vertex 10.6251 -7.75 3.5178
      vertex 14.125 -7.75 0
    endloop
  endfacet
  facet normal -2.83275e-016 -1 2.22045e-016
    outer loop
      vertex 14.125 -7.75 0
      vertex 9.25 -7.75 3.3
      vertex 6.375 -7.75 0
    endloop
  endfacet
  facet normal -2.83275e-016 -1 2.22045e-016
    outer loop
      vertex 9.25 -7.75 3.3
      vertex 7.87487 -7.75 3.5178
      vertex 6.375 -7.75 0
    endloop
  endfacet
  facet normal -2.83275e-016 -1 2.22045e-016
    outer loop
      vertex 7.87487 -7.75 3.5178
      vertex 6.63436 -7.75 4.14987
      vertex 6.375 -7.75 0
    endloop
  endfacet
  facet normal -2.83275e-016 -1 2.22045e-016
    outer loop
      vertex 6.63436 -7.75 4.14987
      vertex 5.64987 -7.75 5.13436
      vertex 6.375 -7.75 0
    endloop
  endfacet
  facet normal -2.83275e-016 -1 2.22045e-016
    outer loop
      vertex 10.6251 -7.75 11.9822
      vertex 11.8656 -7.75 11.3501
      vertex 14.125 -7.75 15.5
    endloop
  endfacet
  facet normal -2.83275e-016 -1 2.22045e-016
    outer loop
      vertex 12.8501 -7.75 10.3656
      vertex 16.962 -7.75 11.625
      vertex 16.689 -7.75 11.998
    endloop
  endfacet
  facet normal -2.83275e-016 -1 2.22045e-016
    outer loop
      vertex 12.8501 -7.75 10.3656
      vertex 16.91 -7.75 11.595
      vertex 16.962 -7.75 11.625
    endloop
  endfacet
  facet normal -2.83275e-016 -1 2.22045e-016
    outer loop
      vertex 12.8501 -7.75 10.3656
      vertex 17.456 -7.75 10.603
      vertex 16.91 -7.75 11.595
    endloop
  endfacet
  facet normal -2.83275e-016 -1 2.22045e-016
    outer loop
      vertex 12.8501 -7.75 10.3656
      vertex 13.4822 -7.75 9.12513
      vertex 17.456 -7.75 10.603
    endloop
  endfacet
  facet normal -6.28997e-032 -2.22045e-016 -1
    outer loop
      vertex 6.375 -7.75 0
      vertex 6.375 -2.5 -1.16573e-015
      vertex 14.125 -7.75 0
    endloop
  endfacet
  facet normal -6.28997e-032 -2.22045e-016 -1
    outer loop
      vertex 14.125 -7.75 0
      vertex 6.375 -2.5 -1.16573e-015
      vertex 14.125 -2.5 -1.16573e-015
    endloop
  endfacet
  facet normal 0.806799 -3.59736e-016 -0.590825
    outer loop
      vertex 16.267 -7.75 2.925
      vertex 14.125 -7.75 0
      vertex 14.125 -2.5 -1.16573e-015
    endloop
  endfacet
  facet normal 0.806799 -3.59736e-016 -0.590825
    outer loop
      vertex 16.267 -2.5 2.925
      vertex 16.267 -7.75 2.925
      vertex 14.125 -2.5 -1.16573e-015
    endloop
  endfacet
  facet normal 0.729706 -3.58533e-016 -0.683761
    outer loop
      vertex 16.52 -7.75 3.195
      vertex 16.267 -7.75 2.925
      vertex 16.267 -2.5 2.925
    endloop
  endfacet
  facet normal 0.729706 -3.58533e-016 -0.683761
    outer loop
      vertex 16.52 -2.5 3.195
      vertex 16.52 -7.75 3.195
      vertex 16.267 -2.5 2.925
    endloop
  endfacet
  facet normal 0.876035 -3.55239e-016 -0.482247
    outer loop
      vertex 16.689 -7.75 3.502
      vertex 16.52 -7.75 3.195
      vertex 16.52 -2.5 3.195
    endloop
  endfacet
  facet normal 0.876035 -3.55239e-016 -0.482247
    outer loop
      vertex 16.689 -2.5 3.502
      vertex 16.689 -7.75 3.502
      vertex 16.52 -2.5 3.195
    endloop
  endfacet
  facet normal 0.806955 -3.59733e-016 -0.590613
    outer loop
      vertex 16.962 -7.75 3.875
      vertex 16.689 -7.75 3.502
      vertex 16.689 -2.5 3.502
    endloop
  endfacet
  facet normal 0.806955 -3.59733e-016 -0.590613
    outer loop
      vertex 16.962 -2.5 3.875
      vertex 16.962 -7.75 3.875
      vertex 16.689 -2.5 3.502
    endloop
  endfacet
  facet normal 0.499722 5.0773e-017 0.866186
    outer loop
      vertex 16.91 -2.5 3.905
      vertex 16.91 -7.75 3.905
      vertex 16.962 -7.75 3.875
    endloop
  endfacet
  facet normal 0.499722 5.0773e-017 0.866186
    outer loop
      vertex 16.962 -2.5 3.875
      vertex 16.91 -2.5 3.905
      vertex 16.962 -7.75 3.875
    endloop
  endfacet
  facet normal 0.876067 -3.55235e-016 -0.48219
    outer loop
      vertex 17.456 -7.75 4.897
      vertex 16.91 -7.75 3.905
      vertex 16.91 -2.5 3.905
    endloop
  endfacet
  facet normal 0.876067 -3.55235e-016 -0.48219
    outer loop
      vertex 17.456 -2.5 4.897
      vertex 17.456 -7.75 4.897
      vertex 16.91 -2.5 3.905
    endloop
  endfacet
  facet normal 0.96861 -3.2958e-016 -0.248586
    outer loop
      vertex 17.939 -7.75 6.779
      vertex 17.456 -7.75 4.897
      vertex 17.456 -2.5 4.897
    endloop
  endfacet
  facet normal 0.96861 -3.2958e-016 -0.248586
    outer loop
      vertex 17.939 -2.5 6.779
      vertex 17.939 -7.75 6.779
      vertex 17.456 -2.5 4.897
    endloop
  endfacet
  facet normal 1 -2.83275e-016 4.93038e-032
    outer loop
      vertex 17.939 -7.75 8.721
      vertex 17.939 -7.75 6.779
      vertex 17.939 -2.5 6.779
    endloop
  endfacet
  facet normal 1 -2.83275e-016 4.93038e-032
    outer loop
      vertex 17.939 -2.5 8.721
      vertex 17.939 -7.75 8.721
      vertex 17.939 -2.5 6.779
    endloop
  endfacet
  facet normal 0.96861 -2.19186e-016 0.248586
    outer loop
      vertex 17.456 -2.5 10.603
      vertex 17.456 -7.75 10.603
      vertex 17.939 -7.75 8.721
    endloop
  endfacet
  facet normal 0.96861 -2.19186e-016 0.248586
    outer loop
      vertex 17.939 -2.5 8.721
      vertex 17.456 -2.5 10.603
      vertex 17.939 -7.75 8.721
    endloop
  endfacet
  facet normal 0.876067 -1.411e-016 0.48219
    outer loop
      vertex 16.91 -2.5 11.595
      vertex 16.91 -7.75 11.595
      vertex 17.456 -7.75 10.603
    endloop
  endfacet
  facet normal 0.876067 -1.411e-016 0.48219
    outer loop
      vertex 17.456 -2.5 10.603
      vertex 16.91 -2.5 11.595
      vertex 17.456 -7.75 10.603
    endloop
  endfacet
  facet normal 0.499722 -3.33891e-016 -0.866186
    outer loop
      vertex 16.91 -7.75 11.595
      vertex 16.91 -2.5 11.595
      vertex 16.962 -7.75 11.625
    endloop
  endfacet
  facet normal 0.499722 -3.33891e-016 -0.866186
    outer loop
      vertex 16.962 -7.75 11.625
      vertex 16.91 -2.5 11.595
      vertex 16.962 -2.5 11.625
    endloop
  endfacet
  facet normal 0.806955 -9.74476e-017 0.590613
    outer loop
      vertex 16.689 -2.5 11.998
      vertex 16.689 -7.75 11.998
      vertex 16.962 -7.75 11.625
    endloop
  endfacet
  facet normal 0.806955 -9.74476e-017 0.590613
    outer loop
      vertex 16.962 -2.5 11.625
      vertex 16.689 -2.5 11.998
      vertex 16.962 -7.75 11.625
    endloop
  endfacet
  facet normal 0.876035 -1.41078e-016 0.482247
    outer loop
      vertex 16.52 -2.5 12.305
      vertex 16.52 -7.75 12.305
      vertex 16.689 -7.75 11.998
    endloop
  endfacet
  facet normal 0.876035 -1.41078e-016 0.482247
    outer loop
      vertex 16.689 -2.5 11.998
      vertex 16.52 -2.5 12.305
      vertex 16.689 -7.75 11.998
    endloop
  endfacet
  facet normal 0.729706 -5.48818e-017 0.683761
    outer loop
      vertex 16.267 -2.5 12.575
      vertex 16.267 -7.75 12.575
      vertex 16.52 -7.75 12.305
    endloop
  endfacet
  facet normal 0.729706 -5.48818e-017 0.683761
    outer loop
      vertex 16.52 -2.5 12.305
      vertex 16.267 -2.5 12.575
      vertex 16.52 -7.75 12.305
    endloop
  endfacet
  facet normal 0.806799 -9.73564e-017 0.590825
    outer loop
      vertex 14.125 -2.5 15.5
      vertex 14.125 -7.75 15.5
      vertex 16.267 -7.75 12.575
    endloop
  endfacet
  facet normal 0.806799 -9.73564e-017 0.590825
    outer loop
      vertex 16.267 -2.5 12.575
      vertex 14.125 -2.5 15.5
      vertex 16.267 -7.75 12.575
    endloop
  endfacet
  facet normal 6.28997e-032 2.22045e-016 1
    outer loop
      vertex 9.75 -2.5 15.5
      vertex 9.75 -7.75 15.5
      vertex 14.125 -7.75 15.5
    endloop
  endfacet
  facet normal 6.28997e-032 2.22045e-016 1
    outer loop
      vertex 14.125 -2.5 15.5
      vertex 9.75 -2.5 15.5
      vertex 14.125 -7.75 15.5
    endloop
  endfacet
  facet normal -0.45399 -1.97843e-016 -0.891007
    outer loop
      vertex 11.8656 -2.5 11.3501
      vertex 11.8656 -7.75 11.3501
      vertex 10.6251 -2.5 11.9822
    endloop
  endfacet
  facet normal -0.45399 -1.97843e-016 -0.891007
    outer loop
      vertex 10.6251 -2.5 11.9822
      vertex 11.8656 -7.75 11.3501
      vertex 10.6251 -7.75 11.9822
    endloop
  endfacet
  facet normal -0.707107 -1.57009e-016 -0.707107
    outer loop
      vertex 12.8501 -2.5 10.3656
      vertex 12.8501 -7.75 10.3656
      vertex 11.8656 -2.5 11.3501
    endloop
  endfacet
  facet normal -0.707107 -1.57009e-016 -0.707107
    outer loop
      vertex 11.8656 -2.5 11.3501
      vertex 12.8501 -7.75 10.3656
      vertex 11.8656 -7.75 11.3501
    endloop
  endfacet
  facet normal -0.891007 -1.00806e-016 -0.45399
    outer loop
      vertex 13.4822 -2.5 9.12513
      vertex 13.4822 -7.75 9.12513
      vertex 12.8501 -2.5 10.3656
    endloop
  endfacet
  facet normal -0.891007 -1.00806e-016 -0.45399
    outer loop
      vertex 12.8501 -2.5 10.3656
      vertex 13.4822 -7.75 9.12513
      vertex 12.8501 -7.75 10.3656
    endloop
  endfacet
  facet normal -0.987688 -3.47355e-017 -0.156435
    outer loop
      vertex 13.7 -2.5 7.75
      vertex 13.7 -7.75 7.75
      vertex 13.4822 -2.5 9.12513
    endloop
  endfacet
  facet normal -0.987688 -3.47355e-017 -0.156435
    outer loop
      vertex 13.4822 -2.5 9.12513
      vertex 13.7 -7.75 7.75
      vertex 13.4822 -7.75 9.12513
    endloop
  endfacet
  facet normal -0.987688 3.47355e-017 0.156435
    outer loop
      vertex 13.7 -2.5 7.75
      vertex 13.4822 -2.5 6.37487
      vertex 13.7 -7.75 7.75
    endloop
  endfacet
  facet normal -0.987688 3.47355e-017 0.156435
    outer loop
      vertex 13.7 -7.75 7.75
      vertex 13.4822 -2.5 6.37487
      vertex 13.4822 -7.75 6.37487
    endloop
  endfacet
  facet normal -0.891007 1.00806e-016 0.45399
    outer loop
      vertex 13.4822 -2.5 6.37487
      vertex 12.8501 -2.5 5.13436
      vertex 13.4822 -7.75 6.37487
    endloop
  endfacet
  facet normal -0.891007 1.00806e-016 0.45399
    outer loop
      vertex 13.4822 -7.75 6.37487
      vertex 12.8501 -2.5 5.13436
      vertex 12.8501 -7.75 5.13436
    endloop
  endfacet
  facet normal -0.707107 1.57009e-016 0.707107
    outer loop
      vertex 12.8501 -2.5 5.13436
      vertex 11.8656 -2.5 4.14987
      vertex 12.8501 -7.75 5.13436
    endloop
  endfacet
  facet normal -0.707107 1.57009e-016 0.707107
    outer loop
      vertex 12.8501 -7.75 5.13436
      vertex 11.8656 -2.5 4.14987
      vertex 11.8656 -7.75 4.14987
    endloop
  endfacet
  facet normal -0.45399 1.97843e-016 0.891007
    outer loop
      vertex 11.8656 -7.75 4.14987
      vertex 11.8656 -2.5 4.14987
      vertex 10.6251 -2.5 3.5178
    endloop
  endfacet
  facet normal -0.45399 1.97843e-016 0.891007
    outer loop
      vertex 10.6251 -7.75 3.5178
      vertex 11.8656 -7.75 4.14987
      vertex 10.6251 -2.5 3.5178
    endloop
  endfacet
  facet normal -0.156435 2.19311e-016 0.987688
    outer loop
      vertex 10.6251 -7.75 3.5178
      vertex 10.6251 -2.5 3.5178
      vertex 9.25 -2.5 3.3
    endloop
  endfacet
  facet normal -0.156435 2.19311e-016 0.987688
    outer loop
      vertex 9.25 -7.75 3.3
      vertex 10.6251 -7.75 3.5178
      vertex 9.25 -2.5 3.3
    endloop
  endfacet
  facet normal 0.156435 2.19311e-016 0.987688
    outer loop
      vertex 9.25 -7.75 3.3
      vertex 9.25 -2.5 3.3
      vertex 7.87487 -2.5 3.5178
    endloop
  endfacet
  facet normal 0.156435 2.19311e-016 0.987688
    outer loop
      vertex 7.87487 -7.75 3.5178
      vertex 9.25 -7.75 3.3
      vertex 7.87487 -2.5 3.5178
    endloop
  endfacet
  facet normal 0.45399 1.97843e-016 0.891007
    outer loop
      vertex 7.87487 -7.75 3.5178
      vertex 7.87487 -2.5 3.5178
      vertex 6.63436 -2.5 4.14987
    endloop
  endfacet
  facet normal 0.45399 1.97843e-016 0.891007
    outer loop
      vertex 6.63436 -7.75 4.14987
      vertex 7.87487 -7.75 3.5178
      vertex 6.63436 -2.5 4.14987
    endloop
  endfacet
  facet normal 0.707107 1.57009e-016 0.707107
    outer loop
      vertex 6.63436 -7.75 4.14987
      vertex 6.63436 -2.5 4.14987
      vertex 5.64987 -2.5 5.13436
    endloop
  endfacet
  facet normal 0.707107 1.57009e-016 0.707107
    outer loop
      vertex 5.64987 -7.75 5.13436
      vertex 6.63436 -7.75 4.14987
      vertex 5.64987 -2.5 5.13436
    endloop
  endfacet
  facet normal 6.28997e-032 2.22045e-016 1
    outer loop
      vertex 14.125 7.75 15.5
      vertex 6.375 7.75 15.5
      vertex 9.75 7.75 15.5
    endloop
  endfacet
  facet normal 6.28997e-032 2.22045e-016 1
    outer loop
      vertex 9.75 2.5 15.5
      vertex 14.125 2.5 15.5
      vertex 9.75 7.75 15.5
    endloop
  endfacet
  facet normal 6.28997e-032 2.22045e-016 1
    outer loop
      vertex 14.125 2.5 15.5
      vertex 14.125 7.75 15.5
      vertex 9.75 7.75 15.5
    endloop
  endfacet
  facet normal 0.806799 -9.73564e-017 0.590825
    outer loop
      vertex 14.125 7.75 15.5
      vertex 14.125 2.5 15.5
      vertex 16.267 2.5 12.575
    endloop
  endfacet
  facet normal 0.806799 -9.73564e-017 0.590825
    outer loop
      vertex 16.267 7.75 12.575
      vertex 14.125 7.75 15.5
      vertex 16.267 2.5 12.575
    endloop
  endfacet
  facet normal 0.729706 -5.48818e-017 0.683761
    outer loop
      vertex 16.267 7.75 12.575
      vertex 16.267 2.5 12.575
      vertex 16.52 2.5 12.305
    endloop
  endfacet
  facet normal 0.729706 -5.48818e-017 0.683761
    outer loop
      vertex 16.52 7.75 12.305
      vertex 16.267 7.75 12.575
      vertex 16.52 2.5 12.305
    endloop
  endfacet
  facet normal 0.876035 -1.41078e-016 0.482247
    outer loop
      vertex 16.52 7.75 12.305
      vertex 16.52 2.5 12.305
      vertex 16.689 2.5 11.998
    endloop
  endfacet
  facet normal 0.876035 -1.41078e-016 0.482247
    outer loop
      vertex 16.689 7.75 11.998
      vertex 16.52 7.75 12.305
      vertex 16.689 2.5 11.998
    endloop
  endfacet
  facet normal 0.806955 -9.74476e-017 0.590613
    outer loop
      vertex 16.689 7.75 11.998
      vertex 16.689 2.5 11.998
      vertex 16.962 2.5 11.625
    endloop
  endfacet
  facet normal 0.806955 -9.74476e-017 0.590613
    outer loop
      vertex 16.962 7.75 11.625
      vertex 16.689 7.75 11.998
      vertex 16.962 2.5 11.625
    endloop
  endfacet
  facet normal 0.499722 -3.33891e-016 -0.866186
    outer loop
      vertex 16.91 2.5 11.595
      vertex 16.91 7.75 11.595
      vertex 16.962 2.5 11.625
    endloop
  endfacet
  facet normal 0.499722 -3.33891e-016 -0.866186
    outer loop
      vertex 16.962 2.5 11.625
      vertex 16.91 7.75 11.595
      vertex 16.962 7.75 11.625
    endloop
  endfacet
  facet normal 0.876067 -1.411e-016 0.48219
    outer loop
      vertex 16.91 7.75 11.595
      vertex 16.91 2.5 11.595
      vertex 17.456 2.5 10.603
    endloop
  endfacet
  facet normal 0.876067 -1.411e-016 0.48219
    outer loop
      vertex 17.456 7.75 10.603
      vertex 16.91 7.75 11.595
      vertex 17.456 2.5 10.603
    endloop
  endfacet
  facet normal 0.96861 -2.19186e-016 0.248586
    outer loop
      vertex 17.456 7.75 10.603
      vertex 17.456 2.5 10.603
      vertex 17.939 2.5 8.721
    endloop
  endfacet
  facet normal 0.96861 -2.19186e-016 0.248586
    outer loop
      vertex 17.939 7.75 8.721
      vertex 17.456 7.75 10.603
      vertex 17.939 2.5 8.721
    endloop
  endfacet
  facet normal 1 -2.83275e-016 4.93038e-032
    outer loop
      vertex 17.939 7.75 8.721
      vertex 17.939 2.5 8.721
      vertex 17.939 2.5 6.779
    endloop
  endfacet
  facet normal 1 -2.83275e-016 4.93038e-032
    outer loop
      vertex 17.939 7.75 6.779
      vertex 17.939 7.75 8.721
      vertex 17.939 2.5 6.779
    endloop
  endfacet
  facet normal 0.96861 -3.2958e-016 -0.248586
    outer loop
      vertex 17.939 2.5 6.779
      vertex 17.456 2.5 4.897
      vertex 17.456 7.75 4.897
    endloop
  endfacet
  facet normal 0.96861 -3.2958e-016 -0.248586
    outer loop
      vertex 17.939 7.75 6.779
      vertex 17.939 2.5 6.779
      vertex 17.456 7.75 4.897
    endloop
  endfacet
  facet normal 0.876067 -3.55235e-016 -0.48219
    outer loop
      vertex 17.456 2.5 4.897
      vertex 16.91 2.5 3.905
      vertex 16.91 7.75 3.905
    endloop
  endfacet
  facet normal 0.876067 -3.55235e-016 -0.48219
    outer loop
      vertex 17.456 7.75 4.897
      vertex 17.456 2.5 4.897
      vertex 16.91 7.75 3.905
    endloop
  endfacet
  facet normal 0.499722 5.0773e-017 0.866186
    outer loop
      vertex 16.91 7.75 3.905
      vertex 16.91 2.5 3.905
      vertex 16.962 2.5 3.875
    endloop
  endfacet
  facet normal 0.499722 5.0773e-017 0.866186
    outer loop
      vertex 16.962 7.75 3.875
      vertex 16.91 7.75 3.905
      vertex 16.962 2.5 3.875
    endloop
  endfacet
  facet normal 0.806955 -3.59733e-016 -0.590613
    outer loop
      vertex 16.962 2.5 3.875
      vertex 16.689 2.5 3.502
      vertex 16.689 7.75 3.502
    endloop
  endfacet
  facet normal 0.806955 -3.59733e-016 -0.590613
    outer loop
      vertex 16.962 7.75 3.875
      vertex 16.962 2.5 3.875
      vertex 16.689 7.75 3.502
    endloop
  endfacet
  facet normal 0.876035 -3.55239e-016 -0.482247
    outer loop
      vertex 16.689 2.5 3.502
      vertex 16.52 2.5 3.195
      vertex 16.52 7.75 3.195
    endloop
  endfacet
  facet normal 0.876035 -3.55239e-016 -0.482247
    outer loop
      vertex 16.689 7.75 3.502
      vertex 16.689 2.5 3.502
      vertex 16.52 7.75 3.195
    endloop
  endfacet
  facet normal 0.729706 -3.58533e-016 -0.683761
    outer loop
      vertex 16.52 2.5 3.195
      vertex 16.267 2.5 2.925
      vertex 16.267 7.75 2.925
    endloop
  endfacet
  facet normal 0.729706 -3.58533e-016 -0.683761
    outer loop
      vertex 16.52 7.75 3.195
      vertex 16.52 2.5 3.195
      vertex 16.267 7.75 2.925
    endloop
  endfacet
  facet normal 0.806799 -3.59736e-016 -0.590825
    outer loop
      vertex 16.267 2.5 2.925
      vertex 14.125 2.5 -2.27596e-015
      vertex 14.125 7.75 -3.44169e-015
    endloop
  endfacet
  facet normal 0.806799 -3.59736e-016 -0.590825
    outer loop
      vertex 16.267 7.75 2.925
      vertex 16.267 2.5 2.925
      vertex 14.125 7.75 -3.44169e-015
    endloop
  endfacet
  facet normal -6.28997e-032 -2.22045e-016 -1
    outer loop
      vertex 6.375 2.5 -2.27596e-015
      vertex 6.375 7.75 -3.44169e-015
      vertex 14.125 2.5 -2.27596e-015
    endloop
  endfacet
  facet normal -6.28997e-032 -2.22045e-016 -1
    outer loop
      vertex 14.125 2.5 -2.27596e-015
      vertex 6.375 7.75 -3.44169e-015
      vertex 14.125 7.75 -3.44169e-015
    endloop
  endfacet
  facet normal 0.987688 -3.47355e-017 -0.156435
    outer loop
      vertex 4.8 7.75 7.75
      vertex 5.0178 7.75 9.12513
      vertex 5.0178 2.5 9.12513
    endloop
  endfacet
  facet normal 0.987688 -3.47355e-017 -0.156435
    outer loop
      vertex 4.8 2.5 7.75
      vertex 4.8 7.75 7.75
      vertex 5.0178 2.5 9.12513
    endloop
  endfacet
  facet normal 0.987688 3.47355e-017 0.156435
    outer loop
      vertex 5.0178 2.5 6.37487
      vertex 5.0178 7.75 6.37487
      vertex 4.8 7.75 7.75
    endloop
  endfacet
  facet normal 0.987688 3.47355e-017 0.156435
    outer loop
      vertex 4.8 2.5 7.75
      vertex 5.0178 2.5 6.37487
      vertex 4.8 7.75 7.75
    endloop
  endfacet
  facet normal 0.891007 1.00806e-016 0.45399
    outer loop
      vertex 5.64987 2.5 5.13436
      vertex 5.64987 7.75 5.13436
      vertex 5.12164 7.75 6.17108
    endloop
  endfacet
  facet normal 0.891007 1.00806e-016 0.45399
    outer loop
      vertex 5.0178 7.75 6.37487
      vertex 5.64987 2.5 5.13436
      vertex 5.12164 7.75 6.17108
    endloop
  endfacet
  facet normal 0.891007 1.00806e-016 0.45399
    outer loop
      vertex 5.0178 7.75 6.37487
      vertex 5.0178 2.5 6.37487
      vertex 5.64987 2.5 5.13436
    endloop
  endfacet
  facet normal 0.707107 1.57009e-016 0.707107
    outer loop
      vertex 6.63436 2.5 4.14987
      vertex 6.63436 7.75 4.14987
      vertex 5.64987 7.75 5.13436
    endloop
  endfacet
  facet normal 0.707107 1.57009e-016 0.707107
    outer loop
      vertex 5.64987 2.5 5.13436
      vertex 6.63436 2.5 4.14987
      vertex 5.64987 7.75 5.13436
    endloop
  endfacet
  facet normal 0.45399 1.97843e-016 0.891007
    outer loop
      vertex 7.87487 2.5 3.5178
      vertex 7.87487 7.75 3.5178
      vertex 6.63436 7.75 4.14987
    endloop
  endfacet
  facet normal 0.45399 1.97843e-016 0.891007
    outer loop
      vertex 6.63436 2.5 4.14987
      vertex 7.87487 2.5 3.5178
      vertex 6.63436 7.75 4.14987
    endloop
  endfacet
  facet normal 0.156435 2.19311e-016 0.987688
    outer loop
      vertex 9.25 2.5 3.3
      vertex 9.25 7.75 3.3
      vertex 7.87487 7.75 3.5178
    endloop
  endfacet
  facet normal 0.156435 2.19311e-016 0.987688
    outer loop
      vertex 7.87487 2.5 3.5178
      vertex 9.25 2.5 3.3
      vertex 7.87487 7.75 3.5178
    endloop
  endfacet
  facet normal -0.156435 2.19311e-016 0.987688
    outer loop
      vertex 10.6251 2.5 3.5178
      vertex 10.6251 7.75 3.5178
      vertex 9.75 7.75 3.37919
    endloop
  endfacet
  facet normal -0.156435 2.19311e-016 0.987688
    outer loop
      vertex 9.25 7.75 3.3
      vertex 10.6251 2.5 3.5178
      vertex 9.75 7.75 3.37919
    endloop
  endfacet
  facet normal -0.156435 2.19311e-016 0.987688
    outer loop
      vertex 9.25 7.75 3.3
      vertex 9.25 2.5 3.3
      vertex 10.6251 2.5 3.5178
    endloop
  endfacet
  facet normal -0.45399 1.97843e-016 0.891007
    outer loop
      vertex 11.8656 2.5 4.14987
      vertex 11.8656 7.75 4.14987
      vertex 10.6251 7.75 3.5178
    endloop
  endfacet
  facet normal -0.45399 1.97843e-016 0.891007
    outer loop
      vertex 10.6251 2.5 3.5178
      vertex 11.8656 2.5 4.14987
      vertex 10.6251 7.75 3.5178
    endloop
  endfacet
  facet normal -0.707107 1.57009e-016 0.707107
    outer loop
      vertex 12.8501 7.75 5.13436
      vertex 11.8656 7.75 4.14987
      vertex 12.8501 2.5 5.13436
    endloop
  endfacet
  facet normal -0.707107 1.57009e-016 0.707107
    outer loop
      vertex 12.8501 2.5 5.13436
      vertex 11.8656 7.75 4.14987
      vertex 11.8656 2.5 4.14987
    endloop
  endfacet
  facet normal -0.891007 1.00806e-016 0.45399
    outer loop
      vertex 13.4822 7.75 6.37487
      vertex 12.8501 7.75 5.13436
      vertex 13.4822 2.5 6.37487
    endloop
  endfacet
  facet normal -0.891007 1.00806e-016 0.45399
    outer loop
      vertex 13.4822 2.5 6.37487
      vertex 12.8501 7.75 5.13436
      vertex 12.8501 2.5 5.13436
    endloop
  endfacet
  facet normal -0.987688 3.47355e-017 0.156435
    outer loop
      vertex 13.7 7.75 7.75
      vertex 13.4822 7.75 6.37487
      vertex 13.7 2.5 7.75
    endloop
  endfacet
  facet normal -0.987688 3.47355e-017 0.156435
    outer loop
      vertex 13.7 2.5 7.75
      vertex 13.4822 7.75 6.37487
      vertex 13.4822 2.5 6.37487
    endloop
  endfacet
  facet normal -0.987688 -3.47355e-017 -0.156435
    outer loop
      vertex 13.7 7.75 7.75
      vertex 13.7 2.5 7.75
      vertex 13.4822 7.75 9.12513
    endloop
  endfacet
  facet normal -0.987688 -3.47355e-017 -0.156435
    outer loop
      vertex 13.4822 7.75 9.12513
      vertex 13.7 2.5 7.75
      vertex 13.4822 2.5 9.12513
    endloop
  endfacet
  facet normal -0.891007 -1.00806e-016 -0.45399
    outer loop
      vertex 13.4822 7.75 9.12513
      vertex 13.4822 2.5 9.12513
      vertex 12.8501 7.75 10.3656
    endloop
  endfacet
  facet normal -0.891007 -1.00806e-016 -0.45399
    outer loop
      vertex 12.8501 7.75 10.3656
      vertex 13.4822 2.5 9.12513
      vertex 12.8501 2.5 10.3656
    endloop
  endfacet
  facet normal -0.707107 -1.57009e-016 -0.707107
    outer loop
      vertex 12.8501 7.75 10.3656
      vertex 12.8501 2.5 10.3656
      vertex 11.8656 7.75 11.3501
    endloop
  endfacet
  facet normal -0.707107 -1.57009e-016 -0.707107
    outer loop
      vertex 11.8656 7.75 11.3501
      vertex 12.8501 2.5 10.3656
      vertex 11.8656 2.5 11.3501
    endloop
  endfacet
  facet normal -0.45399 -1.97843e-016 -0.891007
    outer loop
      vertex 11.8656 7.75 11.3501
      vertex 11.8656 2.5 11.3501
      vertex 10.6251 7.75 11.9822
    endloop
  endfacet
  facet normal -0.45399 -1.97843e-016 -0.891007
    outer loop
      vertex 10.6251 7.75 11.9822
      vertex 11.8656 2.5 11.3501
      vertex 10.6251 2.5 11.9822
    endloop
  endfacet
  facet normal -0.156435 -2.19311e-016 -0.987688
    outer loop
      vertex 10.6251 7.75 11.9822
      vertex 10.6251 2.5 11.9822
      vertex 9.25 7.75 12.2
    endloop
  endfacet
  facet normal -0.156435 -2.19311e-016 -0.987688
    outer loop
      vertex 9.25 7.75 12.2
      vertex 10.6251 2.5 11.9822
      vertex 9.25 2.5 12.2
    endloop
  endfacet
  facet normal 0.156435 -2.19311e-016 -0.987688
    outer loop
      vertex 9.25 7.75 12.2
      vertex 9.25 2.5 12.2
      vertex 7.87487 7.75 11.9822
    endloop
  endfacet
  facet normal 0.156435 -2.19311e-016 -0.987688
    outer loop
      vertex 7.87487 7.75 11.9822
      vertex 9.25 2.5 12.2
      vertex 7.87487 2.5 11.9822
    endloop
  endfacet
  facet normal 0.45399 -1.97843e-016 -0.891007
    outer loop
      vertex 7.87487 7.75 11.9822
      vertex 7.87487 2.5 11.9822
      vertex 6.63436 7.75 11.3501
    endloop
  endfacet
  facet normal 0.45399 -1.97843e-016 -0.891007
    outer loop
      vertex 6.63436 7.75 11.3501
      vertex 7.87487 2.5 11.9822
      vertex 6.63436 2.5 11.3501
    endloop
  endfacet
  facet normal 0.707107 -1.57009e-016 -0.707107
    outer loop
      vertex 5.64987 7.75 10.3656
      vertex 6.63436 7.75 11.3501
      vertex 6.63436 2.5 11.3501
    endloop
  endfacet
  facet normal 0.707107 -1.57009e-016 -0.707107
    outer loop
      vertex 5.64987 2.5 10.3656
      vertex 5.64987 7.75 10.3656
      vertex 6.63436 2.5 11.3501
    endloop
  endfacet
  facet normal 0.891007 -1.00806e-016 -0.45399
    outer loop
      vertex 5.0178 7.75 9.12513
      vertex 5.64987 7.75 10.3656
      vertex 5.64987 2.5 10.3656
    endloop
  endfacet
  facet normal 0.891007 -1.00806e-016 -0.45399
    outer loop
      vertex 5.0178 2.5 9.12513
      vertex 5.0178 7.75 9.12513
      vertex 5.64987 2.5 10.3656
    endloop
  endfacet
endsolid OpenSCAD_Model
