solid OpenSCAD_Model
  facet normal 0 0 -1
    outer loop
      vertex -7.55 0 0
      vertex -7.18048 2.33308 0
      vertex -7.18048 -2.33308 0
    endloop
  endfacet
  facet normal 0 0 -1
    outer loop
      vertex -7.18048 -2.33308 0
      vertex -7.18048 2.33308 0
      vertex -6.10808 4.43778 0
    endloop
  endfacet
  facet normal 0 0 -1
    outer loop
      vertex -7.18048 -2.33308 0
      vertex -6.10808 4.43778 0
      vertex -4.43778 6.10808 0
    endloop
  endfacet
  facet normal 0 0 -1
    outer loop
      vertex -7.18048 -2.33308 0
      vertex -4.43778 6.10808 0
      vertex -2.33308 7.18048 0
    endloop
  endfacet
  facet normal 0 0 -1
    outer loop
      vertex -7.18048 -2.33308 0
      vertex -2.33308 7.18048 0
      vertex 0 7.55 0
    endloop
  endfacet
  facet normal 0 0 -1
    outer loop
      vertex 6.675 7.55 0
      vertex 0 7.55 0
      vertex 9.95 7.55 0
    endloop
  endfacet
  facet normal 0 0 -1
    outer loop
      vertex 6.675 2.5 0
      vertex 3.25569 2.73185 0
      vertex 2.125 3.68061 0
    endloop
  endfacet
  facet normal 0 0 -1
    outer loop
      vertex 0.738005 4.18543 0
      vertex 0 7.55 0
      vertex 6.675 7.55 0
    endloop
  endfacet
  facet normal 0 0 -1
    outer loop
      vertex 6.675 2.5 0
      vertex 3.38955 2.5 0
      vertex 3.25569 2.73185 0
    endloop
  endfacet
  facet normal 0 0 -1
    outer loop
      vertex 0.738005 4.18543 0
      vertex 6.675 7.55 0
      vertex 2.125 3.68061 0
    endloop
  endfacet
  facet normal 0 0 -1
    outer loop
      vertex -0.738005 4.18543 0
      vertex 0 7.55 0
      vertex 0.738005 4.18543 0
    endloop
  endfacet
  facet normal 0 0 -1
    outer loop
      vertex -3.99369 1.45359 0
      vertex -7.18048 -2.33308 0
      vertex -3.25569 2.73185 0
    endloop
  endfacet
  facet normal 0 0 -1
    outer loop
      vertex -2.125 3.68061 0
      vertex 0 7.55 0
      vertex -0.738005 4.18543 0
    endloop
  endfacet
  facet normal 0 0 -1
    outer loop
      vertex -3.25569 2.73185 0
      vertex 0 7.55 0
      vertex -2.125 3.68061 0
    endloop
  endfacet
  facet normal 0 0 -1
    outer loop
      vertex -7.18048 -2.33308 0
      vertex 0 7.55 0
      vertex -3.25569 2.73185 0
    endloop
  endfacet
  facet normal 0 0 -1
    outer loop
      vertex -4.25 0 0
      vertex -7.18048 -2.33308 0
      vertex -3.99369 1.45359 0
    endloop
  endfacet
  facet normal 0 0 -1
    outer loop
      vertex -3.99369 -1.45359 0
      vertex -7.18048 -2.33308 0
      vertex -4.25 0 0
    endloop
  endfacet
  facet normal 0 0 -1
    outer loop
      vertex 6.675 -2.5 0
      vertex 3.25569 -2.73185 0
      vertex 3.38955 -2.5 0
    endloop
  endfacet
  facet normal 0 0 -1
    outer loop
      vertex -7.18048 -2.33308 0
      vertex -3.99369 -1.45359 0
      vertex -3.25569 -2.73185 0
    endloop
  endfacet
  facet normal 0 0 -1
    outer loop
      vertex -3.25569 -2.73185 0
      vertex -2.125 -3.68061 0
      vertex -7.18048 -2.33308 0
    endloop
  endfacet
  facet normal 0 0 -1
    outer loop
      vertex -2.125 -3.68061 0
      vertex -0.738005 -4.18543 0
      vertex -7.18048 -2.33308 0
    endloop
  endfacet
  facet normal 0 0 -1
    outer loop
      vertex -0.738005 -4.18543 0
      vertex 6.675 -7.55 0
      vertex -7.18048 -2.33308 0
    endloop
  endfacet
  facet normal 0 0 -1
    outer loop
      vertex 0.738005 -4.18543 0
      vertex 6.675 -7.55 0
      vertex -0.738005 -4.18543 0
    endloop
  endfacet
  facet normal 0 0 -1
    outer loop
      vertex 2.125 -3.68061 0
      vertex 6.675 -2.5 0
      vertex 0.738005 -4.18543 0
    endloop
  endfacet
  facet normal 0 0 -1
    outer loop
      vertex 3.25569 -2.73185 0
      vertex 6.675 -2.5 0
      vertex 2.125 -3.68061 0
    endloop
  endfacet
  facet normal 0 0 -1
    outer loop
      vertex 6.675 -2.5 0
      vertex 6.675 -7.55 0
      vertex 0.738005 -4.18543 0
    endloop
  endfacet
  facet normal 0 0 -1
    outer loop
      vertex -7.18048 -2.33308 0
      vertex 6.675 -7.55 0
      vertex 0 -7.55 0
    endloop
  endfacet
  facet normal 0 0 -1
    outer loop
      vertex -7.18048 -2.33308 0
      vertex 0 -7.55 0
      vertex -2.33308 -7.18048 0
    endloop
  endfacet
  facet normal 0 0 -1
    outer loop
      vertex -7.18048 -2.33308 0
      vertex -2.33308 -7.18048 0
      vertex -4.43778 -6.10808 0
    endloop
  endfacet
  facet normal 0 0 -1
    outer loop
      vertex -7.18048 -2.33308 0
      vertex -4.43778 -6.10808 0
      vertex -6.10808 -4.43778 0
    endloop
  endfacet
  facet normal 0 0 -1
    outer loop
      vertex 6.675 2.5 0
      vertex 2.125 3.68061 0
      vertex 6.675 7.55 0
    endloop
  endfacet
  facet normal -0.987688 0.156434 0
    outer loop
      vertex -7.55 0 0
      vertex -7.55 0 15.1
      vertex -7.18048 2.33308 0
    endloop
  endfacet
  facet normal -0.987688 0.156434 0
    outer loop
      vertex -7.18048 2.33308 0
      vertex -7.55 0 15.1
      vertex -7.18048 2.33308 15.1
    endloop
  endfacet
  facet normal -0.987688 -0.156434 0
    outer loop
      vertex -7.55 0 0
      vertex -7.18048 -2.33308 0
      vertex -7.55 0 15.1
    endloop
  endfacet
  facet normal -0.987688 -0.156434 0
    outer loop
      vertex -7.55 0 15.1
      vertex -7.18048 -2.33308 0
      vertex -7.18048 -2.33308 15.1
    endloop
  endfacet
  facet normal -0.891006 -0.453991 0
    outer loop
      vertex -7.18048 -2.33308 0
      vertex -6.10808 -4.43778 0
      vertex -7.18048 -2.33308 15.1
    endloop
  endfacet
  facet normal -0.891006 -0.453991 0
    outer loop
      vertex -7.18048 -2.33308 15.1
      vertex -6.10808 -4.43778 0
      vertex -6.10808 -4.43778 15.1
    endloop
  endfacet
  facet normal -0.707107 -0.707107 0
    outer loop
      vertex -6.10808 -4.43778 15.1
      vertex -6.10808 -4.43778 0
      vertex -4.43778 -6.10808 0
    endloop
  endfacet
  facet normal -0.707107 -0.707107 0
    outer loop
      vertex -4.43778 -6.10808 15.1
      vertex -6.10808 -4.43778 15.1
      vertex -4.43778 -6.10808 0
    endloop
  endfacet
  facet normal -0.453991 -0.891006 0
    outer loop
      vertex -4.43778 -6.10808 15.1
      vertex -4.43778 -6.10808 0
      vertex -2.33308 -7.18048 0
    endloop
  endfacet
  facet normal -0.453991 -0.891006 0
    outer loop
      vertex -2.33308 -7.18048 15.1
      vertex -4.43778 -6.10808 15.1
      vertex -2.33308 -7.18048 0
    endloop
  endfacet
  facet normal -0.156434 -0.987688 0
    outer loop
      vertex -2.33308 -7.18048 15.1
      vertex -2.33308 -7.18048 0
      vertex 0 -7.55 0
    endloop
  endfacet
  facet normal -0.156434 -0.987688 0
    outer loop
      vertex 0 -7.55 15.1
      vertex -2.33308 -7.18048 15.1
      vertex 0 -7.55 0
    endloop
  endfacet
  facet normal 0 -1 0
    outer loop
      vertex 4.86 -7.55 2.48
      vertex 0 -7.55 0
      vertex 6.675 -7.55 0
    endloop
  endfacet
  facet normal 0 -1 0
    outer loop
      vertex 4.774 -7.55 2.572
      vertex 0 -7.55 0
      vertex 4.86 -7.55 2.48
    endloop
  endfacet
  facet normal 0 -1 0
    outer loop
      vertex 4.46 -7.55 2.954
      vertex 0 -7.55 0
      vertex 4.774 -7.55 2.572
    endloop
  endfacet
  facet normal 0 -1 0
    outer loop
      vertex 4.172 -7.55 3.355
      vertex 0 -7.55 0
      vertex 4.46 -7.55 2.954
    endloop
  endfacet
  facet normal 0 -1 0
    outer loop
      vertex 3.912 -7.55 3.775
      vertex 0 -7.55 0
      vertex 4.172 -7.55 3.355
    endloop
  endfacet
  facet normal 0 -1 0
    outer loop
      vertex 3.78562 -7.55 4.01149
      vertex 0 -7.55 0
      vertex 3.912 -7.55 3.775
    endloop
  endfacet
  facet normal 0 -1 0
    outer loop
      vertex 0 -7.55 15.1
      vertex 0 -7.55 0
      vertex 3.78562 -7.55 4.01149
    endloop
  endfacet
  facet normal 0 -1 0
    outer loop
      vertex 5.40801 -7.55 6.23668
      vertex 0 -7.55 15.1
      vertex 5.456 -7.55 6.14249
    endloop
  endfacet
  facet normal 0 -1 0
    outer loop
      vertex 5.2 -7.55 7.55
      vertex 0 -7.55 15.1
      vertex 5.40801 -7.55 6.23668
    endloop
  endfacet
  facet normal 0 -1 0
    outer loop
      vertex 5.40801 -7.55 8.86332
      vertex 0 -7.55 15.1
      vertex 5.2 -7.55 7.55
    endloop
  endfacet
  facet normal 0 -1 0
    outer loop
      vertex 6.01168 -7.55 10.0481
      vertex 0 -7.55 15.1
      vertex 5.40801 -7.55 8.86332
    endloop
  endfacet
  facet normal 0 -1 0
    outer loop
      vertex 6.95191 -7.55 10.9883
      vertex 0 -7.55 15.1
      vertex 6.01168 -7.55 10.0481
    endloop
  endfacet
  facet normal 0 -1 0
    outer loop
      vertex 8.13668 -7.55 11.592
      vertex 0 -7.55 15.1
      vertex 6.95191 -7.55 10.9883
    endloop
  endfacet
  facet normal 0 -1 0
    outer loop
      vertex 9.45 -7.55 11.8
      vertex 0 -7.55 15.1
      vertex 8.13668 -7.55 11.592
    endloop
  endfacet
  facet normal 0 -1 0
    outer loop
      vertex 9.84197 -7.55 11.7379
      vertex 0 -7.55 15.1
      vertex 9.45 -7.55 11.8
    endloop
  endfacet
  facet normal 0 -1 0
    outer loop
      vertex 9.95 -7.55 11.8757
      vertex 0 -7.55 15.1
      vertex 9.84197 -7.55 11.7379
    endloop
  endfacet
  facet normal 0 -1 0
    outer loop
      vertex 9.95 -7.55 15.1
      vertex 0 -7.55 15.1
      vertex 9.95 -7.55 11.8757
    endloop
  endfacet
  facet normal 0 -1 0
    outer loop
      vertex 3.78562 -7.55 4.01149
      vertex 5.456 -7.55 6.14249
      vertex 0 -7.55 15.1
    endloop
  endfacet
  facet normal -0.806974 9.74586e-017 -0.590588
    outer loop
      vertex 6.675 -7.55 0
      vertex 6.675 -2.5 0
      vertex 6.675 -2.5 -1.12133e-015
    endloop
  endfacet
  facet normal 0 1 0
    outer loop
      vertex 16.04 -2.5 12.62
      vertex 9.95 -2.5 15.1
      vertex 14.225 -2.5 15.1
    endloop
  endfacet
  facet normal 0 1 0
    outer loop
      vertex 3.38955 -2.5 15.1
      vertex 9.95 -2.5 15.1
      vertex 16.04 -2.5 12.62
    endloop
  endfacet
  facet normal 0 1 0
    outer loop
      vertex 3.38955 -2.5 15.1
      vertex 16.04 -2.5 12.62
      vertex 16.126 -2.5 12.528
    endloop
  endfacet
  facet normal 0 1 0
    outer loop
      vertex 16.126 -2.5 12.528
      vertex 16.44 -2.5 12.146
      vertex 3.38955 -2.5 15.1
    endloop
  endfacet
  facet normal 0 1 0
    outer loop
      vertex 3.38955 -2.5 15.1
      vertex 16.44 -2.5 12.146
      vertex 16.728 -2.5 11.745
    endloop
  endfacet
  facet normal 0 1 0
    outer loop
      vertex 3.38955 -2.5 15.1
      vertex 16.728 -2.5 11.745
      vertex 16.988 -2.5 11.325
    endloop
  endfacet
  facet normal 0 1 0
    outer loop
      vertex 3.38955 -2.5 15.1
      vertex 16.988 -2.5 11.325
      vertex 17.221 -2.5 10.889
    endloop
  endfacet
  facet normal 0 1 0
    outer loop
      vertex 3.38955 -2.5 15.1
      vertex 17.221 -2.5 10.889
      vertex 17.425 -2.5 10.439
    endloop
  endfacet
  facet normal 0 1 0
    outer loop
      vertex 3.38955 -2.5 15.1
      vertex 17.425 -2.5 10.439
      vertex 17.599 -2.5 9.977
    endloop
  endfacet
  facet normal 0 1 0
    outer loop
      vertex 3.38955 -2.5 15.1
      vertex 17.599 -2.5 9.977
      vertex 17.743 -2.5 9.504
    endloop
  endfacet
  facet normal 0 1 0
    outer loop
      vertex 3.38955 -2.5 15.1
      vertex 17.743 -2.5 9.504
      vertex 17.855 -2.5 9.023
    endloop
  endfacet
  facet normal 0 1 0
    outer loop
      vertex 3.38955 -2.5 15.1
      vertex 17.855 -2.5 9.023
      vertex 17.935 -2.5 8.535
    endloop
  endfacet
  facet normal 0 1 0
    outer loop
      vertex 11.9481 -2.5 10.9883
      vertex 17.935 -2.5 8.535
      vertex 17.984 -2.5 8.044
    endloop
  endfacet
  facet normal 0 1 0
    outer loop
      vertex 12.8883 -2.5 10.0481
      vertex 18 -2.5 7.55
      vertex 17.984 -2.5 7.056
    endloop
  endfacet
  facet normal 0 1 0
    outer loop
      vertex 13.492 -2.5 8.86332
      vertex 17.935 -2.5 6.565
      vertex 17.855 -2.5 6.077
    endloop
  endfacet
  facet normal 0 1 0
    outer loop
      vertex 12.8883 -2.5 10.0481
      vertex 17.935 -2.5 6.565
      vertex 13.492 -2.5 8.86332
    endloop
  endfacet
  facet normal 0 1 0
    outer loop
      vertex 13.7 -2.5 7.55
      vertex 17.599 -2.5 5.123
      vertex 17.425 -2.5 4.661
    endloop
  endfacet
  facet normal 0 1 0
    outer loop
      vertex 13.492 -2.5 8.86332
      vertex 17.599 -2.5 5.123
      vertex 13.7 -2.5 7.55
    endloop
  endfacet
  facet normal 0 1 0
    outer loop
      vertex 13.492 -2.5 6.23668
      vertex 16.988 -2.5 3.775
      vertex 16.728 -2.5 3.355
    endloop
  endfacet
  facet normal 0 1 0
    outer loop
      vertex 13.7 -2.5 7.55
      vertex 17.221 -2.5 4.211
      vertex 16.988 -2.5 3.775
    endloop
  endfacet
  facet normal 0 1 0
    outer loop
      vertex 13.7 -2.5 7.55
      vertex 16.988 -2.5 3.775
      vertex 13.492 -2.5 6.23668
    endloop
  endfacet
  facet normal 0 1 0
    outer loop
      vertex 11.9481 -2.5 4.11168
      vertex 16.04 -2.5 2.48
      vertex 14.225 -2.5 -1.12133e-015
    endloop
  endfacet
  facet normal 0 1 0
    outer loop
      vertex 6.95191 -2.5 4.11168
      vertex 14.225 -2.5 -1.12133e-015
      vertex 6.675 -2.5 -1.12133e-015
    endloop
  endfacet
  facet normal 0 1 0
    outer loop
      vertex 3.38955 -2.5 15.1
      vertex 6.675 -2.5 -1.12133e-015
      vertex 6.675 -2.5 0
    endloop
  endfacet
  facet normal 0 1 0
    outer loop
      vertex 3.38955 -2.5 15.1
      vertex 6.675 -2.5 0
      vertex 3.38955 -2.5 0
    endloop
  endfacet
  facet normal 0 1 0
    outer loop
      vertex 11.9481 -2.5 4.11168
      vertex 14.225 -2.5 -1.12133e-015
      vertex 10.7633 -2.5 3.50801
    endloop
  endfacet
  facet normal 0 1 0
    outer loop
      vertex 3.38955 -2.5 15.1
      vertex 5.40801 -2.5 6.23668
      vertex 6.675 -2.5 -1.12133e-015
    endloop
  endfacet
  facet normal 0 1 0
    outer loop
      vertex 10.7633 -2.5 3.50801
      vertex 14.225 -2.5 -1.12133e-015
      vertex 9.45 -2.5 3.3
    endloop
  endfacet
  facet normal 0 1 0
    outer loop
      vertex 5.40801 -2.5 6.23668
      vertex 6.01168 -2.5 5.05191
      vertex 6.675 -2.5 -1.12133e-015
    endloop
  endfacet
  facet normal 0 1 0
    outer loop
      vertex 8.13668 -2.5 3.50801
      vertex 14.225 -2.5 -1.12133e-015
      vertex 6.95191 -2.5 4.11168
    endloop
  endfacet
  facet normal 0 1 0
    outer loop
      vertex 6.01168 -2.5 5.05191
      vertex 6.95191 -2.5 4.11168
      vertex 6.675 -2.5 -1.12133e-015
    endloop
  endfacet
  facet normal 0 1 0
    outer loop
      vertex 13.492 -2.5 6.23668
      vertex 16.44 -2.5 2.954
      vertex 16.126 -2.5 2.572
    endloop
  endfacet
  facet normal 0 1 0
    outer loop
      vertex 12.8883 -2.5 5.05191
      vertex 16.04 -2.5 2.48
      vertex 11.9481 -2.5 4.11168
    endloop
  endfacet
  facet normal 0 1 0
    outer loop
      vertex 13.492 -2.5 6.23668
      vertex 16.728 -2.5 3.355
      vertex 16.44 -2.5 2.954
    endloop
  endfacet
  facet normal 0 1 0
    outer loop
      vertex 13.7 -2.5 7.55
      vertex 17.425 -2.5 4.661
      vertex 17.221 -2.5 4.211
    endloop
  endfacet
  facet normal 0 1 0
    outer loop
      vertex 13.492 -2.5 8.86332
      vertex 17.855 -2.5 6.077
      vertex 17.743 -2.5 5.596
    endloop
  endfacet
  facet normal 0 1 0
    outer loop
      vertex 12.8883 -2.5 10.0481
      vertex 17.984 -2.5 7.056
      vertex 17.935 -2.5 6.565
    endloop
  endfacet
  facet normal 0 1 0
    outer loop
      vertex 11.9481 -2.5 10.9883
      vertex 17.984 -2.5 8.044
      vertex 18 -2.5 7.55
    endloop
  endfacet
  facet normal 0 1 0
    outer loop
      vertex 10.7633 -2.5 11.592
      vertex 17.935 -2.5 8.535
      vertex 11.9481 -2.5 10.9883
    endloop
  endfacet
  facet normal 0 1 0
    outer loop
      vertex 9.45 -2.5 11.8
      vertex 3.38955 -2.5 15.1
      vertex 10.7633 -2.5 11.592
    endloop
  endfacet
  facet normal 0 1 0
    outer loop
      vertex 3.38955 -2.5 15.1
      vertex 17.935 -2.5 8.535
      vertex 10.7633 -2.5 11.592
    endloop
  endfacet
  facet normal 0 1 0
    outer loop
      vertex 8.13668 -2.5 11.592
      vertex 3.38955 -2.5 15.1
      vertex 9.45 -2.5 11.8
    endloop
  endfacet
  facet normal 0 1 0
    outer loop
      vertex 11.9481 -2.5 10.9883
      vertex 18 -2.5 7.55
      vertex 12.8883 -2.5 10.0481
    endloop
  endfacet
  facet normal 0 1 0
    outer loop
      vertex 6.95191 -2.5 10.9883
      vertex 3.38955 -2.5 15.1
      vertex 8.13668 -2.5 11.592
    endloop
  endfacet
  facet normal 0 1 0
    outer loop
      vertex 13.492 -2.5 8.86332
      vertex 17.743 -2.5 5.596
      vertex 17.599 -2.5 5.123
    endloop
  endfacet
  facet normal 0 1 0
    outer loop
      vertex 6.01168 -2.5 10.0481
      vertex 3.38955 -2.5 15.1
      vertex 6.95191 -2.5 10.9883
    endloop
  endfacet
  facet normal 0 1 0
    outer loop
      vertex 3.38955 -2.5 15.1
      vertex 6.01168 -2.5 10.0481
      vertex 5.40801 -2.5 8.86332
    endloop
  endfacet
  facet normal 0 1 0
    outer loop
      vertex 3.38955 -2.5 15.1
      vertex 5.40801 -2.5 8.86332
      vertex 5.2 -2.5 7.55
    endloop
  endfacet
  facet normal 0 1 0
    outer loop
      vertex 3.38955 -2.5 15.1
      vertex 5.2 -2.5 7.55
      vertex 5.40801 -2.5 6.23668
    endloop
  endfacet
  facet normal 0 1 0
    outer loop
      vertex 9.45 -2.5 3.3
      vertex 14.225 -2.5 -1.12133e-015
      vertex 8.13668 -2.5 3.50801
    endloop
  endfacet
  facet normal 0 1 0
    outer loop
      vertex 13.492 -2.5 6.23668
      vertex 16.126 -2.5 2.572
      vertex 16.04 -2.5 2.48
    endloop
  endfacet
  facet normal 0 1 0
    outer loop
      vertex 13.492 -2.5 6.23668
      vertex 16.04 -2.5 2.48
      vertex 12.8883 -2.5 5.05191
    endloop
  endfacet
  facet normal -0.866025 0.5 0
    outer loop
      vertex 3.38955 -2.5 15.1
      vertex 3.38955 -2.5 0
      vertex 3.25569 -2.73185 15.1
    endloop
  endfacet
  facet normal -0.866025 0.5 0
    outer loop
      vertex 3.25569 -2.73185 15.1
      vertex 3.38955 -2.5 0
      vertex 3.25569 -2.73185 0
    endloop
  endfacet
  facet normal -0.642788 0.766044 0
    outer loop
      vertex 3.25569 -2.73185 15.1
      vertex 3.25569 -2.73185 0
      vertex 2.125 -3.68061 15.1
    endloop
  endfacet
  facet normal -0.642788 0.766044 0
    outer loop
      vertex 2.125 -3.68061 15.1
      vertex 3.25569 -2.73185 0
      vertex 2.125 -3.68061 0
    endloop
  endfacet
  facet normal -0.34202 0.939693 0
    outer loop
      vertex 2.125 -3.68061 15.1
      vertex 2.125 -3.68061 0
      vertex 0.738005 -4.18543 15.1
    endloop
  endfacet
  facet normal -0.34202 0.939693 0
    outer loop
      vertex 0.738005 -4.18543 15.1
      vertex 2.125 -3.68061 0
      vertex 0.738005 -4.18543 0
    endloop
  endfacet
  facet normal 0 1 0
    outer loop
      vertex 0.738005 -4.18543 15.1
      vertex 0.738005 -4.18543 0
      vertex -0.738005 -4.18543 15.1
    endloop
  endfacet
  facet normal 0 1 0
    outer loop
      vertex -0.738005 -4.18543 15.1
      vertex 0.738005 -4.18543 0
      vertex -0.738005 -4.18543 0
    endloop
  endfacet
  facet normal 0.34202 0.939693 0
    outer loop
      vertex -0.738005 -4.18543 15.1
      vertex -0.738005 -4.18543 0
      vertex -2.125 -3.68061 15.1
    endloop
  endfacet
  facet normal 0.34202 0.939693 0
    outer loop
      vertex -2.125 -3.68061 15.1
      vertex -0.738005 -4.18543 0
      vertex -2.125 -3.68061 0
    endloop
  endfacet
  facet normal 0.642788 0.766044 0
    outer loop
      vertex -2.125 -3.68061 15.1
      vertex -2.125 -3.68061 0
      vertex -3.25569 -2.73185 15.1
    endloop
  endfacet
  facet normal 0.642788 0.766044 0
    outer loop
      vertex -3.25569 -2.73185 15.1
      vertex -2.125 -3.68061 0
      vertex -3.25569 -2.73185 0
    endloop
  endfacet
  facet normal 0.866025 0.5 0
    outer loop
      vertex -3.99369 -1.45359 15.1
      vertex -3.25569 -2.73185 15.1
      vertex -3.25569 -2.73185 0
    endloop
  endfacet
  facet normal 0.866025 0.5 0
    outer loop
      vertex -3.99369 -1.45359 0
      vertex -3.99369 -1.45359 15.1
      vertex -3.25569 -2.73185 0
    endloop
  endfacet
  facet normal 0.984808 0.173648 0
    outer loop
      vertex -4.25 0 15.1
      vertex -3.99369 -1.45359 15.1
      vertex -3.99369 -1.45359 0
    endloop
  endfacet
  facet normal 0.984808 0.173648 0
    outer loop
      vertex -4.25 0 0
      vertex -4.25 0 15.1
      vertex -3.99369 -1.45359 0
    endloop
  endfacet
  facet normal 0.984808 -0.173648 0
    outer loop
      vertex -3.99369 1.45359 0
      vertex -3.99369 1.45359 15.1
      vertex -4.25 0 15.1
    endloop
  endfacet
  facet normal 0.984808 -0.173648 0
    outer loop
      vertex -4.25 0 0
      vertex -3.99369 1.45359 0
      vertex -4.25 0 15.1
    endloop
  endfacet
  facet normal 0.866025 -0.5 0
    outer loop
      vertex -3.25569 2.73185 0
      vertex -3.25569 2.73185 15.1
      vertex -3.99369 1.45359 15.1
    endloop
  endfacet
  facet normal 0.866025 -0.5 0
    outer loop
      vertex -3.99369 1.45359 0
      vertex -3.25569 2.73185 0
      vertex -3.99369 1.45359 15.1
    endloop
  endfacet
  facet normal 0.642788 -0.766044 0
    outer loop
      vertex -2.125 3.68061 0
      vertex -2.125 3.68061 15.1
      vertex -3.25569 2.73185 15.1
    endloop
  endfacet
  facet normal 0.642788 -0.766044 0
    outer loop
      vertex -3.25569 2.73185 0
      vertex -2.125 3.68061 0
      vertex -3.25569 2.73185 15.1
    endloop
  endfacet
  facet normal 0.34202 -0.939693 0
    outer loop
      vertex -0.738005 4.18543 0
      vertex -0.738005 4.18543 15.1
      vertex -2.125 3.68061 15.1
    endloop
  endfacet
  facet normal 0.34202 -0.939693 0
    outer loop
      vertex -2.125 3.68061 0
      vertex -0.738005 4.18543 0
      vertex -2.125 3.68061 15.1
    endloop
  endfacet
  facet normal 0 -1 0
    outer loop
      vertex 0.738005 4.18543 0
      vertex 0.738005 4.18543 15.1
      vertex -0.738005 4.18543 15.1
    endloop
  endfacet
  facet normal 0 -1 0
    outer loop
      vertex -0.738005 4.18543 0
      vertex 0.738005 4.18543 0
      vertex -0.738005 4.18543 15.1
    endloop
  endfacet
  facet normal -0.34202 -0.939693 0
    outer loop
      vertex 2.125 3.68061 0
      vertex 2.125 3.68061 15.1
      vertex 0.738005 4.18543 15.1
    endloop
  endfacet
  facet normal -0.34202 -0.939693 0
    outer loop
      vertex 0.738005 4.18543 0
      vertex 2.125 3.68061 0
      vertex 0.738005 4.18543 15.1
    endloop
  endfacet
  facet normal -0.642788 -0.766044 0
    outer loop
      vertex 3.25569 2.73185 0
      vertex 3.25569 2.73185 15.1
      vertex 2.125 3.68061 15.1
    endloop
  endfacet
  facet normal -0.642788 -0.766044 0
    outer loop
      vertex 2.125 3.68061 0
      vertex 3.25569 2.73185 0
      vertex 2.125 3.68061 15.1
    endloop
  endfacet
  facet normal -0.866025 -0.5 0
    outer loop
      vertex 3.38955 2.5 15.1
      vertex 3.25569 2.73185 15.1
      vertex 3.38955 2.5 0
    endloop
  endfacet
  facet normal -0.866025 -0.5 0
    outer loop
      vertex 3.38955 2.5 0
      vertex 3.25569 2.73185 15.1
      vertex 3.25569 2.73185 0
    endloop
  endfacet
  facet normal 0 -1 0
    outer loop
      vertex 6.675 2.5 0
      vertex 6.675 2.5 -2.23155e-015
      vertex 14.225 2.5 -2.23155e-015
    endloop
  endfacet
  facet normal 0 -1 0
    outer loop
      vertex 16.126 2.5 2.572
      vertex 6.675 2.5 0
      vertex 16.04 2.5 2.48
    endloop
  endfacet
  facet normal 0 -1 0
    outer loop
      vertex 16.04 2.5 2.48
      vertex 6.675 2.5 0
      vertex 14.225 2.5 -2.23155e-015
    endloop
  endfacet
  facet normal 0 -1 0
    outer loop
      vertex 16.44 2.5 2.954
      vertex 6.675 2.5 0
      vertex 16.126 2.5 2.572
    endloop
  endfacet
  facet normal 0 -1 0
    outer loop
      vertex 16.728 2.5 3.355
      vertex 6.675 2.5 0
      vertex 16.44 2.5 2.954
    endloop
  endfacet
  facet normal 0 -1 0
    outer loop
      vertex 16.988 2.5 3.775
      vertex 6.675 2.5 0
      vertex 16.728 2.5 3.355
    endloop
  endfacet
  facet normal 0 -1 0
    outer loop
      vertex 17.221 2.5 4.211
      vertex 6.675 2.5 0
      vertex 16.988 2.5 3.775
    endloop
  endfacet
  facet normal 0 -1 0
    outer loop
      vertex 17.425 2.5 4.661
      vertex 6.675 2.5 0
      vertex 17.221 2.5 4.211
    endloop
  endfacet
  facet normal 0 -1 0
    outer loop
      vertex 17.599 2.5 5.123
      vertex 6.675 2.5 0
      vertex 17.425 2.5 4.661
    endloop
  endfacet
  facet normal 0 -1 0
    outer loop
      vertex 17.743 2.5 5.596
      vertex 6.675 2.5 0
      vertex 17.599 2.5 5.123
    endloop
  endfacet
  facet normal 0 -1 0
    outer loop
      vertex 17.855 2.5 6.077
      vertex 6.675 2.5 0
      vertex 17.743 2.5 5.596
    endloop
  endfacet
  facet normal 0 -1 0
    outer loop
      vertex 17.935 2.5 6.565
      vertex 6.675 2.5 0
      vertex 17.855 2.5 6.077
    endloop
  endfacet
  facet normal 0 -1 0
    outer loop
      vertex 17.984 2.5 7.056
      vertex 6.675 2.5 0
      vertex 17.935 2.5 6.565
    endloop
  endfacet
  facet normal 0 -1 0
    outer loop
      vertex 18 2.5 7.55
      vertex 6.675 2.5 0
      vertex 17.984 2.5 7.056
    endloop
  endfacet
  facet normal 0 -1 0
    outer loop
      vertex 17.984 2.5 8.044
      vertex 6.675 2.5 0
      vertex 18 2.5 7.55
    endloop
  endfacet
  facet normal 0 -1 0
    outer loop
      vertex 17.935 2.5 8.535
      vertex 6.675 2.5 0
      vertex 17.984 2.5 8.044
    endloop
  endfacet
  facet normal 0 -1 0
    outer loop
      vertex 11.9481 2.5 4.11168
      vertex 6.675 2.5 0
      vertex 17.935 2.5 8.535
    endloop
  endfacet
  facet normal 0 -1 0
    outer loop
      vertex 11.9481 2.5 4.11168
      vertex 10.7633 2.5 3.50801
      vertex 6.675 2.5 0
    endloop
  endfacet
  facet normal 0 -1 0
    outer loop
      vertex 10.7633 2.5 3.50801
      vertex 9.45 2.5 3.3
      vertex 6.675 2.5 0
    endloop
  endfacet
  facet normal 0 -1 0
    outer loop
      vertex 9.45 2.5 3.3
      vertex 8.13668 2.5 3.50801
      vertex 6.675 2.5 0
    endloop
  endfacet
  facet normal 0 -1 0
    outer loop
      vertex 13.492 2.5 6.23668
      vertex 17.743 2.5 9.504
      vertex 17.599 2.5 9.977
    endloop
  endfacet
  facet normal 0 -1 0
    outer loop
      vertex 13.7 2.5 7.55
      vertex 17.425 2.5 10.439
      vertex 17.221 2.5 10.889
    endloop
  endfacet
  facet normal 0 -1 0
    outer loop
      vertex 13.7 2.5 7.55
      vertex 13.492 2.5 6.23668
      vertex 17.425 2.5 10.439
    endloop
  endfacet
  facet normal 0 -1 0
    outer loop
      vertex 8.13668 2.5 3.50801
      vertex 6.95191 2.5 4.11168
      vertex 6.675 2.5 0
    endloop
  endfacet
  facet normal 0 -1 0
    outer loop
      vertex 12.8883 2.5 10.0481
      vertex 16.126 2.5 12.528
      vertex 16.04 2.5 12.62
    endloop
  endfacet
  facet normal 0 -1 0
    outer loop
      vertex 11.9481 2.5 10.9883
      vertex 12.8883 2.5 10.0481
      vertex 14.225 2.5 15.1
    endloop
  endfacet
  facet normal 0 -1 0
    outer loop
      vertex 12.8883 2.5 10.0481
      vertex 13.492 2.5 8.86332
      vertex 16.126 2.5 12.528
    endloop
  endfacet
  facet normal 0 -1 0
    outer loop
      vertex 3.38955 2.5 0
      vertex 6.675 2.5 0
      vertex 3.38955 2.5 15.1
    endloop
  endfacet
  facet normal 0 -1 0
    outer loop
      vertex 8.13668 2.5 11.592
      vertex 9.45 2.5 11.8
      vertex 9.95 2.5 15.1
    endloop
  endfacet
  facet normal 0 -1 0
    outer loop
      vertex 3.38955 2.5 15.1
      vertex 5.2 2.5 7.55
      vertex 5.40801 2.5 8.86332
    endloop
  endfacet
  facet normal 0 -1 0
    outer loop
      vertex 3.38955 2.5 15.1
      vertex 6.01168 2.5 10.0481
      vertex 9.95 2.5 15.1
    endloop
  endfacet
  facet normal 0 -1 0
    outer loop
      vertex 3.38955 2.5 15.1
      vertex 5.40801 2.5 8.86332
      vertex 6.01168 2.5 10.0481
    endloop
  endfacet
  facet normal 0 -1 0
    outer loop
      vertex 6.01168 2.5 10.0481
      vertex 6.95191 2.5 10.9883
      vertex 9.95 2.5 15.1
    endloop
  endfacet
  facet normal 0 -1 0
    outer loop
      vertex 6.01168 2.5 5.05191
      vertex 5.40801 2.5 6.23668
      vertex 6.675 2.5 0
    endloop
  endfacet
  facet normal 0 -1 0
    outer loop
      vertex 9.95 2.5 15.1
      vertex 9.45 2.5 11.8
      vertex 14.225 2.5 15.1
    endloop
  endfacet
  facet normal 0 -1 0
    outer loop
      vertex 9.45 2.5 11.8
      vertex 10.7633 2.5 11.592
      vertex 14.225 2.5 15.1
    endloop
  endfacet
  facet normal 0 -1 0
    outer loop
      vertex 10.7633 2.5 11.592
      vertex 11.9481 2.5 10.9883
      vertex 14.225 2.5 15.1
    endloop
  endfacet
  facet normal 0 -1 0
    outer loop
      vertex 14.225 2.5 15.1
      vertex 12.8883 2.5 10.0481
      vertex 16.04 2.5 12.62
    endloop
  endfacet
  facet normal 0 -1 0
    outer loop
      vertex 16.126 2.5 12.528
      vertex 13.492 2.5 8.86332
      vertex 16.44 2.5 12.146
    endloop
  endfacet
  facet normal 0 -1 0
    outer loop
      vertex 16.988 2.5 11.325
      vertex 13.7 2.5 7.55
      vertex 17.221 2.5 10.889
    endloop
  endfacet
  facet normal 0 -1 0
    outer loop
      vertex 17.425 2.5 10.439
      vertex 13.492 2.5 6.23668
      vertex 17.599 2.5 9.977
    endloop
  endfacet
  facet normal 0 -1 0
    outer loop
      vertex 17.743 2.5 9.504
      vertex 12.8883 2.5 5.05191
      vertex 17.855 2.5 9.023
    endloop
  endfacet
  facet normal 0 -1 0
    outer loop
      vertex 17.855 2.5 9.023
      vertex 11.9481 2.5 4.11168
      vertex 17.935 2.5 8.535
    endloop
  endfacet
  facet normal 0 -1 0
    outer loop
      vertex 12.8883 2.5 5.05191
      vertex 11.9481 2.5 4.11168
      vertex 17.855 2.5 9.023
    endloop
  endfacet
  facet normal 0 -1 0
    outer loop
      vertex 13.492 2.5 6.23668
      vertex 12.8883 2.5 5.05191
      vertex 17.743 2.5 9.504
    endloop
  endfacet
  facet normal 0 -1 0
    outer loop
      vertex 6.01168 2.5 5.05191
      vertex 6.675 2.5 0
      vertex 6.95191 2.5 4.11168
    endloop
  endfacet
  facet normal 0 -1 0
    outer loop
      vertex 3.38955 2.5 15.1
      vertex 5.40801 2.5 6.23668
      vertex 5.2 2.5 7.55
    endloop
  endfacet
  facet normal 0 -1 0
    outer loop
      vertex 3.38955 2.5 15.1
      vertex 6.675 2.5 0
      vertex 5.40801 2.5 6.23668
    endloop
  endfacet
  facet normal 0 -1 0
    outer loop
      vertex 6.95191 2.5 10.9883
      vertex 8.13668 2.5 11.592
      vertex 9.95 2.5 15.1
    endloop
  endfacet
  facet normal 0 -1 0
    outer loop
      vertex 13.492 2.5 8.86332
      vertex 16.728 2.5 11.745
      vertex 16.44 2.5 12.146
    endloop
  endfacet
  facet normal 0 -1 0
    outer loop
      vertex 13.492 2.5 8.86332
      vertex 16.988 2.5 11.325
      vertex 16.728 2.5 11.745
    endloop
  endfacet
  facet normal 0 -1 0
    outer loop
      vertex 13.492 2.5 8.86332
      vertex 13.7 2.5 7.55
      vertex 16.988 2.5 11.325
    endloop
  endfacet
  facet normal -0.806974 9.74586e-017 -0.590588
    outer loop
      vertex 6.675 2.5 0
      vertex 6.675 7.55 0
      vertex 6.675 2.5 -2.23155e-015
    endloop
  endfacet
  facet normal -0.806974 9.74586e-017 -0.590588
    outer loop
      vertex 6.675 2.5 -2.23155e-015
      vertex 6.675 7.55 0
      vertex 6.675 7.55 -3.35287e-015
    endloop
  endfacet
  facet normal 2.83275e-016 1 -2.22045e-016
    outer loop
      vertex 2.9 7.55 7.55
      vertex 2.916 7.55 8.044
      vertex 2.916 7.55 7.056
    endloop
  endfacet
  facet normal 2.83275e-016 1 -2.22045e-016
    outer loop
      vertex 2.916 7.55 7.056
      vertex 2.916 7.55 8.044
      vertex 2.965 7.55 8.535
    endloop
  endfacet
  facet normal 2.83275e-016 1 -2.22045e-016
    outer loop
      vertex 2.916 7.55 7.056
      vertex 2.965 7.55 8.535
      vertex 3.045 7.55 9.023
    endloop
  endfacet
  facet normal 2.83275e-016 1 -2.22045e-016
    outer loop
      vertex 2.916 7.55 7.056
      vertex 3.045 7.55 9.023
      vertex 3.157 7.55 9.504
    endloop
  endfacet
  facet normal 2.83275e-016 1 -2.22045e-016
    outer loop
      vertex 2.916 7.55 7.056
      vertex 3.157 7.55 9.504
      vertex 3.301 7.55 9.977
    endloop
  endfacet
  facet normal 2.83275e-016 1 -2.22045e-016
    outer loop
      vertex 2.916 7.55 7.056
      vertex 3.301 7.55 9.977
      vertex 3.475 7.55 10.439
    endloop
  endfacet
  facet normal 2.83275e-016 1 -2.22045e-016
    outer loop
      vertex 2.916 7.55 7.056
      vertex 3.475 7.55 10.439
      vertex 3.679 7.55 10.889
    endloop
  endfacet
  facet normal 2.83275e-016 1 -2.22045e-016
    outer loop
      vertex 2.916 7.55 7.056
      vertex 3.679 7.55 10.889
      vertex 3.912 7.55 11.325
    endloop
  endfacet
  facet normal 2.83275e-016 1 -2.22045e-016
    outer loop
      vertex 2.916 7.55 7.056
      vertex 3.912 7.55 11.325
      vertex 4.172 7.55 11.745
    endloop
  endfacet
  facet normal 2.83275e-016 1 -2.22045e-016
    outer loop
      vertex 2.916 7.55 7.056
      vertex 4.172 7.55 11.745
      vertex 4.46 7.55 12.146
    endloop
  endfacet
  facet normal 2.83275e-016 1 -2.22045e-016
    outer loop
      vertex 2.916 7.55 7.056
      vertex 4.46 7.55 12.146
      vertex 4.774 7.55 12.528
    endloop
  endfacet
  facet normal 2.83275e-016 1 -2.22045e-016
    outer loop
      vertex 2.916 7.55 7.056
      vertex 4.774 7.55 12.528
      vertex 4.86 7.55 12.62
    endloop
  endfacet
  facet normal 2.83275e-016 1 -2.22045e-016
    outer loop
      vertex 2.916 7.55 7.056
      vertex 4.86 7.55 12.62
      vertex 6.675 7.55 15.1
    endloop
  endfacet
  facet normal 2.83275e-016 1 -2.22045e-016
    outer loop
      vertex 9.45 7.55 11.8
      vertex 6.675 7.55 15.1
      vertex 14.225 7.55 15.1
    endloop
  endfacet
  facet normal 2.83275e-016 1 -2.22045e-016
    outer loop
      vertex 11.9481 7.55 10.9883
      vertex 14.225 7.55 15.1
      vertex 16.04 7.55 12.62
    endloop
  endfacet
  facet normal 2.83275e-016 1 -2.22045e-016
    outer loop
      vertex 9.45 7.55 11.8
      vertex 9.95 7.55 11.8757
      vertex 9.84197 7.55 11.7379
    endloop
  endfacet
  facet normal 2.83275e-016 1 -2.22045e-016
    outer loop
      vertex 12.8883 7.55 10.0481
      vertex 16.988 7.55 11.325
      vertex 17.221 7.55 10.889
    endloop
  endfacet
  facet normal 2.83275e-016 1 -2.22045e-016
    outer loop
      vertex 11.9481 7.55 10.9883
      vertex 16.126 7.55 12.528
      vertex 16.44 7.55 12.146
    endloop
  endfacet
  facet normal 2.83275e-016 1 -2.22045e-016
    outer loop
      vertex 11.9481 7.55 10.9883
      vertex 16.728 7.55 11.745
      vertex 16.988 7.55 11.325
    endloop
  endfacet
  facet normal 2.83275e-016 1 -2.22045e-016
    outer loop
      vertex 13.492 7.55 8.86332
      vertex 17.599 7.55 9.977
      vertex 17.743 7.55 9.504
    endloop
  endfacet
  facet normal 2.83275e-016 1 -2.22045e-016
    outer loop
      vertex 12.8883 7.55 10.0481
      vertex 17.425 7.55 10.439
      vertex 17.599 7.55 9.977
    endloop
  endfacet
  facet normal 2.83275e-016 1 -2.22045e-016
    outer loop
      vertex 12.8883 7.55 10.0481
      vertex 17.599 7.55 9.977
      vertex 13.492 7.55 8.86332
    endloop
  endfacet
  facet normal 2.83275e-016 1 -2.22045e-016
    outer loop
      vertex 13.7 7.55 7.55
      vertex 17.984 7.55 8.044
      vertex 18 7.55 7.55
    endloop
  endfacet
  facet normal 2.83275e-016 1 -2.22045e-016
    outer loop
      vertex 13.492 7.55 8.86332
      vertex 17.855 7.55 9.023
      vertex 17.935 7.55 8.535
    endloop
  endfacet
  facet normal 2.83275e-016 1 -2.22045e-016
    outer loop
      vertex 13.492 7.55 8.86332
      vertex 17.935 7.55 8.535
      vertex 17.984 7.55 8.044
    endloop
  endfacet
  facet normal 2.83275e-016 1 -2.22045e-016
    outer loop
      vertex 13.492 7.55 8.86332
      vertex 17.984 7.55 8.044
      vertex 13.7 7.55 7.55
    endloop
  endfacet
  facet normal 2.83275e-016 1 -2.22045e-016
    outer loop
      vertex 13.492 7.55 6.23668
      vertex 17.855 7.55 6.077
      vertex 17.743 7.55 5.596
    endloop
  endfacet
  facet normal 2.83275e-016 1 -2.22045e-016
    outer loop
      vertex 13.7 7.55 7.55
      vertex 17.984 7.55 7.056
      vertex 17.935 7.55 6.565
    endloop
  endfacet
  facet normal 2.83275e-016 1 -2.22045e-016
    outer loop
      vertex 13.7 7.55 7.55
      vertex 17.935 7.55 6.565
      vertex 17.855 7.55 6.077
    endloop
  endfacet
  facet normal 2.83275e-016 1 -2.22045e-016
    outer loop
      vertex 13.7 7.55 7.55
      vertex 17.855 7.55 6.077
      vertex 13.492 7.55 6.23668
    endloop
  endfacet
  facet normal 2.83275e-016 1 -2.22045e-016
    outer loop
      vertex 12.8883 7.55 5.05191
      vertex 17.221 7.55 4.211
      vertex 16.988 7.55 3.775
    endloop
  endfacet
  facet normal 2.83275e-016 1 -2.22045e-016
    outer loop
      vertex 13.492 7.55 6.23668
      vertex 17.599 7.55 5.123
      vertex 17.425 7.55 4.661
    endloop
  endfacet
  facet normal 2.83275e-016 1 -2.22045e-016
    outer loop
      vertex 13.492 7.55 6.23668
      vertex 17.425 7.55 4.661
      vertex 17.221 7.55 4.211
    endloop
  endfacet
  facet normal 2.83275e-016 1 -2.22045e-016
    outer loop
      vertex 11.9481 7.55 4.11168
      vertex 16.44 7.55 2.954
      vertex 16.126 7.55 2.572
    endloop
  endfacet
  facet normal 2.83275e-016 1 -2.22045e-016
    outer loop
      vertex 12.8883 7.55 5.05191
      vertex 16.44 7.55 2.954
      vertex 11.9481 7.55 4.11168
    endloop
  endfacet
  facet normal 2.83275e-016 1 -2.22045e-016
    outer loop
      vertex 9.95 7.55 3.37919
      vertex 16.04 7.55 2.48
      vertex 14.225 7.55 -3.35287e-015
    endloop
  endfacet
  facet normal 2.83275e-016 1 -2.22045e-016
    outer loop
      vertex 9.95 7.55 0
      vertex 14.225 7.55 -3.35287e-015
      vertex 6.675 7.55 -3.35287e-015
    endloop
  endfacet
  facet normal 2.83275e-016 1 -2.22045e-016
    outer loop
      vertex 11.9481 7.55 4.11168
      vertex 16.04 7.55 2.48
      vertex 10.7633 7.55 3.50801
    endloop
  endfacet
  facet normal 2.83275e-016 1 -2.22045e-016
    outer loop
      vertex 9.95 7.55 3.37919
      vertex 14.225 7.55 -3.35287e-015
      vertex 9.95 7.55 0
    endloop
  endfacet
  facet normal 2.83275e-016 1 -2.22045e-016
    outer loop
      vertex 10.7633 7.55 3.50801
      vertex 16.04 7.55 2.48
      vertex 9.95 7.55 3.37919
    endloop
  endfacet
  facet normal 2.83275e-016 1 -2.22045e-016
    outer loop
      vertex 11.9481 7.55 4.11168
      vertex 16.126 7.55 2.572
      vertex 16.04 7.55 2.48
    endloop
  endfacet
  facet normal 2.83275e-016 1 -2.22045e-016
    outer loop
      vertex 13.492 7.55 6.23668
      vertex 17.221 7.55 4.211
      vertex 12.8883 7.55 5.05191
    endloop
  endfacet
  facet normal 2.83275e-016 1 -2.22045e-016
    outer loop
      vertex 12.8883 7.55 5.05191
      vertex 16.988 7.55 3.775
      vertex 16.728 7.55 3.355
    endloop
  endfacet
  facet normal 2.83275e-016 1 -2.22045e-016
    outer loop
      vertex 13.492 7.55 6.23668
      vertex 17.743 7.55 5.596
      vertex 17.599 7.55 5.123
    endloop
  endfacet
  facet normal 2.83275e-016 1 -2.22045e-016
    outer loop
      vertex 13.7 7.55 7.55
      vertex 18 7.55 7.55
      vertex 17.984 7.55 7.056
    endloop
  endfacet
  facet normal 2.83275e-016 1 -2.22045e-016
    outer loop
      vertex 5.40801 7.55 6.23668
      vertex 2.916 7.55 7.056
      vertex 5.2 7.55 7.55
    endloop
  endfacet
  facet normal 2.83275e-016 1 -2.22045e-016
    outer loop
      vertex 13.492 7.55 8.86332
      vertex 17.743 7.55 9.504
      vertex 17.855 7.55 9.023
    endloop
  endfacet
  facet normal 2.83275e-016 1 -2.22045e-016
    outer loop
      vertex 12.8883 7.55 10.0481
      vertex 17.221 7.55 10.889
      vertex 17.425 7.55 10.439
    endloop
  endfacet
  facet normal 2.83275e-016 1 -2.22045e-016
    outer loop
      vertex 11.9481 7.55 10.9883
      vertex 16.04 7.55 12.62
      vertex 16.126 7.55 12.528
    endloop
  endfacet
  facet normal 2.83275e-016 1 -2.22045e-016
    outer loop
      vertex 10.7633 7.55 11.592
      vertex 14.225 7.55 15.1
      vertex 11.9481 7.55 10.9883
    endloop
  endfacet
  facet normal 2.83275e-016 1 -2.22045e-016
    outer loop
      vertex 9.45 7.55 11.8
      vertex 14.225 7.55 15.1
      vertex 9.95 7.55 11.8757
    endloop
  endfacet
  facet normal 2.83275e-016 1 -2.22045e-016
    outer loop
      vertex 9.95 7.55 11.7208
      vertex 14.225 7.55 15.1
      vertex 10.7633 7.55 11.592
    endloop
  endfacet
  facet normal 2.83275e-016 1 -2.22045e-016
    outer loop
      vertex 9.95 7.55 11.8757
      vertex 14.225 7.55 15.1
      vertex 9.95 7.55 11.7208
    endloop
  endfacet
  facet normal 2.83275e-016 1 -2.22045e-016
    outer loop
      vertex 8.13668 7.55 11.592
      vertex 6.675 7.55 15.1
      vertex 9.45 7.55 11.8
    endloop
  endfacet
  facet normal 2.83275e-016 1 -2.22045e-016
    outer loop
      vertex 5.40801 7.55 8.86332
      vertex 2.916 7.55 7.056
      vertex 6.01168 7.55 10.0481
    endloop
  endfacet
  facet normal 2.83275e-016 1 -2.22045e-016
    outer loop
      vertex 6.95191 7.55 10.9883
      vertex 6.675 7.55 15.1
      vertex 8.13668 7.55 11.592
    endloop
  endfacet
  facet normal 2.83275e-016 1 -2.22045e-016
    outer loop
      vertex 2.916 7.55 7.056
      vertex 6.675 7.55 15.1
      vertex 6.95191 7.55 10.9883
    endloop
  endfacet
  facet normal 2.83275e-016 1 -2.22045e-016
    outer loop
      vertex 2.916 7.55 7.056
      vertex 6.95191 7.55 10.9883
      vertex 6.01168 7.55 10.0481
    endloop
  endfacet
  facet normal 2.83275e-016 1 -2.22045e-016
    outer loop
      vertex 5.2 7.55 7.55
      vertex 2.916 7.55 7.056
      vertex 5.40801 7.55 8.86332
    endloop
  endfacet
  facet normal 2.83275e-016 1 -2.22045e-016
    outer loop
      vertex 11.9481 7.55 10.9883
      vertex 16.44 7.55 12.146
      vertex 16.728 7.55 11.745
    endloop
  endfacet
  facet normal 2.83275e-016 1 -2.22045e-016
    outer loop
      vertex 11.9481 7.55 10.9883
      vertex 16.988 7.55 11.325
      vertex 12.8883 7.55 10.0481
    endloop
  endfacet
  facet normal 2.83275e-016 1 -2.22045e-016
    outer loop
      vertex 3.78562 7.55 4.01149
      vertex 2.916 7.55 7.056
      vertex 5.456 7.55 6.14249
    endloop
  endfacet
  facet normal 2.83275e-016 1 -2.22045e-016
    outer loop
      vertex 12.8883 7.55 5.05191
      vertex 16.728 7.55 3.355
      vertex 16.44 7.55 2.954
    endloop
  endfacet
  facet normal 2.83275e-016 1 -2.22045e-016
    outer loop
      vertex 2.916 7.55 7.056
      vertex 3.78562 7.55 4.01149
      vertex 3.679 7.55 4.211
    endloop
  endfacet
  facet normal 2.83275e-016 1 -2.22045e-016
    outer loop
      vertex 2.916 7.55 7.056
      vertex 3.679 7.55 4.211
      vertex 3.475 7.55 4.661
    endloop
  endfacet
  facet normal 2.83275e-016 1 -2.22045e-016
    outer loop
      vertex 2.916 7.55 7.056
      vertex 3.475 7.55 4.661
      vertex 3.301 7.55 5.123
    endloop
  endfacet
  facet normal 2.83275e-016 1 -2.22045e-016
    outer loop
      vertex 2.916 7.55 7.056
      vertex 3.301 7.55 5.123
      vertex 3.157 7.55 5.596
    endloop
  endfacet
  facet normal 2.83275e-016 1 -2.22045e-016
    outer loop
      vertex 2.916 7.55 7.056
      vertex 3.157 7.55 5.596
      vertex 3.045 7.55 6.077
    endloop
  endfacet
  facet normal 2.83275e-016 1 -2.22045e-016
    outer loop
      vertex 2.916 7.55 7.056
      vertex 3.045 7.55 6.077
      vertex 2.965 7.55 6.565
    endloop
  endfacet
  facet normal 2.83275e-016 1 -2.22045e-016
    outer loop
      vertex 9.95 7.55 0
      vertex 6.675 7.55 -3.35287e-015
      vertex 6.675 7.55 0
    endloop
  endfacet
  facet normal 2.83275e-016 1 -2.22045e-016
    outer loop
      vertex 5.456 7.55 6.14249
      vertex 2.916 7.55 7.056
      vertex 5.40801 7.55 6.23668
    endloop
  endfacet
  facet normal 0 1 0
    outer loop
      vertex 6.675 7.55 15.1
      vertex 0 7.55 15.1
      vertex 9.95 7.55 15.1
    endloop
  endfacet
  facet normal 0 1 0
    outer loop
      vertex 4.86 7.55 12.62
      vertex 0 7.55 15.1
      vertex 6.675 7.55 15.1
    endloop
  endfacet
  facet normal 0 1 0
    outer loop
      vertex 4.774 7.55 12.528
      vertex 0 7.55 15.1
      vertex 4.86 7.55 12.62
    endloop
  endfacet
  facet normal 0 1 0
    outer loop
      vertex 4.46 7.55 12.146
      vertex 0 7.55 15.1
      vertex 4.774 7.55 12.528
    endloop
  endfacet
  facet normal 0 1 0
    outer loop
      vertex 4.172 7.55 11.745
      vertex 0 7.55 15.1
      vertex 4.46 7.55 12.146
    endloop
  endfacet
  facet normal 0 1 0
    outer loop
      vertex 3.912 7.55 11.325
      vertex 0 7.55 15.1
      vertex 4.172 7.55 11.745
    endloop
  endfacet
  facet normal 0 1 0
    outer loop
      vertex 3.679 7.55 10.889
      vertex 0 7.55 15.1
      vertex 3.912 7.55 11.325
    endloop
  endfacet
  facet normal 0 1 0
    outer loop
      vertex 3.475 7.55 10.439
      vertex 0 7.55 15.1
      vertex 3.679 7.55 10.889
    endloop
  endfacet
  facet normal 0 1 0
    outer loop
      vertex 6.01168 7.55 5.05191
      vertex 9.95 7.55 0
      vertex 3.78562 7.55 4.01149
    endloop
  endfacet
  facet normal 0 1 0
    outer loop
      vertex 0 7.55 0
      vertex 0 7.55 15.1
      vertex 3.301 7.55 9.977
    endloop
  endfacet
  facet normal 0 1 0
    outer loop
      vertex 0 7.55 0
      vertex 3.301 7.55 9.977
      vertex 3.157 7.55 9.504
    endloop
  endfacet
  facet normal 0 1 0
    outer loop
      vertex 0 7.55 0
      vertex 3.157 7.55 9.504
      vertex 3.045 7.55 9.023
    endloop
  endfacet
  facet normal 0 1 0
    outer loop
      vertex 0 7.55 0
      vertex 3.045 7.55 9.023
      vertex 2.965 7.55 8.535
    endloop
  endfacet
  facet normal 0 1 0
    outer loop
      vertex 0 7.55 0
      vertex 2.965 7.55 8.535
      vertex 2.916 7.55 8.044
    endloop
  endfacet
  facet normal 0 1 0
    outer loop
      vertex 0 7.55 0
      vertex 2.916 7.55 8.044
      vertex 2.9 7.55 7.55
    endloop
  endfacet
  facet normal 0 1 0
    outer loop
      vertex 0 7.55 0
      vertex 2.9 7.55 7.55
      vertex 2.916 7.55 7.056
    endloop
  endfacet
  facet normal 0 1 0
    outer loop
      vertex 0 7.55 0
      vertex 2.916 7.55 7.056
      vertex 2.965 7.55 6.565
    endloop
  endfacet
  facet normal 0 1 0
    outer loop
      vertex 0 7.55 0
      vertex 2.965 7.55 6.565
      vertex 3.045 7.55 6.077
    endloop
  endfacet
  facet normal 0 1 0
    outer loop
      vertex 0 7.55 0
      vertex 3.045 7.55 6.077
      vertex 3.157 7.55 5.596
    endloop
  endfacet
  facet normal 0 1 0
    outer loop
      vertex 0 7.55 0
      vertex 3.157 7.55 5.596
      vertex 3.301 7.55 5.123
    endloop
  endfacet
  facet normal 0 1 0
    outer loop
      vertex 0 7.55 0
      vertex 3.301 7.55 5.123
      vertex 3.475 7.55 4.661
    endloop
  endfacet
  facet normal 0 1 0
    outer loop
      vertex 0 7.55 0
      vertex 3.475 7.55 4.661
      vertex 3.679 7.55 4.211
    endloop
  endfacet
  facet normal 0 1 0
    outer loop
      vertex 0 7.55 0
      vertex 3.679 7.55 4.211
      vertex 3.78562 7.55 4.01149
    endloop
  endfacet
  facet normal 0 1 0
    outer loop
      vertex 0 7.55 0
      vertex 3.78562 7.55 4.01149
      vertex 9.95 7.55 0
    endloop
  endfacet
  facet normal 0 1 0
    outer loop
      vertex 6.95191 7.55 4.11168
      vertex 9.95 7.55 0
      vertex 6.01168 7.55 5.05191
    endloop
  endfacet
  facet normal 0 1 0
    outer loop
      vertex 8.13668 7.55 3.50801
      vertex 9.95 7.55 0
      vertex 6.95191 7.55 4.11168
    endloop
  endfacet
  facet normal 0 1 0
    outer loop
      vertex 9.45 7.55 3.3
      vertex 9.95 7.55 0
      vertex 8.13668 7.55 3.50801
    endloop
  endfacet
  facet normal 0 1 0
    outer loop
      vertex 9.95 7.55 0
      vertex 9.45 7.55 3.3
      vertex 9.95 7.55 3.37919
    endloop
  endfacet
  facet normal 0 1 0
    outer loop
      vertex 3.301 7.55 9.977
      vertex 0 7.55 15.1
      vertex 3.475 7.55 10.439
    endloop
  endfacet
  facet normal 0 1 0
    outer loop
      vertex 5.456 7.55 6.14249
      vertex 6.01168 7.55 5.05191
      vertex 3.78562 7.55 4.01149
    endloop
  endfacet
  facet normal -0.156434 0.987688 0
    outer loop
      vertex -2.33308 7.18048 0
      vertex -2.33308 7.18048 15.1
      vertex 0 7.55 0
    endloop
  endfacet
  facet normal -0.156434 0.987688 0
    outer loop
      vertex 0 7.55 0
      vertex -2.33308 7.18048 15.1
      vertex 0 7.55 15.1
    endloop
  endfacet
  facet normal -0.453991 0.891006 0
    outer loop
      vertex -4.43778 6.10808 0
      vertex -4.43778 6.10808 15.1
      vertex -2.33308 7.18048 0
    endloop
  endfacet
  facet normal -0.453991 0.891006 0
    outer loop
      vertex -2.33308 7.18048 0
      vertex -4.43778 6.10808 15.1
      vertex -2.33308 7.18048 15.1
    endloop
  endfacet
  facet normal -0.707107 0.707107 0
    outer loop
      vertex -6.10808 4.43778 0
      vertex -6.10808 4.43778 15.1
      vertex -4.43778 6.10808 0
    endloop
  endfacet
  facet normal -0.707107 0.707107 0
    outer loop
      vertex -4.43778 6.10808 0
      vertex -6.10808 4.43778 15.1
      vertex -4.43778 6.10808 15.1
    endloop
  endfacet
  facet normal -0.891006 0.453991 0
    outer loop
      vertex -7.18048 2.33308 0
      vertex -7.18048 2.33308 15.1
      vertex -6.10808 4.43778 0
    endloop
  endfacet
  facet normal -0.891006 0.453991 0
    outer loop
      vertex -6.10808 4.43778 0
      vertex -7.18048 2.33308 15.1
      vertex -6.10808 4.43778 15.1
    endloop
  endfacet
  facet normal 0 0 1
    outer loop
      vertex -7.18048 2.33308 15.1
      vertex -7.55 0 15.1
      vertex -7.18048 -2.33308 15.1
    endloop
  endfacet
  facet normal 0 0 1
    outer loop
      vertex -4.43778 -6.10808 15.1
      vertex -7.18048 2.33308 15.1
      vertex -6.10808 -4.43778 15.1
    endloop
  endfacet
  facet normal 0 0 1
    outer loop
      vertex -6.10808 -4.43778 15.1
      vertex -7.18048 2.33308 15.1
      vertex -7.18048 -2.33308 15.1
    endloop
  endfacet
  facet normal 0 0 1
    outer loop
      vertex -2.33308 -7.18048 15.1
      vertex -7.18048 2.33308 15.1
      vertex -4.43778 -6.10808 15.1
    endloop
  endfacet
  facet normal 0 0 1
    outer loop
      vertex 0 -7.55 15.1
      vertex -7.18048 2.33308 15.1
      vertex -2.33308 -7.18048 15.1
    endloop
  endfacet
  facet normal 0 0 1
    outer loop
      vertex -3.25569 -2.73185 15.1
      vertex -7.18048 2.33308 15.1
      vertex 0 -7.55 15.1
    endloop
  endfacet
  facet normal 0 0 1
    outer loop
      vertex -3.25569 -2.73185 15.1
      vertex -3.99369 -1.45359 15.1
      vertex -7.18048 2.33308 15.1
    endloop
  endfacet
  facet normal 0 0 1
    outer loop
      vertex -3.99369 -1.45359 15.1
      vertex -4.25 0 15.1
      vertex -7.18048 2.33308 15.1
    endloop
  endfacet
  facet normal 0 0 1
    outer loop
      vertex 9.95 -2.5 15.1
      vertex 3.38955 -2.5 15.1
      vertex 9.95 -7.55 15.1
    endloop
  endfacet
  facet normal 0 0 1
    outer loop
      vertex 3.25569 2.73185 15.1
      vertex 9.95 2.5 15.1
      vertex 2.125 3.68061 15.1
    endloop
  endfacet
  facet normal 0 0 1
    outer loop
      vertex 3.38955 -2.5 15.1
      vertex 3.25569 -2.73185 15.1
      vertex 9.95 -7.55 15.1
    endloop
  endfacet
  facet normal 0 0 1
    outer loop
      vertex 3.38955 2.5 15.1
      vertex 9.95 2.5 15.1
      vertex 3.25569 2.73185 15.1
    endloop
  endfacet
  facet normal 0 0 1
    outer loop
      vertex 9.95 -7.55 15.1
      vertex 2.125 -3.68061 15.1
      vertex 0 -7.55 15.1
    endloop
  endfacet
  facet normal 0 0 1
    outer loop
      vertex 2.125 -3.68061 15.1
      vertex 0.738005 -4.18543 15.1
      vertex 0 -7.55 15.1
    endloop
  endfacet
  facet normal 0 0 1
    outer loop
      vertex 0.738005 -4.18543 15.1
      vertex -0.738005 -4.18543 15.1
      vertex 0 -7.55 15.1
    endloop
  endfacet
  facet normal 0 0 1
    outer loop
      vertex -0.738005 -4.18543 15.1
      vertex -2.125 -3.68061 15.1
      vertex 0 -7.55 15.1
    endloop
  endfacet
  facet normal 0 0 1
    outer loop
      vertex -2.125 -3.68061 15.1
      vertex -3.25569 -2.73185 15.1
      vertex 0 -7.55 15.1
    endloop
  endfacet
  facet normal 0 0 1
    outer loop
      vertex -3.25569 2.73185 15.1
      vertex -7.18048 2.33308 15.1
      vertex -3.99369 1.45359 15.1
    endloop
  endfacet
  facet normal 0 0 1
    outer loop
      vertex -2.125 3.68061 15.1
      vertex -7.18048 2.33308 15.1
      vertex -3.25569 2.73185 15.1
    endloop
  endfacet
  facet normal 0 0 1
    outer loop
      vertex -0.738005 4.18543 15.1
      vertex -7.18048 2.33308 15.1
      vertex -2.125 3.68061 15.1
    endloop
  endfacet
  facet normal 0 0 1
    outer loop
      vertex 9.95 7.55 15.1
      vertex -7.18048 2.33308 15.1
      vertex -0.738005 4.18543 15.1
    endloop
  endfacet
  facet normal 0 0 1
    outer loop
      vertex 9.95 7.55 15.1
      vertex -0.738005 4.18543 15.1
      vertex 0.738005 4.18543 15.1
    endloop
  endfacet
  facet normal 0 0 1
    outer loop
      vertex 9.95 2.5 15.1
      vertex 0.738005 4.18543 15.1
      vertex 2.125 3.68061 15.1
    endloop
  endfacet
  facet normal 0 0 1
    outer loop
      vertex 9.95 7.55 15.1
      vertex 0.738005 4.18543 15.1
      vertex 9.95 2.5 15.1
    endloop
  endfacet
  facet normal 0 0 1
    outer loop
      vertex 0 7.55 15.1
      vertex -7.18048 2.33308 15.1
      vertex 9.95 7.55 15.1
    endloop
  endfacet
  facet normal 0 0 1
    outer loop
      vertex -2.33308 7.18048 15.1
      vertex -7.18048 2.33308 15.1
      vertex 0 7.55 15.1
    endloop
  endfacet
  facet normal 0 0 1
    outer loop
      vertex -4.43778 6.10808 15.1
      vertex -7.18048 2.33308 15.1
      vertex -2.33308 7.18048 15.1
    endloop
  endfacet
  facet normal 0 0 1
    outer loop
      vertex -6.10808 4.43778 15.1
      vertex -7.18048 2.33308 15.1
      vertex -4.43778 6.10808 15.1
    endloop
  endfacet
  facet normal 0 0 1
    outer loop
      vertex 3.25569 -2.73185 15.1
      vertex 2.125 -3.68061 15.1
      vertex 9.95 -7.55 15.1
    endloop
  endfacet
  facet normal 0 0 1
    outer loop
      vertex -4.25 0 15.1
      vertex -3.99369 1.45359 15.1
      vertex -7.18048 2.33308 15.1
    endloop
  endfacet
  facet normal -2.83275e-016 -1 2.22045e-016
    outer loop
      vertex 5.456 -7.55 6.14249
      vertex 3.78562 -7.55 4.01149
      vertex 3.912 -7.55 3.775
    endloop
  endfacet
  facet normal -2.83275e-016 -1 2.22045e-016
    outer loop
      vertex 4.46 -7.55 2.954
      vertex 5.456 -7.55 6.14249
      vertex 4.172 -7.55 3.355
    endloop
  endfacet
  facet normal -2.83275e-016 -1 2.22045e-016
    outer loop
      vertex 4.172 -7.55 3.355
      vertex 5.456 -7.55 6.14249
      vertex 3.912 -7.55 3.775
    endloop
  endfacet
  facet normal -2.83275e-016 -1 2.22045e-016
    outer loop
      vertex 4.774 -7.55 2.572
      vertex 5.456 -7.55 6.14249
      vertex 4.46 -7.55 2.954
    endloop
  endfacet
  facet normal -2.83275e-016 -1 2.22045e-016
    outer loop
      vertex 4.86 -7.55 2.48
      vertex 5.456 -7.55 6.14249
      vertex 4.774 -7.55 2.572
    endloop
  endfacet
  facet normal -2.83275e-016 -1 2.22045e-016
    outer loop
      vertex 6.675 -7.55 0
      vertex 5.456 -7.55 6.14249
      vertex 4.86 -7.55 2.48
    endloop
  endfacet
  facet normal -2.83275e-016 -1 2.22045e-016
    outer loop
      vertex 6.01168 -7.55 5.05191
      vertex 5.456 -7.55 6.14249
      vertex 6.675 -7.55 0
    endloop
  endfacet
  facet normal -2.83275e-016 -1 2.22045e-016
    outer loop
      vertex 10.7633 -7.55 3.50801
      vertex 9.45 -7.55 3.3
      vertex 14.225 -7.55 0
    endloop
  endfacet
  facet normal -2.83275e-016 -1 2.22045e-016
    outer loop
      vertex 11.9481 -7.55 4.11168
      vertex 16.04 -7.55 2.48
      vertex 16.126 -7.55 2.572
    endloop
  endfacet
  facet normal -2.83275e-016 -1 2.22045e-016
    outer loop
      vertex 11.9481 -7.55 4.11168
      vertex 10.7633 -7.55 3.50801
      vertex 16.04 -7.55 2.48
    endloop
  endfacet
  facet normal -2.83275e-016 -1 2.22045e-016
    outer loop
      vertex 12.8883 -7.55 5.05191
      vertex 16.988 -7.55 3.775
      vertex 17.221 -7.55 4.211
    endloop
  endfacet
  facet normal -2.83275e-016 -1 2.22045e-016
    outer loop
      vertex 12.8883 -7.55 5.05191
      vertex 16.728 -7.55 3.355
      vertex 16.988 -7.55 3.775
    endloop
  endfacet
  facet normal -2.83275e-016 -1 2.22045e-016
    outer loop
      vertex 12.8883 -7.55 5.05191
      vertex 16.44 -7.55 2.954
      vertex 16.728 -7.55 3.355
    endloop
  endfacet
  facet normal -2.83275e-016 -1 2.22045e-016
    outer loop
      vertex 12.8883 -7.55 5.05191
      vertex 11.9481 -7.55 4.11168
      vertex 16.44 -7.55 2.954
    endloop
  endfacet
  facet normal -2.83275e-016 -1 2.22045e-016
    outer loop
      vertex 13.492 -7.55 6.23668
      vertex 17.743 -7.55 5.596
      vertex 17.855 -7.55 6.077
    endloop
  endfacet
  facet normal -2.83275e-016 -1 2.22045e-016
    outer loop
      vertex 13.492 -7.55 6.23668
      vertex 17.599 -7.55 5.123
      vertex 17.743 -7.55 5.596
    endloop
  endfacet
  facet normal -2.83275e-016 -1 2.22045e-016
    outer loop
      vertex 13.492 -7.55 6.23668
      vertex 17.425 -7.55 4.661
      vertex 17.599 -7.55 5.123
    endloop
  endfacet
  facet normal -2.83275e-016 -1 2.22045e-016
    outer loop
      vertex 13.492 -7.55 6.23668
      vertex 12.8883 -7.55 5.05191
      vertex 17.425 -7.55 4.661
    endloop
  endfacet
  facet normal -2.83275e-016 -1 2.22045e-016
    outer loop
      vertex 13.7 -7.55 7.55
      vertex 18 -7.55 7.55
      vertex 17.984 -7.55 8.044
    endloop
  endfacet
  facet normal -2.83275e-016 -1 2.22045e-016
    outer loop
      vertex 13.7 -7.55 7.55
      vertex 17.984 -7.55 7.056
      vertex 18 -7.55 7.55
    endloop
  endfacet
  facet normal -2.83275e-016 -1 2.22045e-016
    outer loop
      vertex 13.7 -7.55 7.55
      vertex 17.935 -7.55 6.565
      vertex 17.984 -7.55 7.056
    endloop
  endfacet
  facet normal -2.83275e-016 -1 2.22045e-016
    outer loop
      vertex 13.7 -7.55 7.55
      vertex 13.492 -7.55 6.23668
      vertex 17.935 -7.55 6.565
    endloop
  endfacet
  facet normal -2.83275e-016 -1 2.22045e-016
    outer loop
      vertex 13.492 -7.55 8.86332
      vertex 17.743 -7.55 9.504
      vertex 17.599 -7.55 9.977
    endloop
  endfacet
  facet normal -2.83275e-016 -1 2.22045e-016
    outer loop
      vertex 13.492 -7.55 8.86332
      vertex 17.855 -7.55 9.023
      vertex 17.743 -7.55 9.504
    endloop
  endfacet
  facet normal -2.83275e-016 -1 2.22045e-016
    outer loop
      vertex 13.492 -7.55 8.86332
      vertex 17.935 -7.55 8.535
      vertex 17.855 -7.55 9.023
    endloop
  endfacet
  facet normal -2.83275e-016 -1 2.22045e-016
    outer loop
      vertex 13.492 -7.55 8.86332
      vertex 13.7 -7.55 7.55
      vertex 17.935 -7.55 8.535
    endloop
  endfacet
  facet normal -2.83275e-016 -1 2.22045e-016
    outer loop
      vertex 12.8883 -7.55 10.0481
      vertex 16.988 -7.55 11.325
      vertex 16.728 -7.55 11.745
    endloop
  endfacet
  facet normal -2.83275e-016 -1 2.22045e-016
    outer loop
      vertex 12.8883 -7.55 10.0481
      vertex 17.221 -7.55 10.889
      vertex 16.988 -7.55 11.325
    endloop
  endfacet
  facet normal -2.83275e-016 -1 2.22045e-016
    outer loop
      vertex 12.8883 -7.55 10.0481
      vertex 17.425 -7.55 10.439
      vertex 17.221 -7.55 10.889
    endloop
  endfacet
  facet normal -2.83275e-016 -1 2.22045e-016
    outer loop
      vertex 9.95 -7.55 11.8757
      vertex 9.84197 -7.55 11.7379
      vertex 14.225 -7.55 15.1
    endloop
  endfacet
  facet normal -2.83275e-016 -1 2.22045e-016
    outer loop
      vertex 9.95 -7.55 15.1
      vertex 9.95 -7.55 11.8757
      vertex 14.225 -7.55 15.1
    endloop
  endfacet
  facet normal -2.83275e-016 -1 2.22045e-016
    outer loop
      vertex 11.9481 -7.55 10.9883
      vertex 16.126 -7.55 12.528
      vertex 16.04 -7.55 12.62
    endloop
  endfacet
  facet normal -2.83275e-016 -1 2.22045e-016
    outer loop
      vertex 9.84197 -7.55 11.7379
      vertex 10.7633 -7.55 11.592
      vertex 14.225 -7.55 15.1
    endloop
  endfacet
  facet normal -2.83275e-016 -1 2.22045e-016
    outer loop
      vertex 14.225 -7.55 15.1
      vertex 11.9481 -7.55 10.9883
      vertex 16.04 -7.55 12.62
    endloop
  endfacet
  facet normal -2.83275e-016 -1 2.22045e-016
    outer loop
      vertex 16.44 -7.55 12.146
      vertex 12.8883 -7.55 10.0481
      vertex 16.728 -7.55 11.745
    endloop
  endfacet
  facet normal -2.83275e-016 -1 2.22045e-016
    outer loop
      vertex 17.425 -7.55 10.439
      vertex 13.492 -7.55 8.86332
      vertex 17.599 -7.55 9.977
    endloop
  endfacet
  facet normal -2.83275e-016 -1 2.22045e-016
    outer loop
      vertex 17.935 -7.55 8.535
      vertex 13.7 -7.55 7.55
      vertex 17.984 -7.55 8.044
    endloop
  endfacet
  facet normal -2.83275e-016 -1 2.22045e-016
    outer loop
      vertex 17.935 -7.55 6.565
      vertex 13.492 -7.55 6.23668
      vertex 17.855 -7.55 6.077
    endloop
  endfacet
  facet normal -2.83275e-016 -1 2.22045e-016
    outer loop
      vertex 17.425 -7.55 4.661
      vertex 12.8883 -7.55 5.05191
      vertex 17.221 -7.55 4.211
    endloop
  endfacet
  facet normal -2.83275e-016 -1 2.22045e-016
    outer loop
      vertex 16.44 -7.55 2.954
      vertex 11.9481 -7.55 4.11168
      vertex 16.126 -7.55 2.572
    endloop
  endfacet
  facet normal -2.83275e-016 -1 2.22045e-016
    outer loop
      vertex 16.04 -7.55 2.48
      vertex 10.7633 -7.55 3.50801
      vertex 14.225 -7.55 0
    endloop
  endfacet
  facet normal -2.83275e-016 -1 2.22045e-016
    outer loop
      vertex 14.225 -7.55 0
      vertex 9.45 -7.55 3.3
      vertex 6.675 -7.55 0
    endloop
  endfacet
  facet normal -2.83275e-016 -1 2.22045e-016
    outer loop
      vertex 9.45 -7.55 3.3
      vertex 8.13668 -7.55 3.50801
      vertex 6.675 -7.55 0
    endloop
  endfacet
  facet normal -2.83275e-016 -1 2.22045e-016
    outer loop
      vertex 8.13668 -7.55 3.50801
      vertex 6.95191 -7.55 4.11168
      vertex 6.675 -7.55 0
    endloop
  endfacet
  facet normal -2.83275e-016 -1 2.22045e-016
    outer loop
      vertex 6.95191 -7.55 4.11168
      vertex 6.01168 -7.55 5.05191
      vertex 6.675 -7.55 0
    endloop
  endfacet
  facet normal -2.83275e-016 -1 2.22045e-016
    outer loop
      vertex 10.7633 -7.55 11.592
      vertex 11.9481 -7.55 10.9883
      vertex 14.225 -7.55 15.1
    endloop
  endfacet
  facet normal -2.83275e-016 -1 2.22045e-016
    outer loop
      vertex 11.9481 -7.55 10.9883
      vertex 16.44 -7.55 12.146
      vertex 16.126 -7.55 12.528
    endloop
  endfacet
  facet normal -2.83275e-016 -1 2.22045e-016
    outer loop
      vertex 11.9481 -7.55 10.9883
      vertex 12.8883 -7.55 10.0481
      vertex 16.44 -7.55 12.146
    endloop
  endfacet
  facet normal -2.83275e-016 -1 2.22045e-016
    outer loop
      vertex 12.8883 -7.55 10.0481
      vertex 13.492 -7.55 8.86332
      vertex 17.425 -7.55 10.439
    endloop
  endfacet
  facet normal -0.156435 -2.19311e-016 -0.987688
    outer loop
      vertex 10.7633 -2.5 11.592
      vertex 10.7633 -7.55 11.592
      vertex 9.45 -2.5 11.8
    endloop
  endfacet
  facet normal -0.156435 -2.19311e-016 -0.987688
    outer loop
      vertex 9.45 -2.5 11.8
      vertex 10.7633 -7.55 11.592
      vertex 9.84197 -7.55 11.7379
    endloop
  endfacet
  facet normal -0.156435 -2.19311e-016 -0.987688
    outer loop
      vertex 9.45 -2.5 11.8
      vertex 9.84197 -7.55 11.7379
      vertex 9.45 -7.55 11.8
    endloop
  endfacet
  facet normal 0.156435 -2.19311e-016 -0.987688
    outer loop
      vertex 9.45 -2.5 11.8
      vertex 9.45 -7.55 11.8
      vertex 8.13668 -2.5 11.592
    endloop
  endfacet
  facet normal 0.156435 -2.19311e-016 -0.987688
    outer loop
      vertex 8.13668 -2.5 11.592
      vertex 9.45 -7.55 11.8
      vertex 8.13668 -7.55 11.592
    endloop
  endfacet
  facet normal 0.453991 -1.97843e-016 -0.891006
    outer loop
      vertex 8.13668 -2.5 11.592
      vertex 8.13668 -7.55 11.592
      vertex 6.95191 -2.5 10.9883
    endloop
  endfacet
  facet normal 0.453991 -1.97843e-016 -0.891006
    outer loop
      vertex 6.95191 -2.5 10.9883
      vertex 8.13668 -7.55 11.592
      vertex 6.95191 -7.55 10.9883
    endloop
  endfacet
  facet normal 0.707107 -1.57009e-016 -0.707107
    outer loop
      vertex 6.01168 -2.5 10.0481
      vertex 6.95191 -2.5 10.9883
      vertex 6.95191 -7.55 10.9883
    endloop
  endfacet
  facet normal 0.707107 -1.57009e-016 -0.707107
    outer loop
      vertex 6.01168 -7.55 10.0481
      vertex 6.01168 -2.5 10.0481
      vertex 6.95191 -7.55 10.9883
    endloop
  endfacet
  facet normal 0.891006 -1.00806e-016 -0.453991
    outer loop
      vertex 5.40801 -2.5 8.86332
      vertex 6.01168 -2.5 10.0481
      vertex 6.01168 -7.55 10.0481
    endloop
  endfacet
  facet normal 0.891006 -1.00806e-016 -0.453991
    outer loop
      vertex 5.40801 -7.55 8.86332
      vertex 5.40801 -2.5 8.86332
      vertex 6.01168 -7.55 10.0481
    endloop
  endfacet
  facet normal 0.987688 -3.47355e-017 -0.156435
    outer loop
      vertex 5.2 -2.5 7.55
      vertex 5.40801 -2.5 8.86332
      vertex 5.40801 -7.55 8.86332
    endloop
  endfacet
  facet normal 0.987688 -3.47355e-017 -0.156435
    outer loop
      vertex 5.2 -7.55 7.55
      vertex 5.2 -2.5 7.55
      vertex 5.40801 -7.55 8.86332
    endloop
  endfacet
  facet normal 0.987688 3.47355e-017 0.156435
    outer loop
      vertex 5.40801 -7.55 6.23668
      vertex 5.40801 -2.5 6.23668
      vertex 5.2 -2.5 7.55
    endloop
  endfacet
  facet normal 0.987688 3.47355e-017 0.156435
    outer loop
      vertex 5.2 -7.55 7.55
      vertex 5.40801 -7.55 6.23668
      vertex 5.2 -2.5 7.55
    endloop
  endfacet
  facet normal 0.891006 1.00806e-016 0.453991
    outer loop
      vertex 5.456 -7.55 6.14249
      vertex 6.01168 -7.55 5.05191
      vertex 6.01168 -2.5 5.05191
    endloop
  endfacet
  facet normal 0.891006 1.00806e-016 0.453991
    outer loop
      vertex 5.40801 -7.55 6.23668
      vertex 5.456 -7.55 6.14249
      vertex 5.40801 -2.5 6.23668
    endloop
  endfacet
  facet normal 0.891006 1.00806e-016 0.453991
    outer loop
      vertex 5.40801 -2.5 6.23668
      vertex 5.456 -7.55 6.14249
      vertex 6.01168 -2.5 5.05191
    endloop
  endfacet
  facet normal -6.28997e-032 -2.22045e-016 -1
    outer loop
      vertex 6.675 -7.55 0
      vertex 6.675 -2.5 -1.12133e-015
      vertex 14.225 -7.55 0
    endloop
  endfacet
  facet normal -6.28997e-032 -2.22045e-016 -1
    outer loop
      vertex 14.225 -7.55 0
      vertex 6.675 -2.5 -1.12133e-015
      vertex 14.225 -2.5 -1.12133e-015
    endloop
  endfacet
  facet normal 0.806974 -3.59732e-016 -0.590588
    outer loop
      vertex 16.04 -7.55 2.48
      vertex 14.225 -7.55 0
      vertex 14.225 -2.5 -1.12133e-015
    endloop
  endfacet
  facet normal 0.806974 -3.59732e-016 -0.590588
    outer loop
      vertex 16.04 -2.5 2.48
      vertex 16.04 -7.55 2.48
      vertex 14.225 -2.5 -1.12133e-015
    endloop
  endfacet
  facet normal 0.730527 -3.58571e-016 -0.682884
    outer loop
      vertex 16.126 -7.55 2.572
      vertex 16.04 -7.55 2.48
      vertex 16.04 -2.5 2.48
    endloop
  endfacet
  facet normal 0.730527 -3.58571e-016 -0.682884
    outer loop
      vertex 16.126 -2.5 2.572
      vertex 16.126 -7.55 2.572
      vertex 16.04 -2.5 2.48
    endloop
  endfacet
  facet normal 0.772514 -3.59832e-016 -0.634998
    outer loop
      vertex 16.44 -7.55 2.954
      vertex 16.126 -7.55 2.572
      vertex 16.126 -2.5 2.572
    endloop
  endfacet
  facet normal 0.772514 -3.59832e-016 -0.634998
    outer loop
      vertex 16.44 -2.5 2.954
      vertex 16.44 -7.55 2.954
      vertex 16.126 -2.5 2.572
    endloop
  endfacet
  facet normal 0.812225 -3.59611e-016 -0.583344
    outer loop
      vertex 16.728 -7.55 3.355
      vertex 16.44 -7.55 2.954
      vertex 16.44 -2.5 2.954
    endloop
  endfacet
  facet normal 0.812225 -3.59611e-016 -0.583344
    outer loop
      vertex 16.728 -2.5 3.355
      vertex 16.728 -7.55 3.355
      vertex 16.44 -2.5 2.954
    endloop
  endfacet
  facet normal 0.850265 -3.57733e-016 -0.526355
    outer loop
      vertex 16.988 -7.55 3.775
      vertex 16.728 -7.55 3.355
      vertex 16.728 -2.5 3.355
    endloop
  endfacet
  facet normal 0.850265 -3.57733e-016 -0.526355
    outer loop
      vertex 16.988 -2.5 3.775
      vertex 16.988 -7.55 3.775
      vertex 16.728 -2.5 3.355
    endloop
  endfacet
  facet normal 0.881961 -3.54492e-016 -0.471323
    outer loop
      vertex 17.221 -7.55 4.211
      vertex 16.988 -7.55 3.775
      vertex 16.988 -2.5 3.775
    endloop
  endfacet
  facet normal 0.881961 -3.54492e-016 -0.471323
    outer loop
      vertex 17.221 -2.5 4.211
      vertex 17.221 -7.55 4.211
      vertex 16.988 -2.5 3.775
    endloop
  endfacet
  facet normal 0.910782 -3.49681e-016 -0.412888
    outer loop
      vertex 17.425 -7.55 4.661
      vertex 17.221 -7.55 4.211
      vertex 17.221 -2.5 4.211
    endloop
  endfacet
  facet normal 0.910782 -3.49681e-016 -0.412888
    outer loop
      vertex 17.425 -2.5 4.661
      vertex 17.425 -7.55 4.661
      vertex 17.221 -2.5 4.211
    endloop
  endfacet
  facet normal 0.935829 -3.43358e-016 -0.352455
    outer loop
      vertex 17.599 -7.55 5.123
      vertex 17.425 -7.55 4.661
      vertex 17.425 -2.5 4.661
    endloop
  endfacet
  facet normal 0.935829 -3.43358e-016 -0.352455
    outer loop
      vertex 17.599 -2.5 5.123
      vertex 17.599 -7.55 5.123
      vertex 17.425 -2.5 4.661
    endloop
  endfacet
  facet normal 0.956649 -3.35664e-016 -0.291242
    outer loop
      vertex 17.743 -7.55 5.596
      vertex 17.599 -7.55 5.123
      vertex 17.599 -2.5 5.123
    endloop
  endfacet
  facet normal 0.956649 -3.35664e-016 -0.291242
    outer loop
      vertex 17.743 -2.5 5.596
      vertex 17.743 -7.55 5.596
      vertex 17.599 -2.5 5.123
    endloop
  endfacet
  facet normal 0.973946 -3.2625e-016 -0.226782
    outer loop
      vertex 17.855 -7.55 6.077
      vertex 17.743 -7.55 5.596
      vertex 17.743 -2.5 5.596
    endloop
  endfacet
  facet normal 0.973946 -3.2625e-016 -0.226782
    outer loop
      vertex 17.855 -2.5 6.077
      vertex 17.855 -7.55 6.077
      vertex 17.743 -2.5 5.596
    endloop
  endfacet
  facet normal 0.986828 -3.15465e-016 -0.161775
    outer loop
      vertex 17.935 -7.55 6.565
      vertex 17.855 -7.55 6.077
      vertex 17.855 -2.5 6.077
    endloop
  endfacet
  facet normal 0.986828 -3.15465e-016 -0.161775
    outer loop
      vertex 17.935 -2.5 6.565
      vertex 17.935 -7.55 6.565
      vertex 17.855 -2.5 6.077
    endloop
  endfacet
  facet normal 0.995057 -3.03924e-016 -0.0993031
    outer loop
      vertex 17.984 -7.55 7.056
      vertex 17.935 -7.55 6.565
      vertex 17.935 -2.5 6.565
    endloop
  endfacet
  facet normal 0.995057 -3.03924e-016 -0.0993031
    outer loop
      vertex 17.984 -2.5 7.056
      vertex 17.984 -7.55 7.056
      vertex 17.935 -2.5 6.565
    endloop
  endfacet
  facet normal 0.999476 -2.90314e-016 -0.0323717
    outer loop
      vertex 18 -7.55 7.55
      vertex 17.984 -7.55 7.056
      vertex 17.984 -2.5 7.056
    endloop
  endfacet
  facet normal 0.999476 -2.90314e-016 -0.0323717
    outer loop
      vertex 18 -2.5 7.55
      vertex 18 -7.55 7.55
      vertex 17.984 -2.5 7.056
    endloop
  endfacet
  facet normal 0.999476 -2.75938e-016 0.0323717
    outer loop
      vertex 17.984 -2.5 8.044
      vertex 17.984 -7.55 8.044
      vertex 18 -7.55 7.55
    endloop
  endfacet
  facet normal 0.999476 -2.75938e-016 0.0323717
    outer loop
      vertex 18 -2.5 7.55
      vertex 17.984 -2.5 8.044
      vertex 18 -7.55 7.55
    endloop
  endfacet
  facet normal 0.995057 -2.59825e-016 0.0993031
    outer loop
      vertex 17.935 -2.5 8.535
      vertex 17.935 -7.55 8.535
      vertex 17.984 -7.55 8.044
    endloop
  endfacet
  facet normal 0.995057 -2.59825e-016 0.0993031
    outer loop
      vertex 17.984 -2.5 8.044
      vertex 17.935 -2.5 8.535
      vertex 17.984 -7.55 8.044
    endloop
  endfacet
  facet normal 0.986828 -2.43622e-016 0.161775
    outer loop
      vertex 17.855 -2.5 9.023
      vertex 17.855 -7.55 9.023
      vertex 17.935 -7.55 8.535
    endloop
  endfacet
  facet normal 0.986828 -2.43622e-016 0.161775
    outer loop
      vertex 17.935 -2.5 8.535
      vertex 17.855 -2.5 9.023
      vertex 17.935 -7.55 8.535
    endloop
  endfacet
  facet normal 0.973946 -2.25539e-016 0.226782
    outer loop
      vertex 17.743 -2.5 9.504
      vertex 17.743 -7.55 9.504
      vertex 17.855 -7.55 9.023
    endloop
  endfacet
  facet normal 0.973946 -2.25539e-016 0.226782
    outer loop
      vertex 17.855 -2.5 9.023
      vertex 17.743 -2.5 9.504
      vertex 17.855 -7.55 9.023
    endloop
  endfacet
  facet normal 0.956649 -2.06326e-016 0.291242
    outer loop
      vertex 17.599 -2.5 9.977
      vertex 17.599 -7.55 9.977
      vertex 17.743 -7.55 9.504
    endloop
  endfacet
  facet normal 0.956649 -2.06326e-016 0.291242
    outer loop
      vertex 17.743 -2.5 9.504
      vertex 17.599 -2.5 9.977
      vertex 17.743 -7.55 9.504
    endloop
  endfacet
  facet normal 0.935829 -1.86836e-016 0.352455
    outer loop
      vertex 17.425 -2.5 10.439
      vertex 17.425 -7.55 10.439
      vertex 17.599 -7.55 9.977
    endloop
  endfacet
  facet normal 0.935829 -1.86836e-016 0.352455
    outer loop
      vertex 17.599 -2.5 9.977
      vertex 17.425 -2.5 10.439
      vertex 17.599 -7.55 9.977
    endloop
  endfacet
  facet normal 0.910782 -1.66322e-016 0.412888
    outer loop
      vertex 17.221 -2.5 10.889
      vertex 17.221 -7.55 10.889
      vertex 17.425 -7.55 10.439
    endloop
  endfacet
  facet normal 0.910782 -1.66322e-016 0.412888
    outer loop
      vertex 17.425 -2.5 10.439
      vertex 17.221 -2.5 10.889
      vertex 17.425 -7.55 10.439
    endloop
  endfacet
  facet normal 0.881961 -1.45183e-016 0.471323
    outer loop
      vertex 16.988 -2.5 11.325
      vertex 16.988 -7.55 11.325
      vertex 17.221 -7.55 10.889
    endloop
  endfacet
  facet normal 0.881961 -1.45183e-016 0.471323
    outer loop
      vertex 17.221 -2.5 10.889
      vertex 16.988 -2.5 11.325
      vertex 17.221 -7.55 10.889
    endloop
  endfacet
  facet normal 0.850265 -1.23985e-016 0.526355
    outer loop
      vertex 16.728 -2.5 11.745
      vertex 16.728 -7.55 11.745
      vertex 16.988 -7.55 11.325
    endloop
  endfacet
  facet normal 0.850265 -1.23985e-016 0.526355
    outer loop
      vertex 16.988 -2.5 11.325
      vertex 16.728 -2.5 11.745
      vertex 16.988 -7.55 11.325
    endloop
  endfacet
  facet normal 0.812225 -1.00555e-016 0.583344
    outer loop
      vertex 16.44 -2.5 12.146
      vertex 16.44 -7.55 12.146
      vertex 16.728 -7.55 11.745
    endloop
  endfacet
  facet normal 0.812225 -1.00555e-016 0.583344
    outer loop
      vertex 16.728 -2.5 11.745
      vertex 16.44 -2.5 12.146
      vertex 16.728 -7.55 11.745
    endloop
  endfacet
  facet normal 0.772514 -7.78358e-017 0.634998
    outer loop
      vertex 16.126 -2.5 12.528
      vertex 16.126 -7.55 12.528
      vertex 16.44 -7.55 12.146
    endloop
  endfacet
  facet normal 0.772514 -7.78358e-017 0.634998
    outer loop
      vertex 16.44 -2.5 12.146
      vertex 16.126 -2.5 12.528
      vertex 16.44 -7.55 12.146
    endloop
  endfacet
  facet normal 0.730527 -5.53093e-017 0.682884
    outer loop
      vertex 16.04 -2.5 12.62
      vertex 16.04 -7.55 12.62
      vertex 16.126 -7.55 12.528
    endloop
  endfacet
  facet normal 0.730527 -5.53093e-017 0.682884
    outer loop
      vertex 16.126 -2.5 12.528
      vertex 16.04 -2.5 12.62
      vertex 16.126 -7.55 12.528
    endloop
  endfacet
  facet normal 0.806974 -9.74586e-017 0.590588
    outer loop
      vertex 14.225 -2.5 15.1
      vertex 14.225 -7.55 15.1
      vertex 16.04 -7.55 12.62
    endloop
  endfacet
  facet normal 0.806974 -9.74586e-017 0.590588
    outer loop
      vertex 16.04 -2.5 12.62
      vertex 14.225 -2.5 15.1
      vertex 16.04 -7.55 12.62
    endloop
  endfacet
  facet normal 6.28997e-032 2.22045e-016 1
    outer loop
      vertex 9.95 -2.5 15.1
      vertex 9.95 -7.55 15.1
      vertex 14.225 -7.55 15.1
    endloop
  endfacet
  facet normal 6.28997e-032 2.22045e-016 1
    outer loop
      vertex 14.225 -2.5 15.1
      vertex 9.95 -2.5 15.1
      vertex 14.225 -7.55 15.1
    endloop
  endfacet
  facet normal -0.453991 -1.97843e-016 -0.891006
    outer loop
      vertex 11.9481 -2.5 10.9883
      vertex 11.9481 -7.55 10.9883
      vertex 10.7633 -2.5 11.592
    endloop
  endfacet
  facet normal -0.453991 -1.97843e-016 -0.891006
    outer loop
      vertex 10.7633 -2.5 11.592
      vertex 11.9481 -7.55 10.9883
      vertex 10.7633 -7.55 11.592
    endloop
  endfacet
  facet normal -0.707107 -1.57009e-016 -0.707107
    outer loop
      vertex 12.8883 -2.5 10.0481
      vertex 12.8883 -7.55 10.0481
      vertex 11.9481 -2.5 10.9883
    endloop
  endfacet
  facet normal -0.707107 -1.57009e-016 -0.707107
    outer loop
      vertex 11.9481 -2.5 10.9883
      vertex 12.8883 -7.55 10.0481
      vertex 11.9481 -7.55 10.9883
    endloop
  endfacet
  facet normal -0.891006 -1.00806e-016 -0.453991
    outer loop
      vertex 13.492 -2.5 8.86332
      vertex 13.492 -7.55 8.86332
      vertex 12.8883 -2.5 10.0481
    endloop
  endfacet
  facet normal -0.891006 -1.00806e-016 -0.453991
    outer loop
      vertex 12.8883 -2.5 10.0481
      vertex 13.492 -7.55 8.86332
      vertex 12.8883 -7.55 10.0481
    endloop
  endfacet
  facet normal -0.987688 -3.47355e-017 -0.156435
    outer loop
      vertex 13.7 -2.5 7.55
      vertex 13.7 -7.55 7.55
      vertex 13.492 -2.5 8.86332
    endloop
  endfacet
  facet normal -0.987688 -3.47355e-017 -0.156435
    outer loop
      vertex 13.492 -2.5 8.86332
      vertex 13.7 -7.55 7.55
      vertex 13.492 -7.55 8.86332
    endloop
  endfacet
  facet normal -0.987688 3.47355e-017 0.156435
    outer loop
      vertex 13.7 -2.5 7.55
      vertex 13.492 -2.5 6.23668
      vertex 13.7 -7.55 7.55
    endloop
  endfacet
  facet normal -0.987688 3.47355e-017 0.156435
    outer loop
      vertex 13.7 -7.55 7.55
      vertex 13.492 -2.5 6.23668
      vertex 13.492 -7.55 6.23668
    endloop
  endfacet
  facet normal -0.891006 1.00806e-016 0.453991
    outer loop
      vertex 13.492 -2.5 6.23668
      vertex 12.8883 -2.5 5.05191
      vertex 13.492 -7.55 6.23668
    endloop
  endfacet
  facet normal -0.891006 1.00806e-016 0.453991
    outer loop
      vertex 13.492 -7.55 6.23668
      vertex 12.8883 -2.5 5.05191
      vertex 12.8883 -7.55 5.05191
    endloop
  endfacet
  facet normal -0.707107 1.57009e-016 0.707107
    outer loop
      vertex 12.8883 -2.5 5.05191
      vertex 11.9481 -2.5 4.11168
      vertex 12.8883 -7.55 5.05191
    endloop
  endfacet
  facet normal -0.707107 1.57009e-016 0.707107
    outer loop
      vertex 12.8883 -7.55 5.05191
      vertex 11.9481 -2.5 4.11168
      vertex 11.9481 -7.55 4.11168
    endloop
  endfacet
  facet normal -0.453991 1.97843e-016 0.891006
    outer loop
      vertex 11.9481 -7.55 4.11168
      vertex 11.9481 -2.5 4.11168
      vertex 10.7633 -2.5 3.50801
    endloop
  endfacet
  facet normal -0.453991 1.97843e-016 0.891006
    outer loop
      vertex 10.7633 -7.55 3.50801
      vertex 11.9481 -7.55 4.11168
      vertex 10.7633 -2.5 3.50801
    endloop
  endfacet
  facet normal -0.156435 2.19311e-016 0.987688
    outer loop
      vertex 10.7633 -7.55 3.50801
      vertex 10.7633 -2.5 3.50801
      vertex 9.45 -2.5 3.3
    endloop
  endfacet
  facet normal -0.156435 2.19311e-016 0.987688
    outer loop
      vertex 9.45 -7.55 3.3
      vertex 10.7633 -7.55 3.50801
      vertex 9.45 -2.5 3.3
    endloop
  endfacet
  facet normal 0.156435 2.19311e-016 0.987688
    outer loop
      vertex 9.45 -7.55 3.3
      vertex 9.45 -2.5 3.3
      vertex 8.13668 -2.5 3.50801
    endloop
  endfacet
  facet normal 0.156435 2.19311e-016 0.987688
    outer loop
      vertex 8.13668 -7.55 3.50801
      vertex 9.45 -7.55 3.3
      vertex 8.13668 -2.5 3.50801
    endloop
  endfacet
  facet normal 0.453991 1.97843e-016 0.891006
    outer loop
      vertex 8.13668 -7.55 3.50801
      vertex 8.13668 -2.5 3.50801
      vertex 6.95191 -2.5 4.11168
    endloop
  endfacet
  facet normal 0.453991 1.97843e-016 0.891006
    outer loop
      vertex 6.95191 -7.55 4.11168
      vertex 8.13668 -7.55 3.50801
      vertex 6.95191 -2.5 4.11168
    endloop
  endfacet
  facet normal 0.707107 1.57009e-016 0.707107
    outer loop
      vertex 6.95191 -7.55 4.11168
      vertex 6.95191 -2.5 4.11168
      vertex 6.01168 -2.5 5.05191
    endloop
  endfacet
  facet normal 0.707107 1.57009e-016 0.707107
    outer loop
      vertex 6.01168 -7.55 5.05191
      vertex 6.95191 -7.55 4.11168
      vertex 6.01168 -2.5 5.05191
    endloop
  endfacet
  facet normal 6.28997e-032 2.22045e-016 1
    outer loop
      vertex 14.225 7.55 15.1
      vertex 6.675 7.55 15.1
      vertex 9.95 7.55 15.1
    endloop
  endfacet
  facet normal 6.28997e-032 2.22045e-016 1
    outer loop
      vertex 9.95 2.5 15.1
      vertex 14.225 2.5 15.1
      vertex 9.95 7.55 15.1
    endloop
  endfacet
  facet normal 6.28997e-032 2.22045e-016 1
    outer loop
      vertex 14.225 2.5 15.1
      vertex 14.225 7.55 15.1
      vertex 9.95 7.55 15.1
    endloop
  endfacet
  facet normal 0.806974 -9.74586e-017 0.590588
    outer loop
      vertex 14.225 7.55 15.1
      vertex 14.225 2.5 15.1
      vertex 16.04 2.5 12.62
    endloop
  endfacet
  facet normal 0.806974 -9.74586e-017 0.590588
    outer loop
      vertex 16.04 7.55 12.62
      vertex 14.225 7.55 15.1
      vertex 16.04 2.5 12.62
    endloop
  endfacet
  facet normal 0.730527 -5.53093e-017 0.682884
    outer loop
      vertex 16.04 7.55 12.62
      vertex 16.04 2.5 12.62
      vertex 16.126 2.5 12.528
    endloop
  endfacet
  facet normal 0.730527 -5.53093e-017 0.682884
    outer loop
      vertex 16.126 7.55 12.528
      vertex 16.04 7.55 12.62
      vertex 16.126 2.5 12.528
    endloop
  endfacet
  facet normal 0.772514 -7.78358e-017 0.634998
    outer loop
      vertex 16.126 7.55 12.528
      vertex 16.126 2.5 12.528
      vertex 16.44 2.5 12.146
    endloop
  endfacet
  facet normal 0.772514 -7.78358e-017 0.634998
    outer loop
      vertex 16.44 7.55 12.146
      vertex 16.126 7.55 12.528
      vertex 16.44 2.5 12.146
    endloop
  endfacet
  facet normal 0.812225 -1.00555e-016 0.583344
    outer loop
      vertex 16.44 7.55 12.146
      vertex 16.44 2.5 12.146
      vertex 16.728 2.5 11.745
    endloop
  endfacet
  facet normal 0.812225 -1.00555e-016 0.583344
    outer loop
      vertex 16.728 7.55 11.745
      vertex 16.44 7.55 12.146
      vertex 16.728 2.5 11.745
    endloop
  endfacet
  facet normal 0.850265 -1.23985e-016 0.526355
    outer loop
      vertex 16.728 7.55 11.745
      vertex 16.728 2.5 11.745
      vertex 16.988 2.5 11.325
    endloop
  endfacet
  facet normal 0.850265 -1.23985e-016 0.526355
    outer loop
      vertex 16.988 7.55 11.325
      vertex 16.728 7.55 11.745
      vertex 16.988 2.5 11.325
    endloop
  endfacet
  facet normal 0.881961 -1.45183e-016 0.471323
    outer loop
      vertex 16.988 7.55 11.325
      vertex 16.988 2.5 11.325
      vertex 17.221 2.5 10.889
    endloop
  endfacet
  facet normal 0.881961 -1.45183e-016 0.471323
    outer loop
      vertex 17.221 7.55 10.889
      vertex 16.988 7.55 11.325
      vertex 17.221 2.5 10.889
    endloop
  endfacet
  facet normal 0.910782 -1.66322e-016 0.412888
    outer loop
      vertex 17.221 7.55 10.889
      vertex 17.221 2.5 10.889
      vertex 17.425 2.5 10.439
    endloop
  endfacet
  facet normal 0.910782 -1.66322e-016 0.412888
    outer loop
      vertex 17.425 7.55 10.439
      vertex 17.221 7.55 10.889
      vertex 17.425 2.5 10.439
    endloop
  endfacet
  facet normal 0.935829 -1.86836e-016 0.352455
    outer loop
      vertex 17.425 7.55 10.439
      vertex 17.425 2.5 10.439
      vertex 17.599 2.5 9.977
    endloop
  endfacet
  facet normal 0.935829 -1.86836e-016 0.352455
    outer loop
      vertex 17.599 7.55 9.977
      vertex 17.425 7.55 10.439
      vertex 17.599 2.5 9.977
    endloop
  endfacet
  facet normal 0.956649 -2.06326e-016 0.291242
    outer loop
      vertex 17.599 7.55 9.977
      vertex 17.599 2.5 9.977
      vertex 17.743 2.5 9.504
    endloop
  endfacet
  facet normal 0.956649 -2.06326e-016 0.291242
    outer loop
      vertex 17.743 7.55 9.504
      vertex 17.599 7.55 9.977
      vertex 17.743 2.5 9.504
    endloop
  endfacet
  facet normal 0.973946 -2.25539e-016 0.226782
    outer loop
      vertex 17.743 7.55 9.504
      vertex 17.743 2.5 9.504
      vertex 17.855 2.5 9.023
    endloop
  endfacet
  facet normal 0.973946 -2.25539e-016 0.226782
    outer loop
      vertex 17.855 7.55 9.023
      vertex 17.743 7.55 9.504
      vertex 17.855 2.5 9.023
    endloop
  endfacet
  facet normal 0.986828 -2.43622e-016 0.161775
    outer loop
      vertex 17.855 7.55 9.023
      vertex 17.855 2.5 9.023
      vertex 17.935 2.5 8.535
    endloop
  endfacet
  facet normal 0.986828 -2.43622e-016 0.161775
    outer loop
      vertex 17.935 7.55 8.535
      vertex 17.855 7.55 9.023
      vertex 17.935 2.5 8.535
    endloop
  endfacet
  facet normal 0.995057 -2.59825e-016 0.0993031
    outer loop
      vertex 17.935 7.55 8.535
      vertex 17.935 2.5 8.535
      vertex 17.984 2.5 8.044
    endloop
  endfacet
  facet normal 0.995057 -2.59825e-016 0.0993031
    outer loop
      vertex 17.984 7.55 8.044
      vertex 17.935 7.55 8.535
      vertex 17.984 2.5 8.044
    endloop
  endfacet
  facet normal 0.999476 -2.75938e-016 0.0323717
    outer loop
      vertex 17.984 7.55 8.044
      vertex 17.984 2.5 8.044
      vertex 18 2.5 7.55
    endloop
  endfacet
  facet normal 0.999476 -2.75938e-016 0.0323717
    outer loop
      vertex 18 7.55 7.55
      vertex 17.984 7.55 8.044
      vertex 18 2.5 7.55
    endloop
  endfacet
  facet normal 0.999476 -2.90314e-016 -0.0323717
    outer loop
      vertex 18 2.5 7.55
      vertex 17.984 2.5 7.056
      vertex 17.984 7.55 7.056
    endloop
  endfacet
  facet normal 0.999476 -2.90314e-016 -0.0323717
    outer loop
      vertex 18 7.55 7.55
      vertex 18 2.5 7.55
      vertex 17.984 7.55 7.056
    endloop
  endfacet
  facet normal 0.995057 -3.03924e-016 -0.0993031
    outer loop
      vertex 17.984 2.5 7.056
      vertex 17.935 2.5 6.565
      vertex 17.935 7.55 6.565
    endloop
  endfacet
  facet normal 0.995057 -3.03924e-016 -0.0993031
    outer loop
      vertex 17.984 7.55 7.056
      vertex 17.984 2.5 7.056
      vertex 17.935 7.55 6.565
    endloop
  endfacet
  facet normal 0.986828 -3.15465e-016 -0.161775
    outer loop
      vertex 17.935 2.5 6.565
      vertex 17.855 2.5 6.077
      vertex 17.855 7.55 6.077
    endloop
  endfacet
  facet normal 0.986828 -3.15465e-016 -0.161775
    outer loop
      vertex 17.935 7.55 6.565
      vertex 17.935 2.5 6.565
      vertex 17.855 7.55 6.077
    endloop
  endfacet
  facet normal 0.973946 -3.2625e-016 -0.226782
    outer loop
      vertex 17.855 2.5 6.077
      vertex 17.743 2.5 5.596
      vertex 17.743 7.55 5.596
    endloop
  endfacet
  facet normal 0.973946 -3.2625e-016 -0.226782
    outer loop
      vertex 17.855 7.55 6.077
      vertex 17.855 2.5 6.077
      vertex 17.743 7.55 5.596
    endloop
  endfacet
  facet normal 0.956649 -3.35664e-016 -0.291242
    outer loop
      vertex 17.743 2.5 5.596
      vertex 17.599 2.5 5.123
      vertex 17.599 7.55 5.123
    endloop
  endfacet
  facet normal 0.956649 -3.35664e-016 -0.291242
    outer loop
      vertex 17.743 7.55 5.596
      vertex 17.743 2.5 5.596
      vertex 17.599 7.55 5.123
    endloop
  endfacet
  facet normal 0.935829 -3.43358e-016 -0.352455
    outer loop
      vertex 17.599 2.5 5.123
      vertex 17.425 2.5 4.661
      vertex 17.425 7.55 4.661
    endloop
  endfacet
  facet normal 0.935829 -3.43358e-016 -0.352455
    outer loop
      vertex 17.599 7.55 5.123
      vertex 17.599 2.5 5.123
      vertex 17.425 7.55 4.661
    endloop
  endfacet
  facet normal 0.910782 -3.49681e-016 -0.412888
    outer loop
      vertex 17.425 2.5 4.661
      vertex 17.221 2.5 4.211
      vertex 17.221 7.55 4.211
    endloop
  endfacet
  facet normal 0.910782 -3.49681e-016 -0.412888
    outer loop
      vertex 17.425 7.55 4.661
      vertex 17.425 2.5 4.661
      vertex 17.221 7.55 4.211
    endloop
  endfacet
  facet normal 0.881961 -3.54492e-016 -0.471323
    outer loop
      vertex 17.221 2.5 4.211
      vertex 16.988 2.5 3.775
      vertex 16.988 7.55 3.775
    endloop
  endfacet
  facet normal 0.881961 -3.54492e-016 -0.471323
    outer loop
      vertex 17.221 7.55 4.211
      vertex 17.221 2.5 4.211
      vertex 16.988 7.55 3.775
    endloop
  endfacet
  facet normal 0.850265 -3.57733e-016 -0.526355
    outer loop
      vertex 16.988 2.5 3.775
      vertex 16.728 2.5 3.355
      vertex 16.728 7.55 3.355
    endloop
  endfacet
  facet normal 0.850265 -3.57733e-016 -0.526355
    outer loop
      vertex 16.988 7.55 3.775
      vertex 16.988 2.5 3.775
      vertex 16.728 7.55 3.355
    endloop
  endfacet
  facet normal 0.812225 -3.59611e-016 -0.583344
    outer loop
      vertex 16.728 2.5 3.355
      vertex 16.44 2.5 2.954
      vertex 16.44 7.55 2.954
    endloop
  endfacet
  facet normal 0.812225 -3.59611e-016 -0.583344
    outer loop
      vertex 16.728 7.55 3.355
      vertex 16.728 2.5 3.355
      vertex 16.44 7.55 2.954
    endloop
  endfacet
  facet normal 0.772514 -3.59832e-016 -0.634998
    outer loop
      vertex 16.44 2.5 2.954
      vertex 16.126 2.5 2.572
      vertex 16.126 7.55 2.572
    endloop
  endfacet
  facet normal 0.772514 -3.59832e-016 -0.634998
    outer loop
      vertex 16.44 7.55 2.954
      vertex 16.44 2.5 2.954
      vertex 16.126 7.55 2.572
    endloop
  endfacet
  facet normal 0.730527 -3.58571e-016 -0.682884
    outer loop
      vertex 16.126 2.5 2.572
      vertex 16.04 2.5 2.48
      vertex 16.04 7.55 2.48
    endloop
  endfacet
  facet normal 0.730527 -3.58571e-016 -0.682884
    outer loop
      vertex 16.126 7.55 2.572
      vertex 16.126 2.5 2.572
      vertex 16.04 7.55 2.48
    endloop
  endfacet
  facet normal 0.806974 -3.59732e-016 -0.590588
    outer loop
      vertex 16.04 2.5 2.48
      vertex 14.225 2.5 -2.23155e-015
      vertex 14.225 7.55 -3.35287e-015
    endloop
  endfacet
  facet normal 0.806974 -3.59732e-016 -0.590588
    outer loop
      vertex 16.04 7.55 2.48
      vertex 16.04 2.5 2.48
      vertex 14.225 7.55 -3.35287e-015
    endloop
  endfacet
  facet normal -6.28997e-032 -2.22045e-016 -1
    outer loop
      vertex 6.675 2.5 -2.23155e-015
      vertex 6.675 7.55 -3.35287e-015
      vertex 14.225 2.5 -2.23155e-015
    endloop
  endfacet
  facet normal -6.28997e-032 -2.22045e-016 -1
    outer loop
      vertex 14.225 2.5 -2.23155e-015
      vertex 6.675 7.55 -3.35287e-015
      vertex 14.225 7.55 -3.35287e-015
    endloop
  endfacet
  facet normal 0.987688 3.47355e-017 0.156435
    outer loop
      vertex 5.40801 2.5 6.23668
      vertex 5.40801 7.55 6.23668
      vertex 5.2 7.55 7.55
    endloop
  endfacet
  facet normal 0.987688 3.47355e-017 0.156435
    outer loop
      vertex 5.2 2.5 7.55
      vertex 5.40801 2.5 6.23668
      vertex 5.2 7.55 7.55
    endloop
  endfacet
  facet normal 0.987688 -3.47355e-017 -0.156435
    outer loop
      vertex 5.2 7.55 7.55
      vertex 5.40801 7.55 8.86332
      vertex 5.40801 2.5 8.86332
    endloop
  endfacet
  facet normal 0.987688 -3.47355e-017 -0.156435
    outer loop
      vertex 5.2 2.5 7.55
      vertex 5.2 7.55 7.55
      vertex 5.40801 2.5 8.86332
    endloop
  endfacet
  facet normal 0.891006 1.00806e-016 0.453991
    outer loop
      vertex 6.01168 2.5 5.05191
      vertex 6.01168 7.55 5.05191
      vertex 5.456 7.55 6.14249
    endloop
  endfacet
  facet normal 0.891006 1.00806e-016 0.453991
    outer loop
      vertex 5.40801 7.55 6.23668
      vertex 6.01168 2.5 5.05191
      vertex 5.456 7.55 6.14249
    endloop
  endfacet
  facet normal 0.891006 1.00806e-016 0.453991
    outer loop
      vertex 5.40801 7.55 6.23668
      vertex 5.40801 2.5 6.23668
      vertex 6.01168 2.5 5.05191
    endloop
  endfacet
  facet normal 0.707107 1.57009e-016 0.707107
    outer loop
      vertex 6.95191 2.5 4.11168
      vertex 6.95191 7.55 4.11168
      vertex 6.01168 7.55 5.05191
    endloop
  endfacet
  facet normal 0.707107 1.57009e-016 0.707107
    outer loop
      vertex 6.01168 2.5 5.05191
      vertex 6.95191 2.5 4.11168
      vertex 6.01168 7.55 5.05191
    endloop
  endfacet
  facet normal 0.453991 1.97843e-016 0.891006
    outer loop
      vertex 8.13668 2.5 3.50801
      vertex 8.13668 7.55 3.50801
      vertex 6.95191 7.55 4.11168
    endloop
  endfacet
  facet normal 0.453991 1.97843e-016 0.891006
    outer loop
      vertex 6.95191 2.5 4.11168
      vertex 8.13668 2.5 3.50801
      vertex 6.95191 7.55 4.11168
    endloop
  endfacet
  facet normal 0.156435 2.19311e-016 0.987688
    outer loop
      vertex 9.45 2.5 3.3
      vertex 9.45 7.55 3.3
      vertex 8.13668 7.55 3.50801
    endloop
  endfacet
  facet normal 0.156435 2.19311e-016 0.987688
    outer loop
      vertex 8.13668 2.5 3.50801
      vertex 9.45 2.5 3.3
      vertex 8.13668 7.55 3.50801
    endloop
  endfacet
  facet normal -0.156435 2.19311e-016 0.987688
    outer loop
      vertex 10.7633 2.5 3.50801
      vertex 10.7633 7.55 3.50801
      vertex 9.95 7.55 3.37919
    endloop
  endfacet
  facet normal -0.156435 2.19311e-016 0.987688
    outer loop
      vertex 9.45 7.55 3.3
      vertex 10.7633 2.5 3.50801
      vertex 9.95 7.55 3.37919
    endloop
  endfacet
  facet normal -0.156435 2.19311e-016 0.987688
    outer loop
      vertex 9.45 7.55 3.3
      vertex 9.45 2.5 3.3
      vertex 10.7633 2.5 3.50801
    endloop
  endfacet
  facet normal -0.453991 1.97843e-016 0.891006
    outer loop
      vertex 11.9481 2.5 4.11168
      vertex 11.9481 7.55 4.11168
      vertex 10.7633 7.55 3.50801
    endloop
  endfacet
  facet normal -0.453991 1.97843e-016 0.891006
    outer loop
      vertex 10.7633 2.5 3.50801
      vertex 11.9481 2.5 4.11168
      vertex 10.7633 7.55 3.50801
    endloop
  endfacet
  facet normal -0.707107 1.57009e-016 0.707107
    outer loop
      vertex 12.8883 7.55 5.05191
      vertex 11.9481 7.55 4.11168
      vertex 12.8883 2.5 5.05191
    endloop
  endfacet
  facet normal -0.707107 1.57009e-016 0.707107
    outer loop
      vertex 12.8883 2.5 5.05191
      vertex 11.9481 7.55 4.11168
      vertex 11.9481 2.5 4.11168
    endloop
  endfacet
  facet normal -0.891006 1.00806e-016 0.453991
    outer loop
      vertex 13.492 7.55 6.23668
      vertex 12.8883 7.55 5.05191
      vertex 13.492 2.5 6.23668
    endloop
  endfacet
  facet normal -0.891006 1.00806e-016 0.453991
    outer loop
      vertex 13.492 2.5 6.23668
      vertex 12.8883 7.55 5.05191
      vertex 12.8883 2.5 5.05191
    endloop
  endfacet
  facet normal -0.987688 3.47355e-017 0.156435
    outer loop
      vertex 13.7 7.55 7.55
      vertex 13.492 7.55 6.23668
      vertex 13.7 2.5 7.55
    endloop
  endfacet
  facet normal -0.987688 3.47355e-017 0.156435
    outer loop
      vertex 13.7 2.5 7.55
      vertex 13.492 7.55 6.23668
      vertex 13.492 2.5 6.23668
    endloop
  endfacet
  facet normal -0.987688 -3.47355e-017 -0.156435
    outer loop
      vertex 13.7 7.55 7.55
      vertex 13.7 2.5 7.55
      vertex 13.492 7.55 8.86332
    endloop
  endfacet
  facet normal -0.987688 -3.47355e-017 -0.156435
    outer loop
      vertex 13.492 7.55 8.86332
      vertex 13.7 2.5 7.55
      vertex 13.492 2.5 8.86332
    endloop
  endfacet
  facet normal -0.891006 -1.00806e-016 -0.453991
    outer loop
      vertex 13.492 7.55 8.86332
      vertex 13.492 2.5 8.86332
      vertex 12.8883 7.55 10.0481
    endloop
  endfacet
  facet normal -0.891006 -1.00806e-016 -0.453991
    outer loop
      vertex 12.8883 7.55 10.0481
      vertex 13.492 2.5 8.86332
      vertex 12.8883 2.5 10.0481
    endloop
  endfacet
  facet normal -0.707107 -1.57009e-016 -0.707107
    outer loop
      vertex 12.8883 7.55 10.0481
      vertex 12.8883 2.5 10.0481
      vertex 11.9481 7.55 10.9883
    endloop
  endfacet
  facet normal -0.707107 -1.57009e-016 -0.707107
    outer loop
      vertex 11.9481 7.55 10.9883
      vertex 12.8883 2.5 10.0481
      vertex 11.9481 2.5 10.9883
    endloop
  endfacet
  facet normal -0.453991 -1.97843e-016 -0.891006
    outer loop
      vertex 11.9481 7.55 10.9883
      vertex 11.9481 2.5 10.9883
      vertex 10.7633 7.55 11.592
    endloop
  endfacet
  facet normal -0.453991 -1.97843e-016 -0.891006
    outer loop
      vertex 10.7633 7.55 11.592
      vertex 11.9481 2.5 10.9883
      vertex 10.7633 2.5 11.592
    endloop
  endfacet
  facet normal -0.156435 -2.19311e-016 -0.987688
    outer loop
      vertex 9.84197 7.55 11.7379
      vertex 10.7633 2.5 11.592
      vertex 9.45 7.55 11.8
    endloop
  endfacet
  facet normal -0.156435 -2.19311e-016 -0.987688
    outer loop
      vertex 9.95 7.55 11.7208
      vertex 10.7633 7.55 11.592
      vertex 10.7633 2.5 11.592
    endloop
  endfacet
  facet normal -0.156435 -2.19311e-016 -0.987688
    outer loop
      vertex 9.95 7.55 11.7208
      vertex 10.7633 2.5 11.592
      vertex 9.84197 7.55 11.7379
    endloop
  endfacet
  facet normal -0.156435 -2.19311e-016 -0.987688
    outer loop
      vertex 10.7633 2.5 11.592
      vertex 9.45 2.5 11.8
      vertex 9.45 7.55 11.8
    endloop
  endfacet
  facet normal 0.156435 -2.19311e-016 -0.987688
    outer loop
      vertex 9.45 7.55 11.8
      vertex 9.45 2.5 11.8
      vertex 8.13668 7.55 11.592
    endloop
  endfacet
  facet normal 0.156435 -2.19311e-016 -0.987688
    outer loop
      vertex 8.13668 7.55 11.592
      vertex 9.45 2.5 11.8
      vertex 8.13668 2.5 11.592
    endloop
  endfacet
  facet normal 0.453991 -1.97843e-016 -0.891006
    outer loop
      vertex 8.13668 7.55 11.592
      vertex 8.13668 2.5 11.592
      vertex 6.95191 7.55 10.9883
    endloop
  endfacet
  facet normal 0.453991 -1.97843e-016 -0.891006
    outer loop
      vertex 6.95191 7.55 10.9883
      vertex 8.13668 2.5 11.592
      vertex 6.95191 2.5 10.9883
    endloop
  endfacet
  facet normal 0.707107 -1.57009e-016 -0.707107
    outer loop
      vertex 6.01168 7.55 10.0481
      vertex 6.95191 7.55 10.9883
      vertex 6.95191 2.5 10.9883
    endloop
  endfacet
  facet normal 0.707107 -1.57009e-016 -0.707107
    outer loop
      vertex 6.01168 2.5 10.0481
      vertex 6.01168 7.55 10.0481
      vertex 6.95191 2.5 10.9883
    endloop
  endfacet
  facet normal 0.891006 -1.00806e-016 -0.453991
    outer loop
      vertex 5.40801 7.55 8.86332
      vertex 6.01168 7.55 10.0481
      vertex 6.01168 2.5 10.0481
    endloop
  endfacet
  facet normal 0.891006 -1.00806e-016 -0.453991
    outer loop
      vertex 5.40801 2.5 8.86332
      vertex 5.40801 7.55 8.86332
      vertex 6.01168 2.5 10.0481
    endloop
  endfacet
  facet normal 0 1 0
    outer loop
      vertex 9.95 7.55 11.7208
      vertex 9.84197 7.55 11.7379
      vertex 9.95 7.55 11.8757
    endloop
  endfacet
endsolid OpenSCAD_Model
