solid OpenSCAD_Model
  facet normal 0 0 -1
    outer loop
      vertex -7.75 0 0
      vertex -7.37069 2.39488 0
      vertex -7.37069 -2.39488 0
    endloop
  endfacet
  facet normal 0 0 -1
    outer loop
      vertex -7.37069 -2.39488 0
      vertex -7.37069 2.39488 0
      vertex -6.26988 4.55534 0
    endloop
  endfacet
  facet normal 0 0 -1
    outer loop
      vertex -7.37069 -2.39488 0
      vertex -6.26988 4.55534 0
      vertex -4.55534 6.26988 0
    endloop
  endfacet
  facet normal 0 0 -1
    outer loop
      vertex -7.37069 -2.39488 0
      vertex -4.55534 6.26988 0
      vertex -2.39488 7.37069 0
    endloop
  endfacet
  facet normal 0 0 -1
    outer loop
      vertex -7.37069 -2.39488 0
      vertex -2.39488 7.37069 0
      vertex 0 7.75 0
    endloop
  endfacet
  facet normal 0 0 -1
    outer loop
      vertex 6.375 7.75 0
      vertex 0 7.75 0
      vertex 9.75 7.75 0
    endloop
  endfacet
  facet normal 0 0 -1
    outer loop
      vertex 6.375 2.5 0
      vertex 3.4089 2.86041 0
      vertex 2.225 3.85381 0
    endloop
  endfacet
  facet normal 0 0 -1
    outer loop
      vertex 0.772734 4.38239 0
      vertex 0 7.75 0
      vertex 6.375 7.75 0
    endloop
  endfacet
  facet normal 0 0 -1
    outer loop
      vertex 6.375 2.5 0
      vertex 3.61698 2.5 0
      vertex 3.4089 2.86041 0
    endloop
  endfacet
  facet normal 0 0 -1
    outer loop
      vertex 0.772734 4.38239 0
      vertex 6.375 7.75 0
      vertex 2.225 3.85381 0
    endloop
  endfacet
  facet normal 0 0 -1
    outer loop
      vertex -0.772734 4.38239 0
      vertex 0 7.75 0
      vertex 0.772734 4.38239 0
    endloop
  endfacet
  facet normal 0 0 -1
    outer loop
      vertex -4.45 0 0
      vertex -7.37069 -2.39488 0
      vertex -4.18163 1.52199 0
    endloop
  endfacet
  facet normal 0 0 -1
    outer loop
      vertex -2.225 3.85381 0
      vertex 0 7.75 0
      vertex -0.772734 4.38239 0
    endloop
  endfacet
  facet normal 0 0 -1
    outer loop
      vertex -3.4089 2.86041 0
      vertex 0 7.75 0
      vertex -2.225 3.85381 0
    endloop
  endfacet
  facet normal 0 0 -1
    outer loop
      vertex -7.37069 -2.39488 0
      vertex 0 7.75 0
      vertex -3.4089 2.86041 0
    endloop
  endfacet
  facet normal 0 0 -1
    outer loop
      vertex -7.37069 -2.39488 0
      vertex -3.4089 2.86041 0
      vertex -4.18163 1.52199 0
    endloop
  endfacet
  facet normal 0 0 -1
    outer loop
      vertex -4.18163 -1.52199 0
      vertex -7.37069 -2.39488 0
      vertex -4.45 0 0
    endloop
  endfacet
  facet normal 0 0 -1
    outer loop
      vertex 6.375 -2.5 0
      vertex 3.4089 -2.86041 0
      vertex 3.61698 -2.5 0
    endloop
  endfacet
  facet normal 0 0 -1
    outer loop
      vertex -7.37069 -2.39488 0
      vertex -4.18163 -1.52199 0
      vertex -3.4089 -2.86041 0
    endloop
  endfacet
  facet normal 0 0 -1
    outer loop
      vertex -3.4089 -2.86041 0
      vertex -2.225 -3.85381 0
      vertex -7.37069 -2.39488 0
    endloop
  endfacet
  facet normal 0 0 -1
    outer loop
      vertex -2.225 -3.85381 0
      vertex -0.772734 -4.38239 0
      vertex -7.37069 -2.39488 0
    endloop
  endfacet
  facet normal 0 0 -1
    outer loop
      vertex -0.772734 -4.38239 0
      vertex 6.375 -7.75 0
      vertex -7.37069 -2.39488 0
    endloop
  endfacet
  facet normal 0 0 -1
    outer loop
      vertex 2.225 -3.85381 0
      vertex 6.375 -2.5 0
      vertex 0.772734 -4.38239 0
    endloop
  endfacet
  facet normal 0 0 -1
    outer loop
      vertex 3.4089 -2.86041 0
      vertex 6.375 -2.5 0
      vertex 2.225 -3.85381 0
    endloop
  endfacet
  facet normal 0 0 -1
    outer loop
      vertex 0.772734 -4.38239 0
      vertex 6.375 -2.5 0
      vertex 6.375 -7.75 0
    endloop
  endfacet
  facet normal 0 0 -1
    outer loop
      vertex 0.772734 -4.38239 0
      vertex 6.375 -7.75 0
      vertex -0.772734 -4.38239 0
    endloop
  endfacet
  facet normal 0 0 -1
    outer loop
      vertex -7.37069 -2.39488 0
      vertex 6.375 -7.75 0
      vertex 0 -7.75 0
    endloop
  endfacet
  facet normal 0 0 -1
    outer loop
      vertex -7.37069 -2.39488 0
      vertex 0 -7.75 0
      vertex -2.39488 -7.37069 0
    endloop
  endfacet
  facet normal 0 0 -1
    outer loop
      vertex -7.37069 -2.39488 0
      vertex -2.39488 -7.37069 0
      vertex -4.55534 -6.26988 0
    endloop
  endfacet
  facet normal 0 0 -1
    outer loop
      vertex -7.37069 -2.39488 0
      vertex -4.55534 -6.26988 0
      vertex -6.26988 -4.55534 0
    endloop
  endfacet
  facet normal 0 0 -1
    outer loop
      vertex 6.375 2.5 0
      vertex 2.225 3.85381 0
      vertex 6.375 7.75 0
    endloop
  endfacet
  facet normal -0.987688 0.156434 0
    outer loop
      vertex -7.75 0 0
      vertex -7.75 0 15.5
      vertex -7.37069 2.39488 0
    endloop
  endfacet
  facet normal -0.987688 0.156434 0
    outer loop
      vertex -7.37069 2.39488 0
      vertex -7.75 0 15.5
      vertex -7.37069 2.39488 15.5
    endloop
  endfacet
  facet normal -0.987688 -0.156434 0
    outer loop
      vertex -7.75 0 0
      vertex -7.37069 -2.39488 0
      vertex -7.75 0 15.5
    endloop
  endfacet
  facet normal -0.987688 -0.156434 0
    outer loop
      vertex -7.75 0 15.5
      vertex -7.37069 -2.39488 0
      vertex -7.37069 -2.39488 15.5
    endloop
  endfacet
  facet normal -0.891007 -0.45399 0
    outer loop
      vertex -7.37069 -2.39488 0
      vertex -6.26988 -4.55534 0
      vertex -7.37069 -2.39488 15.5
    endloop
  endfacet
  facet normal -0.891007 -0.45399 0
    outer loop
      vertex -7.37069 -2.39488 15.5
      vertex -6.26988 -4.55534 0
      vertex -6.26988 -4.55534 15.5
    endloop
  endfacet
  facet normal -0.707107 -0.707107 0
    outer loop
      vertex -6.26988 -4.55534 15.5
      vertex -6.26988 -4.55534 0
      vertex -4.55534 -6.26988 0
    endloop
  endfacet
  facet normal -0.707107 -0.707107 0
    outer loop
      vertex -4.55534 -6.26988 15.5
      vertex -6.26988 -4.55534 15.5
      vertex -4.55534 -6.26988 0
    endloop
  endfacet
  facet normal -0.45399 -0.891007 0
    outer loop
      vertex -4.55534 -6.26988 15.5
      vertex -4.55534 -6.26988 0
      vertex -2.39488 -7.37069 0
    endloop
  endfacet
  facet normal -0.45399 -0.891007 0
    outer loop
      vertex -2.39488 -7.37069 15.5
      vertex -4.55534 -6.26988 15.5
      vertex -2.39488 -7.37069 0
    endloop
  endfacet
  facet normal -0.156434 -0.987688 0
    outer loop
      vertex -2.39488 -7.37069 15.5
      vertex -2.39488 -7.37069 0
      vertex 0 -7.75 0
    endloop
  endfacet
  facet normal -0.156434 -0.987688 0
    outer loop
      vertex 0 -7.75 15.5
      vertex -2.39488 -7.37069 15.5
      vertex 0 -7.75 0
    endloop
  endfacet
  facet normal 0 -1 0
    outer loop
      vertex 4.51 -7.75 2.547
      vertex 0 -7.75 0
      vertex 6.375 -7.75 0
    endloop
  endfacet
  facet normal 0 -1 0
    outer loop
      vertex 4.423 -7.75 2.64
      vertex 0 -7.75 0
      vertex 4.51 -7.75 2.547
    endloop
  endfacet
  facet normal 0 -1 0
    outer loop
      vertex 4.102 -7.75 3.032
      vertex 0 -7.75 0
      vertex 4.423 -7.75 2.64
    endloop
  endfacet
  facet normal 0 -1 0
    outer loop
      vertex 3.806 -7.75 3.444
      vertex 0 -7.75 0
      vertex 4.102 -7.75 3.032
    endloop
  endfacet
  facet normal 0 -1 0
    outer loop
      vertex 3.538 -7.75 3.875
      vertex 0 -7.75 0
      vertex 3.806 -7.75 3.444
    endloop
  endfacet
  facet normal 0 -1 0
    outer loop
      vertex 3.45035 -7.75 4.03893
      vertex 0 -7.75 0
      vertex 3.538 -7.75 3.875
    endloop
  endfacet
  facet normal 0 -1 0
    outer loop
      vertex 0 -7.75 15.5
      vertex 0 -7.75 0
      vertex 3.45035 -7.75 4.03893
    endloop
  endfacet
  facet normal 0 -1 0
    outer loop
      vertex 5.0178 -7.75 6.37487
      vertex 0 -7.75 15.5
      vertex 5.12164 -7.75 6.17108
    endloop
  endfacet
  facet normal 0 -1 0
    outer loop
      vertex 4.8 -7.75 7.75
      vertex 0 -7.75 15.5
      vertex 5.0178 -7.75 6.37487
    endloop
  endfacet
  facet normal 0 -1 0
    outer loop
      vertex 5.0178 -7.75 9.12513
      vertex 0 -7.75 15.5
      vertex 4.8 -7.75 7.75
    endloop
  endfacet
  facet normal 0 -1 0
    outer loop
      vertex 5.64987 -7.75 10.3656
      vertex 0 -7.75 15.5
      vertex 5.0178 -7.75 9.12513
    endloop
  endfacet
  facet normal 0 -1 0
    outer loop
      vertex 6.63436 -7.75 11.3501
      vertex 0 -7.75 15.5
      vertex 5.64987 -7.75 10.3656
    endloop
  endfacet
  facet normal 0 -1 0
    outer loop
      vertex 7.87487 -7.75 11.9822
      vertex 0 -7.75 15.5
      vertex 6.63436 -7.75 11.3501
    endloop
  endfacet
  facet normal 0 -1 0
    outer loop
      vertex 9.25 -7.75 12.2
      vertex 0 -7.75 15.5
      vertex 7.87487 -7.75 11.9822
    endloop
  endfacet
  facet normal 0 -1 0
    outer loop
      vertex 9.75 -7.75 12.1208
      vertex 0 -7.75 15.5
      vertex 9.25 -7.75 12.2
    endloop
  endfacet
  facet normal 0 -1 0
    outer loop
      vertex 9.75 -7.75 15.5
      vertex 0 -7.75 15.5
      vertex 9.75 -7.75 12.1208
    endloop
  endfacet
  facet normal 0 -1 0
    outer loop
      vertex 3.45035 -7.75 4.03893
      vertex 5.12164 -7.75 6.17108
      vertex 0 -7.75 15.5
    endloop
  endfacet
  facet normal -0.806828 9.73731e-017 -0.590787
    outer loop
      vertex 6.375 -7.75 0
      vertex 6.375 -2.5 0
      vertex 6.375 -2.5 -1.16573e-015
    endloop
  endfacet
  facet normal 0 1 0
    outer loop
      vertex 15.99 -2.5 12.953
      vertex 9.75 -2.5 15.5
      vertex 14.125 -2.5 15.5
    endloop
  endfacet
  facet normal 0 1 0
    outer loop
      vertex 3.61698 -2.5 15.5
      vertex 9.75 -2.5 15.5
      vertex 15.99 -2.5 12.953
    endloop
  endfacet
  facet normal 0 1 0
    outer loop
      vertex 3.61698 -2.5 15.5
      vertex 15.99 -2.5 12.953
      vertex 16.077 -2.5 12.86
    endloop
  endfacet
  facet normal 0 1 0
    outer loop
      vertex 16.077 -2.5 12.86
      vertex 16.398 -2.5 12.468
      vertex 3.61698 -2.5 15.5
    endloop
  endfacet
  facet normal 0 1 0
    outer loop
      vertex 3.61698 -2.5 15.5
      vertex 16.398 -2.5 12.468
      vertex 16.694 -2.5 12.056
    endloop
  endfacet
  facet normal 0 1 0
    outer loop
      vertex 3.61698 -2.5 15.5
      vertex 16.694 -2.5 12.056
      vertex 16.962 -2.5 11.625
    endloop
  endfacet
  facet normal 0 1 0
    outer loop
      vertex 3.61698 -2.5 15.5
      vertex 16.962 -2.5 11.625
      vertex 17.201 -2.5 11.178
    endloop
  endfacet
  facet normal 0 1 0
    outer loop
      vertex 3.61698 -2.5 15.5
      vertex 17.201 -2.5 11.178
      vertex 17.41 -2.5 10.716
    endloop
  endfacet
  facet normal 0 1 0
    outer loop
      vertex 3.61698 -2.5 15.5
      vertex 17.41 -2.5 10.716
      vertex 17.589 -2.5 10.241
    endloop
  endfacet
  facet normal 0 1 0
    outer loop
      vertex 3.61698 -2.5 15.5
      vertex 17.589 -2.5 10.241
      vertex 17.736 -2.5 9.756
    endloop
  endfacet
  facet normal 0 1 0
    outer loop
      vertex 3.61698 -2.5 15.5
      vertex 17.736 -2.5 9.756
      vertex 17.851 -2.5 9.262
    endloop
  endfacet
  facet normal 0 1 0
    outer loop
      vertex 3.61698 -2.5 15.5
      vertex 17.851 -2.5 9.262
      vertex 17.934 -2.5 8.762
    endloop
  endfacet
  facet normal 0 1 0
    outer loop
      vertex 11.8656 -2.5 11.3501
      vertex 17.934 -2.5 8.762
      vertex 17.983 -2.5 8.257
    endloop
  endfacet
  facet normal 0 1 0
    outer loop
      vertex 12.8501 -2.5 10.3656
      vertex 18 -2.5 7.75
      vertex 17.983 -2.5 7.243
    endloop
  endfacet
  facet normal 0 1 0
    outer loop
      vertex 13.4822 -2.5 9.12513
      vertex 17.934 -2.5 6.738
      vertex 17.851 -2.5 6.238
    endloop
  endfacet
  facet normal 0 1 0
    outer loop
      vertex 12.8501 -2.5 10.3656
      vertex 17.934 -2.5 6.738
      vertex 13.4822 -2.5 9.12513
    endloop
  endfacet
  facet normal 0 1 0
    outer loop
      vertex 13.7 -2.5 7.75
      vertex 17.589 -2.5 5.259
      vertex 17.41 -2.5 4.784
    endloop
  endfacet
  facet normal 0 1 0
    outer loop
      vertex 13.4822 -2.5 9.12513
      vertex 17.736 -2.5 5.744
      vertex 17.589 -2.5 5.259
    endloop
  endfacet
  facet normal 0 1 0
    outer loop
      vertex 13.4822 -2.5 6.37487
      vertex 16.694 -2.5 3.444
      vertex 16.398 -2.5 3.032
    endloop
  endfacet
  facet normal 0 1 0
    outer loop
      vertex 13.7 -2.5 7.75
      vertex 17.201 -2.5 4.322
      vertex 16.962 -2.5 3.875
    endloop
  endfacet
  facet normal 0 1 0
    outer loop
      vertex 13.7 -2.5 7.75
      vertex 16.962 -2.5 3.875
      vertex 16.694 -2.5 3.444
    endloop
  endfacet
  facet normal 0 1 0
    outer loop
      vertex 11.8656 -2.5 4.14987
      vertex 15.99 -2.5 2.547
      vertex 14.125 -2.5 -1.16573e-015
    endloop
  endfacet
  facet normal 0 1 0
    outer loop
      vertex 6.63436 -2.5 4.14987
      vertex 14.125 -2.5 -1.16573e-015
      vertex 6.375 -2.5 -1.16573e-015
    endloop
  endfacet
  facet normal 0 1 0
    outer loop
      vertex 5.0178 -2.5 6.37487
      vertex 6.375 -2.5 0
      vertex 3.61698 -2.5 0
    endloop
  endfacet
  facet normal 0 1 0
    outer loop
      vertex 13.4822 -2.5 6.37487
      vertex 15.99 -2.5 2.547
      vertex 12.8501 -2.5 5.13436
    endloop
  endfacet
  facet normal 0 1 0
    outer loop
      vertex 4.8 -2.5 7.75
      vertex 5.0178 -2.5 6.37487
      vertex 3.61698 -2.5 0
    endloop
  endfacet
  facet normal 0 1 0
    outer loop
      vertex 11.8656 -2.5 4.14987
      vertex 14.125 -2.5 -1.16573e-015
      vertex 10.6251 -2.5 3.5178
    endloop
  endfacet
  facet normal 0 1 0
    outer loop
      vertex 9.25 -2.5 3.3
      vertex 14.125 -2.5 -1.16573e-015
      vertex 7.87487 -2.5 3.5178
    endloop
  endfacet
  facet normal 0 1 0
    outer loop
      vertex 7.87487 -2.5 3.5178
      vertex 14.125 -2.5 -1.16573e-015
      vertex 6.63436 -2.5 4.14987
    endloop
  endfacet
  facet normal 0 1 0
    outer loop
      vertex 5.64987 -2.5 5.13436
      vertex 6.63436 -2.5 4.14987
      vertex 6.375 -2.5 -1.16573e-015
    endloop
  endfacet
  facet normal 0 1 0
    outer loop
      vertex 10.6251 -2.5 3.5178
      vertex 14.125 -2.5 -1.16573e-015
      vertex 9.25 -2.5 3.3
    endloop
  endfacet
  facet normal 0 1 0
    outer loop
      vertex 13.4822 -2.5 6.37487
      vertex 16.077 -2.5 2.64
      vertex 15.99 -2.5 2.547
    endloop
  endfacet
  facet normal 0 1 0
    outer loop
      vertex 12.8501 -2.5 5.13436
      vertex 15.99 -2.5 2.547
      vertex 11.8656 -2.5 4.14987
    endloop
  endfacet
  facet normal 0 1 0
    outer loop
      vertex 13.4822 -2.5 6.37487
      vertex 16.398 -2.5 3.032
      vertex 16.077 -2.5 2.64
    endloop
  endfacet
  facet normal 0 1 0
    outer loop
      vertex 13.7 -2.5 7.75
      vertex 16.694 -2.5 3.444
      vertex 13.4822 -2.5 6.37487
    endloop
  endfacet
  facet normal 0 1 0
    outer loop
      vertex 13.7 -2.5 7.75
      vertex 17.41 -2.5 4.784
      vertex 17.201 -2.5 4.322
    endloop
  endfacet
  facet normal 0 1 0
    outer loop
      vertex 7.87487 -2.5 11.9822
      vertex 3.61698 -2.5 15.5
      vertex 9.25 -2.5 12.2
    endloop
  endfacet
  facet normal 0 1 0
    outer loop
      vertex 13.4822 -2.5 9.12513
      vertex 17.851 -2.5 6.238
      vertex 17.736 -2.5 5.744
    endloop
  endfacet
  facet normal 0 1 0
    outer loop
      vertex 12.8501 -2.5 10.3656
      vertex 17.983 -2.5 7.243
      vertex 17.934 -2.5 6.738
    endloop
  endfacet
  facet normal 0 1 0
    outer loop
      vertex 11.8656 -2.5 11.3501
      vertex 17.983 -2.5 8.257
      vertex 18 -2.5 7.75
    endloop
  endfacet
  facet normal 0 1 0
    outer loop
      vertex 10.6251 -2.5 11.9822
      vertex 17.934 -2.5 8.762
      vertex 11.8656 -2.5 11.3501
    endloop
  endfacet
  facet normal 0 1 0
    outer loop
      vertex 9.25 -2.5 12.2
      vertex 3.61698 -2.5 15.5
      vertex 10.6251 -2.5 11.9822
    endloop
  endfacet
  facet normal 0 1 0
    outer loop
      vertex 3.61698 -2.5 15.5
      vertex 17.934 -2.5 8.762
      vertex 10.6251 -2.5 11.9822
    endloop
  endfacet
  facet normal 0 1 0
    outer loop
      vertex 11.8656 -2.5 11.3501
      vertex 18 -2.5 7.75
      vertex 12.8501 -2.5 10.3656
    endloop
  endfacet
  facet normal 0 1 0
    outer loop
      vertex 13.4822 -2.5 9.12513
      vertex 17.589 -2.5 5.259
      vertex 13.7 -2.5 7.75
    endloop
  endfacet
  facet normal 0 1 0
    outer loop
      vertex 5.64987 -2.5 10.3656
      vertex 3.61698 -2.5 15.5
      vertex 6.63436 -2.5 11.3501
    endloop
  endfacet
  facet normal 0 1 0
    outer loop
      vertex 4.8 -2.5 7.75
      vertex 3.61698 -2.5 15.5
      vertex 5.0178 -2.5 9.12513
    endloop
  endfacet
  facet normal 0 1 0
    outer loop
      vertex 3.61698 -2.5 15.5
      vertex 5.64987 -2.5 10.3656
      vertex 5.0178 -2.5 9.12513
    endloop
  endfacet
  facet normal 0 1 0
    outer loop
      vertex 3.61698 -2.5 15.5
      vertex 4.8 -2.5 7.75
      vertex 3.61698 -2.5 0
    endloop
  endfacet
  facet normal 0 1 0
    outer loop
      vertex 5.64987 -2.5 5.13436
      vertex 6.375 -2.5 -1.16573e-015
      vertex 6.375 -2.5 0
    endloop
  endfacet
  facet normal 0 1 0
    outer loop
      vertex 5.64987 -2.5 5.13436
      vertex 6.375 -2.5 0
      vertex 5.0178 -2.5 6.37487
    endloop
  endfacet
  facet normal 0 1 0
    outer loop
      vertex 6.63436 -2.5 11.3501
      vertex 3.61698 -2.5 15.5
      vertex 7.87487 -2.5 11.9822
    endloop
  endfacet
  facet normal -0.866025 0.5 0
    outer loop
      vertex 3.61698 -2.5 15.5
      vertex 3.61698 -2.5 0
      vertex 3.4089 -2.86041 15.5
    endloop
  endfacet
  facet normal -0.866025 0.5 0
    outer loop
      vertex 3.4089 -2.86041 15.5
      vertex 3.61698 -2.5 0
      vertex 3.4089 -2.86041 0
    endloop
  endfacet
  facet normal -0.642787 0.766045 0
    outer loop
      vertex 3.4089 -2.86041 15.5
      vertex 3.4089 -2.86041 0
      vertex 2.225 -3.85381 15.5
    endloop
  endfacet
  facet normal -0.642787 0.766045 0
    outer loop
      vertex 2.225 -3.85381 15.5
      vertex 3.4089 -2.86041 0
      vertex 2.225 -3.85381 0
    endloop
  endfacet
  facet normal -0.34202 0.939693 0
    outer loop
      vertex 2.225 -3.85381 15.5
      vertex 2.225 -3.85381 0
      vertex 0.772734 -4.38239 15.5
    endloop
  endfacet
  facet normal -0.34202 0.939693 0
    outer loop
      vertex 0.772734 -4.38239 15.5
      vertex 2.225 -3.85381 0
      vertex 0.772734 -4.38239 0
    endloop
  endfacet
  facet normal 0 1 0
    outer loop
      vertex 0.772734 -4.38239 15.5
      vertex 0.772734 -4.38239 0
      vertex -0.772734 -4.38239 15.5
    endloop
  endfacet
  facet normal 0 1 0
    outer loop
      vertex -0.772734 -4.38239 15.5
      vertex 0.772734 -4.38239 0
      vertex -0.772734 -4.38239 0
    endloop
  endfacet
  facet normal 0.34202 0.939693 0
    outer loop
      vertex -0.772734 -4.38239 15.5
      vertex -0.772734 -4.38239 0
      vertex -2.225 -3.85381 15.5
    endloop
  endfacet
  facet normal 0.34202 0.939693 0
    outer loop
      vertex -2.225 -3.85381 15.5
      vertex -0.772734 -4.38239 0
      vertex -2.225 -3.85381 0
    endloop
  endfacet
  facet normal 0.642787 0.766045 0
    outer loop
      vertex -2.225 -3.85381 15.5
      vertex -2.225 -3.85381 0
      vertex -3.4089 -2.86041 15.5
    endloop
  endfacet
  facet normal 0.642787 0.766045 0
    outer loop
      vertex -3.4089 -2.86041 15.5
      vertex -2.225 -3.85381 0
      vertex -3.4089 -2.86041 0
    endloop
  endfacet
  facet normal 0.866025 0.5 0
    outer loop
      vertex -4.18163 -1.52199 15.5
      vertex -3.4089 -2.86041 15.5
      vertex -3.4089 -2.86041 0
    endloop
  endfacet
  facet normal 0.866025 0.5 0
    outer loop
      vertex -4.18163 -1.52199 0
      vertex -4.18163 -1.52199 15.5
      vertex -3.4089 -2.86041 0
    endloop
  endfacet
  facet normal 0.984808 0.173648 0
    outer loop
      vertex -4.45 0 15.5
      vertex -4.18163 -1.52199 15.5
      vertex -4.18163 -1.52199 0
    endloop
  endfacet
  facet normal 0.984808 0.173648 0
    outer loop
      vertex -4.45 0 0
      vertex -4.45 0 15.5
      vertex -4.18163 -1.52199 0
    endloop
  endfacet
  facet normal 0.984808 -0.173648 0
    outer loop
      vertex -4.18163 1.52199 0
      vertex -4.18163 1.52199 15.5
      vertex -4.45 0 15.5
    endloop
  endfacet
  facet normal 0.984808 -0.173648 0
    outer loop
      vertex -4.45 0 0
      vertex -4.18163 1.52199 0
      vertex -4.45 0 15.5
    endloop
  endfacet
  facet normal 0.866025 -0.5 0
    outer loop
      vertex -3.4089 2.86041 0
      vertex -3.4089 2.86041 15.5
      vertex -4.18163 1.52199 15.5
    endloop
  endfacet
  facet normal 0.866025 -0.5 0
    outer loop
      vertex -4.18163 1.52199 0
      vertex -3.4089 2.86041 0
      vertex -4.18163 1.52199 15.5
    endloop
  endfacet
  facet normal 0.642787 -0.766045 0
    outer loop
      vertex -2.225 3.85381 0
      vertex -2.225 3.85381 15.5
      vertex -3.4089 2.86041 15.5
    endloop
  endfacet
  facet normal 0.642787 -0.766045 0
    outer loop
      vertex -3.4089 2.86041 0
      vertex -2.225 3.85381 0
      vertex -3.4089 2.86041 15.5
    endloop
  endfacet
  facet normal 0.34202 -0.939693 0
    outer loop
      vertex -0.772734 4.38239 0
      vertex -0.772734 4.38239 15.5
      vertex -2.225 3.85381 15.5
    endloop
  endfacet
  facet normal 0.34202 -0.939693 0
    outer loop
      vertex -2.225 3.85381 0
      vertex -0.772734 4.38239 0
      vertex -2.225 3.85381 15.5
    endloop
  endfacet
  facet normal 0 -1 0
    outer loop
      vertex 0.772734 4.38239 0
      vertex 0.772734 4.38239 15.5
      vertex -0.772734 4.38239 15.5
    endloop
  endfacet
  facet normal 0 -1 0
    outer loop
      vertex -0.772734 4.38239 0
      vertex 0.772734 4.38239 0
      vertex -0.772734 4.38239 15.5
    endloop
  endfacet
  facet normal -0.34202 -0.939693 0
    outer loop
      vertex 2.225 3.85381 0
      vertex 2.225 3.85381 15.5
      vertex 0.772734 4.38239 15.5
    endloop
  endfacet
  facet normal -0.34202 -0.939693 0
    outer loop
      vertex 0.772734 4.38239 0
      vertex 2.225 3.85381 0
      vertex 0.772734 4.38239 15.5
    endloop
  endfacet
  facet normal -0.642787 -0.766045 0
    outer loop
      vertex 3.4089 2.86041 0
      vertex 3.4089 2.86041 15.5
      vertex 2.225 3.85381 15.5
    endloop
  endfacet
  facet normal -0.642787 -0.766045 0
    outer loop
      vertex 2.225 3.85381 0
      vertex 3.4089 2.86041 0
      vertex 2.225 3.85381 15.5
    endloop
  endfacet
  facet normal -0.866025 -0.5 0
    outer loop
      vertex 3.61698 2.5 15.5
      vertex 3.4089 2.86041 15.5
      vertex 3.61698 2.5 0
    endloop
  endfacet
  facet normal -0.866025 -0.5 0
    outer loop
      vertex 3.61698 2.5 0
      vertex 3.4089 2.86041 15.5
      vertex 3.4089 2.86041 0
    endloop
  endfacet
  facet normal 0 -1 0
    outer loop
      vertex 6.375 2.5 0
      vertex 6.375 2.5 -2.27596e-015
      vertex 14.125 2.5 -2.27596e-015
    endloop
  endfacet
  facet normal 0 -1 0
    outer loop
      vertex 16.077 2.5 2.64
      vertex 6.375 2.5 0
      vertex 15.99 2.5 2.547
    endloop
  endfacet
  facet normal 0 -1 0
    outer loop
      vertex 15.99 2.5 2.547
      vertex 6.375 2.5 0
      vertex 14.125 2.5 -2.27596e-015
    endloop
  endfacet
  facet normal 0 -1 0
    outer loop
      vertex 16.398 2.5 3.032
      vertex 6.375 2.5 0
      vertex 16.077 2.5 2.64
    endloop
  endfacet
  facet normal 0 -1 0
    outer loop
      vertex 16.694 2.5 3.444
      vertex 6.375 2.5 0
      vertex 16.398 2.5 3.032
    endloop
  endfacet
  facet normal 0 -1 0
    outer loop
      vertex 16.962 2.5 3.875
      vertex 6.375 2.5 0
      vertex 16.694 2.5 3.444
    endloop
  endfacet
  facet normal 0 -1 0
    outer loop
      vertex 17.201 2.5 4.322
      vertex 6.375 2.5 0
      vertex 16.962 2.5 3.875
    endloop
  endfacet
  facet normal 0 -1 0
    outer loop
      vertex 17.41 2.5 4.784
      vertex 6.375 2.5 0
      vertex 17.201 2.5 4.322
    endloop
  endfacet
  facet normal 0 -1 0
    outer loop
      vertex 17.589 2.5 5.259
      vertex 6.375 2.5 0
      vertex 17.41 2.5 4.784
    endloop
  endfacet
  facet normal 0 -1 0
    outer loop
      vertex 17.736 2.5 5.744
      vertex 6.375 2.5 0
      vertex 17.589 2.5 5.259
    endloop
  endfacet
  facet normal 0 -1 0
    outer loop
      vertex 17.851 2.5 6.238
      vertex 6.375 2.5 0
      vertex 17.736 2.5 5.744
    endloop
  endfacet
  facet normal 0 -1 0
    outer loop
      vertex 17.934 2.5 6.738
      vertex 6.375 2.5 0
      vertex 17.851 2.5 6.238
    endloop
  endfacet
  facet normal 0 -1 0
    outer loop
      vertex 17.983 2.5 7.243
      vertex 6.375 2.5 0
      vertex 17.934 2.5 6.738
    endloop
  endfacet
  facet normal 0 -1 0
    outer loop
      vertex 18 2.5 7.75
      vertex 6.375 2.5 0
      vertex 17.983 2.5 7.243
    endloop
  endfacet
  facet normal 0 -1 0
    outer loop
      vertex 17.983 2.5 8.257
      vertex 6.375 2.5 0
      vertex 18 2.5 7.75
    endloop
  endfacet
  facet normal 0 -1 0
    outer loop
      vertex 11.8656 2.5 4.14987
      vertex 6.375 2.5 0
      vertex 17.983 2.5 8.257
    endloop
  endfacet
  facet normal 0 -1 0
    outer loop
      vertex 11.8656 2.5 4.14987
      vertex 10.6251 2.5 3.5178
      vertex 6.375 2.5 0
    endloop
  endfacet
  facet normal 0 -1 0
    outer loop
      vertex 12.8501 2.5 5.13436
      vertex 11.8656 2.5 4.14987
      vertex 17.934 2.5 8.762
    endloop
  endfacet
  facet normal 0 -1 0
    outer loop
      vertex 13.4822 2.5 6.37487
      vertex 17.851 2.5 9.262
      vertex 17.736 2.5 9.756
    endloop
  endfacet
  facet normal 0 -1 0
    outer loop
      vertex 13.7 2.5 7.75
      vertex 17.41 2.5 10.716
      vertex 17.201 2.5 11.178
    endloop
  endfacet
  facet normal 0 -1 0
    outer loop
      vertex 13.4822 2.5 6.37487
      vertex 12.8501 2.5 5.13436
      vertex 17.851 2.5 9.262
    endloop
  endfacet
  facet normal 0 -1 0
    outer loop
      vertex 7.87487 2.5 3.5178
      vertex 6.63436 2.5 4.14987
      vertex 6.375 2.5 0
    endloop
  endfacet
  facet normal 0 -1 0
    outer loop
      vertex 12.8501 2.5 10.3656
      vertex 16.077 2.5 12.86
      vertex 15.99 2.5 12.953
    endloop
  endfacet
  facet normal 0 -1 0
    outer loop
      vertex 11.8656 2.5 11.3501
      vertex 12.8501 2.5 10.3656
      vertex 14.125 2.5 15.5
    endloop
  endfacet
  facet normal 0 -1 0
    outer loop
      vertex 12.8501 2.5 10.3656
      vertex 13.4822 2.5 9.12513
      vertex 16.077 2.5 12.86
    endloop
  endfacet
  facet normal 0 -1 0
    outer loop
      vertex 6.63436 2.5 11.3501
      vertex 7.87487 2.5 11.9822
      vertex 9.75 2.5 15.5
    endloop
  endfacet
  facet normal 0 -1 0
    outer loop
      vertex 3.61698 2.5 0
      vertex 4.8 2.5 7.75
      vertex 3.61698 2.5 15.5
    endloop
  endfacet
  facet normal 0 -1 0
    outer loop
      vertex 3.61698 2.5 15.5
      vertex 5.64987 2.5 10.3656
      vertex 9.75 2.5 15.5
    endloop
  endfacet
  facet normal 0 -1 0
    outer loop
      vertex 3.61698 2.5 15.5
      vertex 5.0178 2.5 9.12513
      vertex 5.64987 2.5 10.3656
    endloop
  endfacet
  facet normal 0 -1 0
    outer loop
      vertex 5.64987 2.5 10.3656
      vertex 6.63436 2.5 11.3501
      vertex 9.75 2.5 15.5
    endloop
  endfacet
  facet normal 0 -1 0
    outer loop
      vertex 9.75 2.5 15.5
      vertex 9.25 2.5 12.2
      vertex 14.125 2.5 15.5
    endloop
  endfacet
  facet normal 0 -1 0
    outer loop
      vertex 9.25 2.5 12.2
      vertex 10.6251 2.5 11.9822
      vertex 14.125 2.5 15.5
    endloop
  endfacet
  facet normal 0 -1 0
    outer loop
      vertex 5.64987 2.5 5.13436
      vertex 5.0178 2.5 6.37487
      vertex 6.375 2.5 0
    endloop
  endfacet
  facet normal 0 -1 0
    outer loop
      vertex 10.6251 2.5 11.9822
      vertex 11.8656 2.5 11.3501
      vertex 14.125 2.5 15.5
    endloop
  endfacet
  facet normal 0 -1 0
    outer loop
      vertex 14.125 2.5 15.5
      vertex 12.8501 2.5 10.3656
      vertex 15.99 2.5 12.953
    endloop
  endfacet
  facet normal 0 -1 0
    outer loop
      vertex 16.077 2.5 12.86
      vertex 13.4822 2.5 9.12513
      vertex 16.398 2.5 12.468
    endloop
  endfacet
  facet normal 0 -1 0
    outer loop
      vertex 16.962 2.5 11.625
      vertex 13.7 2.5 7.75
      vertex 17.201 2.5 11.178
    endloop
  endfacet
  facet normal 0 -1 0
    outer loop
      vertex 17.589 2.5 10.241
      vertex 13.4822 2.5 6.37487
      vertex 17.736 2.5 9.756
    endloop
  endfacet
  facet normal 0 -1 0
    outer loop
      vertex 17.851 2.5 9.262
      vertex 12.8501 2.5 5.13436
      vertex 17.934 2.5 8.762
    endloop
  endfacet
  facet normal 0 -1 0
    outer loop
      vertex 17.934 2.5 8.762
      vertex 11.8656 2.5 4.14987
      vertex 17.983 2.5 8.257
    endloop
  endfacet
  facet normal 0 -1 0
    outer loop
      vertex 10.6251 2.5 3.5178
      vertex 9.25 2.5 3.3
      vertex 6.375 2.5 0
    endloop
  endfacet
  facet normal 0 -1 0
    outer loop
      vertex 9.25 2.5 3.3
      vertex 7.87487 2.5 3.5178
      vertex 6.375 2.5 0
    endloop
  endfacet
  facet normal 0 -1 0
    outer loop
      vertex 13.7 2.5 7.75
      vertex 17.589 2.5 10.241
      vertex 17.41 2.5 10.716
    endloop
  endfacet
  facet normal 0 -1 0
    outer loop
      vertex 13.7 2.5 7.75
      vertex 13.4822 2.5 6.37487
      vertex 17.589 2.5 10.241
    endloop
  endfacet
  facet normal 0 -1 0
    outer loop
      vertex 5.64987 2.5 5.13436
      vertex 6.375 2.5 0
      vertex 6.63436 2.5 4.14987
    endloop
  endfacet
  facet normal 0 -1 0
    outer loop
      vertex 3.61698 2.5 0
      vertex 5.0178 2.5 6.37487
      vertex 4.8 2.5 7.75
    endloop
  endfacet
  facet normal 0 -1 0
    outer loop
      vertex 3.61698 2.5 0
      vertex 6.375 2.5 0
      vertex 5.0178 2.5 6.37487
    endloop
  endfacet
  facet normal 0 -1 0
    outer loop
      vertex 4.8 2.5 7.75
      vertex 5.0178 2.5 9.12513
      vertex 3.61698 2.5 15.5
    endloop
  endfacet
  facet normal 0 -1 0
    outer loop
      vertex 7.87487 2.5 11.9822
      vertex 9.25 2.5 12.2
      vertex 9.75 2.5 15.5
    endloop
  endfacet
  facet normal 0 -1 0
    outer loop
      vertex 13.4822 2.5 9.12513
      vertex 16.694 2.5 12.056
      vertex 16.398 2.5 12.468
    endloop
  endfacet
  facet normal 0 -1 0
    outer loop
      vertex 13.4822 2.5 9.12513
      vertex 16.962 2.5 11.625
      vertex 16.694 2.5 12.056
    endloop
  endfacet
  facet normal 0 -1 0
    outer loop
      vertex 13.4822 2.5 9.12513
      vertex 13.7 2.5 7.75
      vertex 16.962 2.5 11.625
    endloop
  endfacet
  facet normal -0.806828 9.73731e-017 -0.590787
    outer loop
      vertex 6.375 2.5 0
      vertex 6.375 7.75 0
      vertex 6.375 2.5 -2.27596e-015
    endloop
  endfacet
  facet normal -0.806828 9.73731e-017 -0.590787
    outer loop
      vertex 6.375 2.5 -2.27596e-015
      vertex 6.375 7.75 0
      vertex 6.375 7.75 -3.44169e-015
    endloop
  endfacet
  facet normal 2.83275e-016 1 -2.22045e-016
    outer loop
      vertex 2.5 7.75 7.75
      vertex 2.517 7.75 8.257
      vertex 2.517 7.75 7.243
    endloop
  endfacet
  facet normal 2.83275e-016 1 -2.22045e-016
    outer loop
      vertex 2.517 7.75 7.243
      vertex 2.517 7.75 8.257
      vertex 2.566 7.75 8.762
    endloop
  endfacet
  facet normal 2.83275e-016 1 -2.22045e-016
    outer loop
      vertex 2.517 7.75 7.243
      vertex 2.566 7.75 8.762
      vertex 2.649 7.75 9.262
    endloop
  endfacet
  facet normal 2.83275e-016 1 -2.22045e-016
    outer loop
      vertex 2.517 7.75 7.243
      vertex 2.649 7.75 9.262
      vertex 2.764 7.75 9.756
    endloop
  endfacet
  facet normal 2.83275e-016 1 -2.22045e-016
    outer loop
      vertex 2.517 7.75 7.243
      vertex 2.764 7.75 9.756
      vertex 2.911 7.75 10.241
    endloop
  endfacet
  facet normal 2.83275e-016 1 -2.22045e-016
    outer loop
      vertex 2.517 7.75 7.243
      vertex 2.911 7.75 10.241
      vertex 3.09 7.75 10.716
    endloop
  endfacet
  facet normal 2.83275e-016 1 -2.22045e-016
    outer loop
      vertex 2.517 7.75 7.243
      vertex 3.09 7.75 10.716
      vertex 3.299 7.75 11.178
    endloop
  endfacet
  facet normal 2.83275e-016 1 -2.22045e-016
    outer loop
      vertex 2.517 7.75 7.243
      vertex 3.299 7.75 11.178
      vertex 3.538 7.75 11.625
    endloop
  endfacet
  facet normal 2.83275e-016 1 -2.22045e-016
    outer loop
      vertex 2.517 7.75 7.243
      vertex 3.538 7.75 11.625
      vertex 3.806 7.75 12.056
    endloop
  endfacet
  facet normal 2.83275e-016 1 -2.22045e-016
    outer loop
      vertex 2.517 7.75 7.243
      vertex 3.806 7.75 12.056
      vertex 4.102 7.75 12.468
    endloop
  endfacet
  facet normal 2.83275e-016 1 -2.22045e-016
    outer loop
      vertex 2.517 7.75 7.243
      vertex 4.102 7.75 12.468
      vertex 4.423 7.75 12.86
    endloop
  endfacet
  facet normal 2.83275e-016 1 -2.22045e-016
    outer loop
      vertex 2.517 7.75 7.243
      vertex 4.423 7.75 12.86
      vertex 4.51 7.75 12.953
    endloop
  endfacet
  facet normal 2.83275e-016 1 -2.22045e-016
    outer loop
      vertex 2.517 7.75 7.243
      vertex 4.51 7.75 12.953
      vertex 6.375 7.75 15.5
    endloop
  endfacet
  facet normal 2.83275e-016 1 -2.22045e-016
    outer loop
      vertex 9.25 7.75 12.2
      vertex 6.375 7.75 15.5
      vertex 14.125 7.75 15.5
    endloop
  endfacet
  facet normal 2.83275e-016 1 -2.22045e-016
    outer loop
      vertex 11.8656 7.75 11.3501
      vertex 14.125 7.75 15.5
      vertex 15.99 7.75 12.953
    endloop
  endfacet
  facet normal 2.83275e-016 1 -2.22045e-016
    outer loop
      vertex 12.8501 7.75 10.3656
      vertex 16.962 7.75 11.625
      vertex 17.201 7.75 11.178
    endloop
  endfacet
  facet normal 2.83275e-016 1 -2.22045e-016
    outer loop
      vertex 11.8656 7.75 11.3501
      vertex 16.077 7.75 12.86
      vertex 16.398 7.75 12.468
    endloop
  endfacet
  facet normal 2.83275e-016 1 -2.22045e-016
    outer loop
      vertex 11.8656 7.75 11.3501
      vertex 16.694 7.75 12.056
      vertex 16.962 7.75 11.625
    endloop
  endfacet
  facet normal 2.83275e-016 1 -2.22045e-016
    outer loop
      vertex 13.4822 7.75 9.12513
      vertex 17.589 7.75 10.241
      vertex 17.736 7.75 9.756
    endloop
  endfacet
  facet normal 2.83275e-016 1 -2.22045e-016
    outer loop
      vertex 12.8501 7.75 10.3656
      vertex 17.41 7.75 10.716
      vertex 17.589 7.75 10.241
    endloop
  endfacet
  facet normal 2.83275e-016 1 -2.22045e-016
    outer loop
      vertex 12.8501 7.75 10.3656
      vertex 17.589 7.75 10.241
      vertex 13.4822 7.75 9.12513
    endloop
  endfacet
  facet normal 2.83275e-016 1 -2.22045e-016
    outer loop
      vertex 13.7 7.75 7.75
      vertex 17.983 7.75 8.257
      vertex 18 7.75 7.75
    endloop
  endfacet
  facet normal 2.83275e-016 1 -2.22045e-016
    outer loop
      vertex 13.4822 7.75 9.12513
      vertex 17.851 7.75 9.262
      vertex 17.934 7.75 8.762
    endloop
  endfacet
  facet normal 2.83275e-016 1 -2.22045e-016
    outer loop
      vertex 13.4822 7.75 9.12513
      vertex 17.934 7.75 8.762
      vertex 17.983 7.75 8.257
    endloop
  endfacet
  facet normal 2.83275e-016 1 -2.22045e-016
    outer loop
      vertex 13.4822 7.75 9.12513
      vertex 17.983 7.75 8.257
      vertex 13.7 7.75 7.75
    endloop
  endfacet
  facet normal 2.83275e-016 1 -2.22045e-016
    outer loop
      vertex 13.4822 7.75 6.37487
      vertex 17.851 7.75 6.238
      vertex 17.736 7.75 5.744
    endloop
  endfacet
  facet normal 2.83275e-016 1 -2.22045e-016
    outer loop
      vertex 13.7 7.75 7.75
      vertex 17.983 7.75 7.243
      vertex 17.934 7.75 6.738
    endloop
  endfacet
  facet normal 2.83275e-016 1 -2.22045e-016
    outer loop
      vertex 13.7 7.75 7.75
      vertex 17.934 7.75 6.738
      vertex 17.851 7.75 6.238
    endloop
  endfacet
  facet normal 2.83275e-016 1 -2.22045e-016
    outer loop
      vertex 13.7 7.75 7.75
      vertex 17.851 7.75 6.238
      vertex 13.4822 7.75 6.37487
    endloop
  endfacet
  facet normal 2.83275e-016 1 -2.22045e-016
    outer loop
      vertex 12.8501 7.75 5.13436
      vertex 17.201 7.75 4.322
      vertex 16.962 7.75 3.875
    endloop
  endfacet
  facet normal 2.83275e-016 1 -2.22045e-016
    outer loop
      vertex 13.4822 7.75 6.37487
      vertex 17.589 7.75 5.259
      vertex 17.41 7.75 4.784
    endloop
  endfacet
  facet normal 2.83275e-016 1 -2.22045e-016
    outer loop
      vertex 13.4822 7.75 6.37487
      vertex 17.41 7.75 4.784
      vertex 17.201 7.75 4.322
    endloop
  endfacet
  facet normal 2.83275e-016 1 -2.22045e-016
    outer loop
      vertex 11.8656 7.75 4.14987
      vertex 16.398 7.75 3.032
      vertex 16.077 7.75 2.64
    endloop
  endfacet
  facet normal 2.83275e-016 1 -2.22045e-016
    outer loop
      vertex 12.8501 7.75 5.13436
      vertex 16.398 7.75 3.032
      vertex 11.8656 7.75 4.14987
    endloop
  endfacet
  facet normal 2.83275e-016 1 -2.22045e-016
    outer loop
      vertex 9.75 7.75 3.37919
      vertex 15.99 7.75 2.547
      vertex 14.125 7.75 -3.44169e-015
    endloop
  endfacet
  facet normal 2.83275e-016 1 -2.22045e-016
    outer loop
      vertex 9.75 7.75 0
      vertex 14.125 7.75 -3.44169e-015
      vertex 6.375 7.75 -3.44169e-015
    endloop
  endfacet
  facet normal 2.83275e-016 1 -2.22045e-016
    outer loop
      vertex 11.8656 7.75 4.14987
      vertex 15.99 7.75 2.547
      vertex 10.6251 7.75 3.5178
    endloop
  endfacet
  facet normal 2.83275e-016 1 -2.22045e-016
    outer loop
      vertex 9.75 7.75 3.37919
      vertex 14.125 7.75 -3.44169e-015
      vertex 9.75 7.75 0
    endloop
  endfacet
  facet normal 2.83275e-016 1 -2.22045e-016
    outer loop
      vertex 10.6251 7.75 3.5178
      vertex 15.99 7.75 2.547
      vertex 9.75 7.75 3.37919
    endloop
  endfacet
  facet normal 2.83275e-016 1 -2.22045e-016
    outer loop
      vertex 11.8656 7.75 4.14987
      vertex 16.077 7.75 2.64
      vertex 15.99 7.75 2.547
    endloop
  endfacet
  facet normal 2.83275e-016 1 -2.22045e-016
    outer loop
      vertex 13.4822 7.75 6.37487
      vertex 17.201 7.75 4.322
      vertex 12.8501 7.75 5.13436
    endloop
  endfacet
  facet normal 2.83275e-016 1 -2.22045e-016
    outer loop
      vertex 12.8501 7.75 5.13436
      vertex 16.962 7.75 3.875
      vertex 16.694 7.75 3.444
    endloop
  endfacet
  facet normal 2.83275e-016 1 -2.22045e-016
    outer loop
      vertex 13.4822 7.75 6.37487
      vertex 17.736 7.75 5.744
      vertex 17.589 7.75 5.259
    endloop
  endfacet
  facet normal 2.83275e-016 1 -2.22045e-016
    outer loop
      vertex 13.7 7.75 7.75
      vertex 18 7.75 7.75
      vertex 17.983 7.75 7.243
    endloop
  endfacet
  facet normal 2.83275e-016 1 -2.22045e-016
    outer loop
      vertex 5.0178 7.75 6.37487
      vertex 2.517 7.75 7.243
      vertex 4.8 7.75 7.75
    endloop
  endfacet
  facet normal 2.83275e-016 1 -2.22045e-016
    outer loop
      vertex 13.4822 7.75 9.12513
      vertex 17.736 7.75 9.756
      vertex 17.851 7.75 9.262
    endloop
  endfacet
  facet normal 2.83275e-016 1 -2.22045e-016
    outer loop
      vertex 12.8501 7.75 10.3656
      vertex 17.201 7.75 11.178
      vertex 17.41 7.75 10.716
    endloop
  endfacet
  facet normal 2.83275e-016 1 -2.22045e-016
    outer loop
      vertex 11.8656 7.75 11.3501
      vertex 15.99 7.75 12.953
      vertex 16.077 7.75 12.86
    endloop
  endfacet
  facet normal 2.83275e-016 1 -2.22045e-016
    outer loop
      vertex 10.6251 7.75 11.9822
      vertex 14.125 7.75 15.5
      vertex 11.8656 7.75 11.3501
    endloop
  endfacet
  facet normal 2.83275e-016 1 -2.22045e-016
    outer loop
      vertex 9.25 7.75 12.2
      vertex 14.125 7.75 15.5
      vertex 10.6251 7.75 11.9822
    endloop
  endfacet
  facet normal 2.83275e-016 1 -2.22045e-016
    outer loop
      vertex 7.87487 7.75 11.9822
      vertex 6.375 7.75 15.5
      vertex 9.25 7.75 12.2
    endloop
  endfacet
  facet normal 2.83275e-016 1 -2.22045e-016
    outer loop
      vertex 5.0178 7.75 9.12513
      vertex 2.517 7.75 7.243
      vertex 5.64987 7.75 10.3656
    endloop
  endfacet
  facet normal 2.83275e-016 1 -2.22045e-016
    outer loop
      vertex 6.63436 7.75 11.3501
      vertex 6.375 7.75 15.5
      vertex 7.87487 7.75 11.9822
    endloop
  endfacet
  facet normal 2.83275e-016 1 -2.22045e-016
    outer loop
      vertex 2.517 7.75 7.243
      vertex 6.375 7.75 15.5
      vertex 6.63436 7.75 11.3501
    endloop
  endfacet
  facet normal 2.83275e-016 1 -2.22045e-016
    outer loop
      vertex 2.517 7.75 7.243
      vertex 6.63436 7.75 11.3501
      vertex 5.64987 7.75 10.3656
    endloop
  endfacet
  facet normal 2.83275e-016 1 -2.22045e-016
    outer loop
      vertex 4.8 7.75 7.75
      vertex 2.517 7.75 7.243
      vertex 5.0178 7.75 9.12513
    endloop
  endfacet
  facet normal 2.83275e-016 1 -2.22045e-016
    outer loop
      vertex 11.8656 7.75 11.3501
      vertex 16.398 7.75 12.468
      vertex 16.694 7.75 12.056
    endloop
  endfacet
  facet normal 2.83275e-016 1 -2.22045e-016
    outer loop
      vertex 11.8656 7.75 11.3501
      vertex 16.962 7.75 11.625
      vertex 12.8501 7.75 10.3656
    endloop
  endfacet
  facet normal 2.83275e-016 1 -2.22045e-016
    outer loop
      vertex 12.8501 7.75 5.13436
      vertex 16.694 7.75 3.444
      vertex 16.398 7.75 3.032
    endloop
  endfacet
  facet normal 2.83275e-016 1 -2.22045e-016
    outer loop
      vertex 2.517 7.75 7.243
      vertex 3.45035 7.75 4.03893
      vertex 3.299 7.75 4.322
    endloop
  endfacet
  facet normal 2.83275e-016 1 -2.22045e-016
    outer loop
      vertex 2.517 7.75 7.243
      vertex 3.299 7.75 4.322
      vertex 3.09 7.75 4.784
    endloop
  endfacet
  facet normal 2.83275e-016 1 -2.22045e-016
    outer loop
      vertex 2.517 7.75 7.243
      vertex 3.09 7.75 4.784
      vertex 2.911 7.75 5.259
    endloop
  endfacet
  facet normal 2.83275e-016 1 -2.22045e-016
    outer loop
      vertex 2.517 7.75 7.243
      vertex 2.911 7.75 5.259
      vertex 2.764 7.75 5.744
    endloop
  endfacet
  facet normal 2.83275e-016 1 -2.22045e-016
    outer loop
      vertex 2.517 7.75 7.243
      vertex 2.764 7.75 5.744
      vertex 2.649 7.75 6.238
    endloop
  endfacet
  facet normal 2.83275e-016 1 -2.22045e-016
    outer loop
      vertex 2.517 7.75 7.243
      vertex 2.649 7.75 6.238
      vertex 2.566 7.75 6.738
    endloop
  endfacet
  facet normal 2.83275e-016 1 -2.22045e-016
    outer loop
      vertex 9.75 7.75 0
      vertex 6.375 7.75 -3.44169e-015
      vertex 6.375 7.75 0
    endloop
  endfacet
  facet normal 2.83275e-016 1 -2.22045e-016
    outer loop
      vertex 5.12164 7.75 6.17108
      vertex 2.517 7.75 7.243
      vertex 5.0178 7.75 6.37487
    endloop
  endfacet
  facet normal 2.83275e-016 1 -2.22045e-016
    outer loop
      vertex 3.45035 7.75 4.03893
      vertex 2.517 7.75 7.243
      vertex 5.12164 7.75 6.17108
    endloop
  endfacet
  facet normal 0 1 0
    outer loop
      vertex 2.649 7.75 9.262
      vertex 0 7.75 0
      vertex 2.764 7.75 9.756
    endloop
  endfacet
  facet normal 0 1 0
    outer loop
      vertex 6.375 7.75 15.5
      vertex 0 7.75 15.5
      vertex 9.75 7.75 15.5
    endloop
  endfacet
  facet normal 0 1 0
    outer loop
      vertex 4.51 7.75 12.953
      vertex 0 7.75 15.5
      vertex 6.375 7.75 15.5
    endloop
  endfacet
  facet normal 0 1 0
    outer loop
      vertex 4.423 7.75 12.86
      vertex 0 7.75 15.5
      vertex 4.51 7.75 12.953
    endloop
  endfacet
  facet normal 0 1 0
    outer loop
      vertex 4.102 7.75 12.468
      vertex 0 7.75 15.5
      vertex 4.423 7.75 12.86
    endloop
  endfacet
  facet normal 0 1 0
    outer loop
      vertex 3.806 7.75 12.056
      vertex 0 7.75 15.5
      vertex 4.102 7.75 12.468
    endloop
  endfacet
  facet normal 0 1 0
    outer loop
      vertex 3.538 7.75 11.625
      vertex 0 7.75 15.5
      vertex 3.806 7.75 12.056
    endloop
  endfacet
  facet normal 0 1 0
    outer loop
      vertex 3.299 7.75 11.178
      vertex 0 7.75 15.5
      vertex 3.538 7.75 11.625
    endloop
  endfacet
  facet normal 0 1 0
    outer loop
      vertex 3.09 7.75 10.716
      vertex 0 7.75 15.5
      vertex 3.299 7.75 11.178
    endloop
  endfacet
  facet normal 0 1 0
    outer loop
      vertex 2.764 7.75 9.756
      vertex 0 7.75 15.5
      vertex 2.911 7.75 10.241
    endloop
  endfacet
  facet normal 0 1 0
    outer loop
      vertex 0 7.75 0
      vertex 0 7.75 15.5
      vertex 2.764 7.75 9.756
    endloop
  endfacet
  facet normal 0 1 0
    outer loop
      vertex 6.63436 7.75 4.14987
      vertex 9.75 7.75 0
      vertex 5.64987 7.75 5.13436
    endloop
  endfacet
  facet normal 0 1 0
    outer loop
      vertex 0 7.75 0
      vertex 2.649 7.75 9.262
      vertex 2.566 7.75 8.762
    endloop
  endfacet
  facet normal 0 1 0
    outer loop
      vertex 0 7.75 0
      vertex 2.566 7.75 8.762
      vertex 2.517 7.75 8.257
    endloop
  endfacet
  facet normal 0 1 0
    outer loop
      vertex 0 7.75 0
      vertex 2.517 7.75 8.257
      vertex 2.5 7.75 7.75
    endloop
  endfacet
  facet normal 0 1 0
    outer loop
      vertex 0 7.75 0
      vertex 2.5 7.75 7.75
      vertex 2.517 7.75 7.243
    endloop
  endfacet
  facet normal 0 1 0
    outer loop
      vertex 0 7.75 0
      vertex 2.517 7.75 7.243
      vertex 2.566 7.75 6.738
    endloop
  endfacet
  facet normal 0 1 0
    outer loop
      vertex 0 7.75 0
      vertex 2.566 7.75 6.738
      vertex 2.649 7.75 6.238
    endloop
  endfacet
  facet normal 0 1 0
    outer loop
      vertex 0 7.75 0
      vertex 2.649 7.75 6.238
      vertex 2.764 7.75 5.744
    endloop
  endfacet
  facet normal 0 1 0
    outer loop
      vertex 0 7.75 0
      vertex 2.764 7.75 5.744
      vertex 2.911 7.75 5.259
    endloop
  endfacet
  facet normal 0 1 0
    outer loop
      vertex 0 7.75 0
      vertex 2.911 7.75 5.259
      vertex 3.09 7.75 4.784
    endloop
  endfacet
  facet normal 0 1 0
    outer loop
      vertex 0 7.75 0
      vertex 3.09 7.75 4.784
      vertex 3.299 7.75 4.322
    endloop
  endfacet
  facet normal 0 1 0
    outer loop
      vertex 0 7.75 0
      vertex 3.299 7.75 4.322
      vertex 3.45035 7.75 4.03893
    endloop
  endfacet
  facet normal 0 1 0
    outer loop
      vertex 0 7.75 0
      vertex 3.45035 7.75 4.03893
      vertex 9.75 7.75 0
    endloop
  endfacet
  facet normal 0 1 0
    outer loop
      vertex 7.87487 7.75 3.5178
      vertex 9.75 7.75 0
      vertex 6.63436 7.75 4.14987
    endloop
  endfacet
  facet normal 0 1 0
    outer loop
      vertex 9.25 7.75 3.3
      vertex 9.75 7.75 0
      vertex 7.87487 7.75 3.5178
    endloop
  endfacet
  facet normal 0 1 0
    outer loop
      vertex 9.75 7.75 0
      vertex 9.25 7.75 3.3
      vertex 9.75 7.75 3.37919
    endloop
  endfacet
  facet normal 0 1 0
    outer loop
      vertex 2.911 7.75 10.241
      vertex 0 7.75 15.5
      vertex 3.09 7.75 10.716
    endloop
  endfacet
  facet normal 0 1 0
    outer loop
      vertex 5.64987 7.75 5.13436
      vertex 9.75 7.75 0
      vertex 3.45035 7.75 4.03893
    endloop
  endfacet
  facet normal 0 1 0
    outer loop
      vertex 5.12164 7.75 6.17108
      vertex 5.64987 7.75 5.13436
      vertex 3.45035 7.75 4.03893
    endloop
  endfacet
  facet normal -0.156434 0.987688 0
    outer loop
      vertex -2.39488 7.37069 0
      vertex -2.39488 7.37069 15.5
      vertex 0 7.75 0
    endloop
  endfacet
  facet normal -0.156434 0.987688 0
    outer loop
      vertex 0 7.75 0
      vertex -2.39488 7.37069 15.5
      vertex 0 7.75 15.5
    endloop
  endfacet
  facet normal -0.45399 0.891007 0
    outer loop
      vertex -4.55534 6.26988 0
      vertex -4.55534 6.26988 15.5
      vertex -2.39488 7.37069 0
    endloop
  endfacet
  facet normal -0.45399 0.891007 0
    outer loop
      vertex -2.39488 7.37069 0
      vertex -4.55534 6.26988 15.5
      vertex -2.39488 7.37069 15.5
    endloop
  endfacet
  facet normal -0.707107 0.707107 0
    outer loop
      vertex -6.26988 4.55534 0
      vertex -6.26988 4.55534 15.5
      vertex -4.55534 6.26988 0
    endloop
  endfacet
  facet normal -0.707107 0.707107 0
    outer loop
      vertex -4.55534 6.26988 0
      vertex -6.26988 4.55534 15.5
      vertex -4.55534 6.26988 15.5
    endloop
  endfacet
  facet normal -0.891007 0.45399 0
    outer loop
      vertex -7.37069 2.39488 0
      vertex -7.37069 2.39488 15.5
      vertex -6.26988 4.55534 0
    endloop
  endfacet
  facet normal -0.891007 0.45399 0
    outer loop
      vertex -6.26988 4.55534 0
      vertex -7.37069 2.39488 15.5
      vertex -6.26988 4.55534 15.5
    endloop
  endfacet
  facet normal 0 0 1
    outer loop
      vertex -7.37069 2.39488 15.5
      vertex -7.75 0 15.5
      vertex -7.37069 -2.39488 15.5
    endloop
  endfacet
  facet normal 0 0 1
    outer loop
      vertex -4.55534 -6.26988 15.5
      vertex -7.37069 2.39488 15.5
      vertex -6.26988 -4.55534 15.5
    endloop
  endfacet
  facet normal 0 0 1
    outer loop
      vertex -6.26988 -4.55534 15.5
      vertex -7.37069 2.39488 15.5
      vertex -7.37069 -2.39488 15.5
    endloop
  endfacet
  facet normal 0 0 1
    outer loop
      vertex -2.39488 -7.37069 15.5
      vertex -7.37069 2.39488 15.5
      vertex -4.55534 -6.26988 15.5
    endloop
  endfacet
  facet normal 0 0 1
    outer loop
      vertex 0 -7.75 15.5
      vertex -7.37069 2.39488 15.5
      vertex -2.39488 -7.37069 15.5
    endloop
  endfacet
  facet normal 0 0 1
    outer loop
      vertex -3.4089 -2.86041 15.5
      vertex -7.37069 2.39488 15.5
      vertex 0 -7.75 15.5
    endloop
  endfacet
  facet normal 0 0 1
    outer loop
      vertex 9.75 -2.5 15.5
      vertex 3.61698 -2.5 15.5
      vertex 9.75 -7.75 15.5
    endloop
  endfacet
  facet normal 0 0 1
    outer loop
      vertex 3.61698 -2.5 15.5
      vertex 3.4089 -2.86041 15.5
      vertex 9.75 -7.75 15.5
    endloop
  endfacet
  facet normal 0 0 1
    outer loop
      vertex 9.75 -7.75 15.5
      vertex 2.225 -3.85381 15.5
      vertex 0 -7.75 15.5
    endloop
  endfacet
  facet normal 0 0 1
    outer loop
      vertex 2.225 -3.85381 15.5
      vertex 0.772734 -4.38239 15.5
      vertex 0 -7.75 15.5
    endloop
  endfacet
  facet normal 0 0 1
    outer loop
      vertex 0.772734 -4.38239 15.5
      vertex -0.772734 -4.38239 15.5
      vertex 0 -7.75 15.5
    endloop
  endfacet
  facet normal 0 0 1
    outer loop
      vertex -0.772734 -4.38239 15.5
      vertex -2.225 -3.85381 15.5
      vertex 0 -7.75 15.5
    endloop
  endfacet
  facet normal 0 0 1
    outer loop
      vertex -2.225 -3.85381 15.5
      vertex -3.4089 -2.86041 15.5
      vertex 0 -7.75 15.5
    endloop
  endfacet
  facet normal 0 0 1
    outer loop
      vertex -4.18163 -1.52199 15.5
      vertex -7.37069 2.39488 15.5
      vertex -3.4089 -2.86041 15.5
    endloop
  endfacet
  facet normal 0 0 1
    outer loop
      vertex -3.4089 2.86041 15.5
      vertex -7.37069 2.39488 15.5
      vertex -4.18163 1.52199 15.5
    endloop
  endfacet
  facet normal 0 0 1
    outer loop
      vertex -2.225 3.85381 15.5
      vertex -7.37069 2.39488 15.5
      vertex -3.4089 2.86041 15.5
    endloop
  endfacet
  facet normal 0 0 1
    outer loop
      vertex -0.772734 4.38239 15.5
      vertex -7.37069 2.39488 15.5
      vertex -2.225 3.85381 15.5
    endloop
  endfacet
  facet normal 0 0 1
    outer loop
      vertex 9.75 7.75 15.5
      vertex -7.37069 2.39488 15.5
      vertex -0.772734 4.38239 15.5
    endloop
  endfacet
  facet normal 0 0 1
    outer loop
      vertex 9.75 7.75 15.5
      vertex -0.772734 4.38239 15.5
      vertex 0.772734 4.38239 15.5
    endloop
  endfacet
  facet normal 0 0 1
    outer loop
      vertex 3.61698 2.5 15.5
      vertex 9.75 2.5 15.5
      vertex 3.4089 2.86041 15.5
    endloop
  endfacet
  facet normal 0 0 1
    outer loop
      vertex 9.75 2.5 15.5
      vertex 0.772734 4.38239 15.5
      vertex 2.225 3.85381 15.5
    endloop
  endfacet
  facet normal 0 0 1
    outer loop
      vertex 9.75 2.5 15.5
      vertex 2.225 3.85381 15.5
      vertex 3.4089 2.86041 15.5
    endloop
  endfacet
  facet normal 0 0 1
    outer loop
      vertex 9.75 7.75 15.5
      vertex 0.772734 4.38239 15.5
      vertex 9.75 2.5 15.5
    endloop
  endfacet
  facet normal 0 0 1
    outer loop
      vertex 0 7.75 15.5
      vertex -7.37069 2.39488 15.5
      vertex 9.75 7.75 15.5
    endloop
  endfacet
  facet normal 0 0 1
    outer loop
      vertex -2.39488 7.37069 15.5
      vertex -7.37069 2.39488 15.5
      vertex 0 7.75 15.5
    endloop
  endfacet
  facet normal 0 0 1
    outer loop
      vertex -4.55534 6.26988 15.5
      vertex -7.37069 2.39488 15.5
      vertex -2.39488 7.37069 15.5
    endloop
  endfacet
  facet normal 0 0 1
    outer loop
      vertex -6.26988 4.55534 15.5
      vertex -7.37069 2.39488 15.5
      vertex -4.55534 6.26988 15.5
    endloop
  endfacet
  facet normal 0 0 1
    outer loop
      vertex 3.4089 -2.86041 15.5
      vertex 2.225 -3.85381 15.5
      vertex 9.75 -7.75 15.5
    endloop
  endfacet
  facet normal 0 0 1
    outer loop
      vertex -4.18163 -1.52199 15.5
      vertex -4.45 0 15.5
      vertex -7.37069 2.39488 15.5
    endloop
  endfacet
  facet normal 0 0 1
    outer loop
      vertex -4.45 0 15.5
      vertex -4.18163 1.52199 15.5
      vertex -7.37069 2.39488 15.5
    endloop
  endfacet
  facet normal -0.156435 -2.19311e-016 -0.987688
    outer loop
      vertex 10.6251 -2.5 11.9822
      vertex 10.6251 -7.75 11.9822
      vertex 9.25 -2.5 12.2
    endloop
  endfacet
  facet normal -0.156435 -2.19311e-016 -0.987688
    outer loop
      vertex 9.25 -2.5 12.2
      vertex 10.6251 -7.75 11.9822
      vertex 9.75 -7.75 12.1208
    endloop
  endfacet
  facet normal -0.156435 -2.19311e-016 -0.987688
    outer loop
      vertex 9.25 -2.5 12.2
      vertex 9.75 -7.75 12.1208
      vertex 9.25 -7.75 12.2
    endloop
  endfacet
  facet normal 0.156435 -2.19311e-016 -0.987688
    outer loop
      vertex 9.25 -2.5 12.2
      vertex 9.25 -7.75 12.2
      vertex 7.87487 -2.5 11.9822
    endloop
  endfacet
  facet normal 0.156435 -2.19311e-016 -0.987688
    outer loop
      vertex 7.87487 -2.5 11.9822
      vertex 9.25 -7.75 12.2
      vertex 7.87487 -7.75 11.9822
    endloop
  endfacet
  facet normal 0.45399 -1.97843e-016 -0.891007
    outer loop
      vertex 7.87487 -2.5 11.9822
      vertex 7.87487 -7.75 11.9822
      vertex 6.63436 -2.5 11.3501
    endloop
  endfacet
  facet normal 0.45399 -1.97843e-016 -0.891007
    outer loop
      vertex 6.63436 -2.5 11.3501
      vertex 7.87487 -7.75 11.9822
      vertex 6.63436 -7.75 11.3501
    endloop
  endfacet
  facet normal 0.707107 -1.57009e-016 -0.707107
    outer loop
      vertex 5.64987 -2.5 10.3656
      vertex 6.63436 -2.5 11.3501
      vertex 6.63436 -7.75 11.3501
    endloop
  endfacet
  facet normal 0.707107 -1.57009e-016 -0.707107
    outer loop
      vertex 5.64987 -7.75 10.3656
      vertex 5.64987 -2.5 10.3656
      vertex 6.63436 -7.75 11.3501
    endloop
  endfacet
  facet normal 0.891007 -1.00806e-016 -0.45399
    outer loop
      vertex 5.0178 -2.5 9.12513
      vertex 5.64987 -2.5 10.3656
      vertex 5.64987 -7.75 10.3656
    endloop
  endfacet
  facet normal 0.891007 -1.00806e-016 -0.45399
    outer loop
      vertex 5.0178 -7.75 9.12513
      vertex 5.0178 -2.5 9.12513
      vertex 5.64987 -7.75 10.3656
    endloop
  endfacet
  facet normal 0.987688 -3.47355e-017 -0.156435
    outer loop
      vertex 4.8 -2.5 7.75
      vertex 5.0178 -2.5 9.12513
      vertex 5.0178 -7.75 9.12513
    endloop
  endfacet
  facet normal 0.987688 -3.47355e-017 -0.156435
    outer loop
      vertex 4.8 -7.75 7.75
      vertex 4.8 -2.5 7.75
      vertex 5.0178 -7.75 9.12513
    endloop
  endfacet
  facet normal 0.987688 3.47355e-017 0.156435
    outer loop
      vertex 5.0178 -7.75 6.37487
      vertex 5.0178 -2.5 6.37487
      vertex 4.8 -2.5 7.75
    endloop
  endfacet
  facet normal 0.987688 3.47355e-017 0.156435
    outer loop
      vertex 4.8 -7.75 7.75
      vertex 5.0178 -7.75 6.37487
      vertex 4.8 -2.5 7.75
    endloop
  endfacet
  facet normal 0.891007 1.00806e-016 0.45399
    outer loop
      vertex 5.12164 -7.75 6.17108
      vertex 5.64987 -7.75 5.13436
      vertex 5.64987 -2.5 5.13436
    endloop
  endfacet
  facet normal 0.891007 1.00806e-016 0.45399
    outer loop
      vertex 5.0178 -7.75 6.37487
      vertex 5.12164 -7.75 6.17108
      vertex 5.0178 -2.5 6.37487
    endloop
  endfacet
  facet normal 0.891007 1.00806e-016 0.45399
    outer loop
      vertex 5.0178 -2.5 6.37487
      vertex 5.12164 -7.75 6.17108
      vertex 5.64987 -2.5 5.13436
    endloop
  endfacet
  facet normal -2.83275e-016 -1 2.22045e-016
    outer loop
      vertex 5.12164 -7.75 6.17108
      vertex 3.45035 -7.75 4.03893
      vertex 3.538 -7.75 3.875
    endloop
  endfacet
  facet normal -2.83275e-016 -1 2.22045e-016
    outer loop
      vertex 4.102 -7.75 3.032
      vertex 5.12164 -7.75 6.17108
      vertex 3.806 -7.75 3.444
    endloop
  endfacet
  facet normal -2.83275e-016 -1 2.22045e-016
    outer loop
      vertex 3.806 -7.75 3.444
      vertex 5.12164 -7.75 6.17108
      vertex 3.538 -7.75 3.875
    endloop
  endfacet
  facet normal -2.83275e-016 -1 2.22045e-016
    outer loop
      vertex 4.423 -7.75 2.64
      vertex 5.12164 -7.75 6.17108
      vertex 4.102 -7.75 3.032
    endloop
  endfacet
  facet normal -2.83275e-016 -1 2.22045e-016
    outer loop
      vertex 4.51 -7.75 2.547
      vertex 5.12164 -7.75 6.17108
      vertex 4.423 -7.75 2.64
    endloop
  endfacet
  facet normal -2.83275e-016 -1 2.22045e-016
    outer loop
      vertex 6.375 -7.75 0
      vertex 5.12164 -7.75 6.17108
      vertex 4.51 -7.75 2.547
    endloop
  endfacet
  facet normal -2.83275e-016 -1 2.22045e-016
    outer loop
      vertex 5.64987 -7.75 5.13436
      vertex 5.12164 -7.75 6.17108
      vertex 6.375 -7.75 0
    endloop
  endfacet
  facet normal -2.83275e-016 -1 2.22045e-016
    outer loop
      vertex 10.6251 -7.75 3.5178
      vertex 9.25 -7.75 3.3
      vertex 14.125 -7.75 0
    endloop
  endfacet
  facet normal -2.83275e-016 -1 2.22045e-016
    outer loop
      vertex 11.8656 -7.75 4.14987
      vertex 15.99 -7.75 2.547
      vertex 16.077 -7.75 2.64
    endloop
  endfacet
  facet normal -2.83275e-016 -1 2.22045e-016
    outer loop
      vertex 11.8656 -7.75 4.14987
      vertex 10.6251 -7.75 3.5178
      vertex 15.99 -7.75 2.547
    endloop
  endfacet
  facet normal -2.83275e-016 -1 2.22045e-016
    outer loop
      vertex 12.8501 -7.75 5.13436
      vertex 16.962 -7.75 3.875
      vertex 17.201 -7.75 4.322
    endloop
  endfacet
  facet normal -2.83275e-016 -1 2.22045e-016
    outer loop
      vertex 12.8501 -7.75 5.13436
      vertex 16.694 -7.75 3.444
      vertex 16.962 -7.75 3.875
    endloop
  endfacet
  facet normal -2.83275e-016 -1 2.22045e-016
    outer loop
      vertex 12.8501 -7.75 5.13436
      vertex 16.398 -7.75 3.032
      vertex 16.694 -7.75 3.444
    endloop
  endfacet
  facet normal -2.83275e-016 -1 2.22045e-016
    outer loop
      vertex 12.8501 -7.75 5.13436
      vertex 11.8656 -7.75 4.14987
      vertex 16.398 -7.75 3.032
    endloop
  endfacet
  facet normal -2.83275e-016 -1 2.22045e-016
    outer loop
      vertex 13.4822 -7.75 6.37487
      vertex 17.736 -7.75 5.744
      vertex 17.851 -7.75 6.238
    endloop
  endfacet
  facet normal -2.83275e-016 -1 2.22045e-016
    outer loop
      vertex 13.4822 -7.75 6.37487
      vertex 17.589 -7.75 5.259
      vertex 17.736 -7.75 5.744
    endloop
  endfacet
  facet normal -2.83275e-016 -1 2.22045e-016
    outer loop
      vertex 13.4822 -7.75 6.37487
      vertex 17.41 -7.75 4.784
      vertex 17.589 -7.75 5.259
    endloop
  endfacet
  facet normal -2.83275e-016 -1 2.22045e-016
    outer loop
      vertex 13.4822 -7.75 6.37487
      vertex 12.8501 -7.75 5.13436
      vertex 17.41 -7.75 4.784
    endloop
  endfacet
  facet normal -2.83275e-016 -1 2.22045e-016
    outer loop
      vertex 13.7 -7.75 7.75
      vertex 18 -7.75 7.75
      vertex 17.983 -7.75 8.257
    endloop
  endfacet
  facet normal -2.83275e-016 -1 2.22045e-016
    outer loop
      vertex 13.7 -7.75 7.75
      vertex 17.983 -7.75 7.243
      vertex 18 -7.75 7.75
    endloop
  endfacet
  facet normal -2.83275e-016 -1 2.22045e-016
    outer loop
      vertex 13.7 -7.75 7.75
      vertex 17.934 -7.75 6.738
      vertex 17.983 -7.75 7.243
    endloop
  endfacet
  facet normal -2.83275e-016 -1 2.22045e-016
    outer loop
      vertex 13.7 -7.75 7.75
      vertex 13.4822 -7.75 6.37487
      vertex 17.934 -7.75 6.738
    endloop
  endfacet
  facet normal -2.83275e-016 -1 2.22045e-016
    outer loop
      vertex 13.4822 -7.75 9.12513
      vertex 17.736 -7.75 9.756
      vertex 17.589 -7.75 10.241
    endloop
  endfacet
  facet normal -2.83275e-016 -1 2.22045e-016
    outer loop
      vertex 13.4822 -7.75 9.12513
      vertex 17.851 -7.75 9.262
      vertex 17.736 -7.75 9.756
    endloop
  endfacet
  facet normal -2.83275e-016 -1 2.22045e-016
    outer loop
      vertex 13.4822 -7.75 9.12513
      vertex 17.934 -7.75 8.762
      vertex 17.851 -7.75 9.262
    endloop
  endfacet
  facet normal -2.83275e-016 -1 2.22045e-016
    outer loop
      vertex 13.4822 -7.75 9.12513
      vertex 13.7 -7.75 7.75
      vertex 17.934 -7.75 8.762
    endloop
  endfacet
  facet normal -2.83275e-016 -1 2.22045e-016
    outer loop
      vertex 12.8501 -7.75 10.3656
      vertex 16.962 -7.75 11.625
      vertex 16.694 -7.75 12.056
    endloop
  endfacet
  facet normal -2.83275e-016 -1 2.22045e-016
    outer loop
      vertex 12.8501 -7.75 10.3656
      vertex 17.201 -7.75 11.178
      vertex 16.962 -7.75 11.625
    endloop
  endfacet
  facet normal -2.83275e-016 -1 2.22045e-016
    outer loop
      vertex 12.8501 -7.75 10.3656
      vertex 17.41 -7.75 10.716
      vertex 17.201 -7.75 11.178
    endloop
  endfacet
  facet normal -2.83275e-016 -1 2.22045e-016
    outer loop
      vertex 11.8656 -7.75 11.3501
      vertex 16.077 -7.75 12.86
      vertex 15.99 -7.75 12.953
    endloop
  endfacet
  facet normal -2.83275e-016 -1 2.22045e-016
    outer loop
      vertex 9.75 -7.75 15.5
      vertex 9.75 -7.75 12.1208
      vertex 14.125 -7.75 15.5
    endloop
  endfacet
  facet normal -2.83275e-016 -1 2.22045e-016
    outer loop
      vertex 9.75 -7.75 12.1208
      vertex 10.6251 -7.75 11.9822
      vertex 14.125 -7.75 15.5
    endloop
  endfacet
  facet normal -2.83275e-016 -1 2.22045e-016
    outer loop
      vertex 14.125 -7.75 15.5
      vertex 11.8656 -7.75 11.3501
      vertex 15.99 -7.75 12.953
    endloop
  endfacet
  facet normal -2.83275e-016 -1 2.22045e-016
    outer loop
      vertex 16.398 -7.75 12.468
      vertex 12.8501 -7.75 10.3656
      vertex 16.694 -7.75 12.056
    endloop
  endfacet
  facet normal -2.83275e-016 -1 2.22045e-016
    outer loop
      vertex 17.41 -7.75 10.716
      vertex 13.4822 -7.75 9.12513
      vertex 17.589 -7.75 10.241
    endloop
  endfacet
  facet normal -2.83275e-016 -1 2.22045e-016
    outer loop
      vertex 17.934 -7.75 8.762
      vertex 13.7 -7.75 7.75
      vertex 17.983 -7.75 8.257
    endloop
  endfacet
  facet normal -2.83275e-016 -1 2.22045e-016
    outer loop
      vertex 17.934 -7.75 6.738
      vertex 13.4822 -7.75 6.37487
      vertex 17.851 -7.75 6.238
    endloop
  endfacet
  facet normal -2.83275e-016 -1 2.22045e-016
    outer loop
      vertex 17.41 -7.75 4.784
      vertex 12.8501 -7.75 5.13436
      vertex 17.201 -7.75 4.322
    endloop
  endfacet
  facet normal -2.83275e-016 -1 2.22045e-016
    outer loop
      vertex 16.398 -7.75 3.032
      vertex 11.8656 -7.75 4.14987
      vertex 16.077 -7.75 2.64
    endloop
  endfacet
  facet normal -2.83275e-016 -1 2.22045e-016
    outer loop
      vertex 15.99 -7.75 2.547
      vertex 10.6251 -7.75 3.5178
      vertex 14.125 -7.75 0
    endloop
  endfacet
  facet normal -2.83275e-016 -1 2.22045e-016
    outer loop
      vertex 14.125 -7.75 0
      vertex 9.25 -7.75 3.3
      vertex 6.375 -7.75 0
    endloop
  endfacet
  facet normal -2.83275e-016 -1 2.22045e-016
    outer loop
      vertex 9.25 -7.75 3.3
      vertex 7.87487 -7.75 3.5178
      vertex 6.375 -7.75 0
    endloop
  endfacet
  facet normal -2.83275e-016 -1 2.22045e-016
    outer loop
      vertex 7.87487 -7.75 3.5178
      vertex 6.63436 -7.75 4.14987
      vertex 6.375 -7.75 0
    endloop
  endfacet
  facet normal -2.83275e-016 -1 2.22045e-016
    outer loop
      vertex 6.63436 -7.75 4.14987
      vertex 5.64987 -7.75 5.13436
      vertex 6.375 -7.75 0
    endloop
  endfacet
  facet normal -2.83275e-016 -1 2.22045e-016
    outer loop
      vertex 10.6251 -7.75 11.9822
      vertex 11.8656 -7.75 11.3501
      vertex 14.125 -7.75 15.5
    endloop
  endfacet
  facet normal -2.83275e-016 -1 2.22045e-016
    outer loop
      vertex 11.8656 -7.75 11.3501
      vertex 16.398 -7.75 12.468
      vertex 16.077 -7.75 12.86
    endloop
  endfacet
  facet normal -2.83275e-016 -1 2.22045e-016
    outer loop
      vertex 11.8656 -7.75 11.3501
      vertex 12.8501 -7.75 10.3656
      vertex 16.398 -7.75 12.468
    endloop
  endfacet
  facet normal -2.83275e-016 -1 2.22045e-016
    outer loop
      vertex 12.8501 -7.75 10.3656
      vertex 13.4822 -7.75 9.12513
      vertex 17.41 -7.75 10.716
    endloop
  endfacet
  facet normal -6.28997e-032 -2.22045e-016 -1
    outer loop
      vertex 6.375 -7.75 0
      vertex 6.375 -2.5 -1.16573e-015
      vertex 14.125 -7.75 0
    endloop
  endfacet
  facet normal -6.28997e-032 -2.22045e-016 -1
    outer loop
      vertex 14.125 -7.75 0
      vertex 6.375 -2.5 -1.16573e-015
      vertex 14.125 -2.5 -1.16573e-015
    endloop
  endfacet
  facet normal 0.806828 -3.59735e-016 -0.590787
    outer loop
      vertex 15.99 -7.75 2.547
      vertex 14.125 -7.75 0
      vertex 14.125 -2.5 -1.16573e-015
    endloop
  endfacet
  facet normal 0.806828 -3.59735e-016 -0.590787
    outer loop
      vertex 15.99 -2.5 2.547
      vertex 15.99 -7.75 2.547
      vertex 14.125 -2.5 -1.16573e-015
    endloop
  endfacet
  facet normal 0.730271 -3.58559e-016 -0.683157
    outer loop
      vertex 16.077 -7.75 2.64
      vertex 15.99 -7.75 2.547
      vertex 15.99 -2.5 2.547
    endloop
  endfacet
  facet normal 0.730271 -3.58559e-016 -0.683157
    outer loop
      vertex 16.077 -2.5 2.64
      vertex 16.077 -7.75 2.64
      vertex 15.99 -2.5 2.547
    endloop
  endfacet
  facet normal 0.773693 -3.59847e-016 -0.63356
    outer loop
      vertex 16.398 -7.75 3.032
      vertex 16.077 -7.75 2.64
      vertex 16.077 -2.5 2.64
    endloop
  endfacet
  facet normal 0.773693 -3.59847e-016 -0.63356
    outer loop
      vertex 16.398 -2.5 3.032
      vertex 16.398 -7.75 3.032
      vertex 16.077 -2.5 2.64
    endloop
  endfacet
  facet normal 0.812132 -3.59614e-016 -0.583474
    outer loop
      vertex 16.694 -7.75 3.444
      vertex 16.398 -7.75 3.032
      vertex 16.398 -2.5 3.032
    endloop
  endfacet
  facet normal 0.812132 -3.59614e-016 -0.583474
    outer loop
      vertex 16.694 -2.5 3.444
      vertex 16.694 -7.75 3.444
      vertex 16.398 -2.5 3.032
    endloop
  endfacet
  facet normal 0.849214 -3.57811e-016 -0.528049
    outer loop
      vertex 16.962 -7.75 3.875
      vertex 16.694 -7.75 3.444
      vertex 16.694 -2.5 3.444
    endloop
  endfacet
  facet normal 0.849214 -3.57811e-016 -0.528049
    outer loop
      vertex 16.962 -2.5 3.875
      vertex 16.962 -7.75 3.875
      vertex 16.694 -2.5 3.444
    endloop
  endfacet
  facet normal 0.881861 -3.54505e-016 -0.47151
    outer loop
      vertex 17.201 -7.75 4.322
      vertex 16.962 -7.75 3.875
      vertex 16.962 -2.5 3.875
    endloop
  endfacet
  facet normal 0.881861 -3.54505e-016 -0.47151
    outer loop
      vertex 17.201 -2.5 4.322
      vertex 17.201 -7.75 4.322
      vertex 16.962 -2.5 3.875
    endloop
  endfacet
  facet normal 0.911108 -3.49614e-016 -0.412168
    outer loop
      vertex 17.41 -7.75 4.784
      vertex 17.201 -7.75 4.322
      vertex 17.201 -2.5 4.322
    endloop
  endfacet
  facet normal 0.911108 -3.49614e-016 -0.412168
    outer loop
      vertex 17.41 -2.5 4.784
      vertex 17.41 -7.75 4.784
      vertex 17.201 -2.5 4.322
    endloop
  endfacet
  facet normal 0.935761 -3.43378e-016 -0.352634
    outer loop
      vertex 17.589 -7.75 5.259
      vertex 17.41 -7.75 4.784
      vertex 17.41 -2.5 4.784
    endloop
  endfacet
  facet normal 0.935761 -3.43378e-016 -0.352634
    outer loop
      vertex 17.589 -2.5 5.259
      vertex 17.589 -7.75 5.259
      vertex 17.41 -2.5 4.784
    endloop
  endfacet
  facet normal 0.957008 -3.35503e-016 -0.290062
    outer loop
      vertex 17.736 -7.75 5.744
      vertex 17.589 -7.75 5.259
      vertex 17.589 -2.5 5.259
    endloop
  endfacet
  facet normal 0.957008 -3.35503e-016 -0.290062
    outer loop
      vertex 17.736 -2.5 5.744
      vertex 17.736 -7.75 5.744
      vertex 17.589 -2.5 5.259
    endloop
  endfacet
  facet normal 0.973957 -3.26242e-016 -0.226731
    outer loop
      vertex 17.851 -7.75 6.238
      vertex 17.736 -7.75 5.744
      vertex 17.736 -2.5 5.744
    endloop
  endfacet
  facet normal 0.973957 -3.26242e-016 -0.226731
    outer loop
      vertex 17.851 -2.5 6.238
      vertex 17.851 -7.75 6.238
      vertex 17.736 -2.5 5.744
    endloop
  endfacet
  facet normal 0.9865 -3.15813e-016 -0.163759
    outer loop
      vertex 17.934 -7.75 6.738
      vertex 17.851 -7.75 6.238
      vertex 17.851 -2.5 6.238
    endloop
  endfacet
  facet normal 0.9865 -3.15813e-016 -0.163759
    outer loop
      vertex 17.934 -2.5 6.738
      vertex 17.934 -7.75 6.738
      vertex 17.851 -2.5 6.238
    endloop
  endfacet
  facet normal 0.995326 -3.03395e-016 -0.0965761
    outer loop
      vertex 17.983 -7.75 7.243
      vertex 17.934 -7.75 6.738
      vertex 17.934 -2.5 6.738
    endloop
  endfacet
  facet normal 0.995326 -3.03395e-016 -0.0965761
    outer loop
      vertex 17.983 -2.5 7.243
      vertex 17.983 -7.75 7.243
      vertex 17.934 -2.5 6.738
    endloop
  endfacet
  facet normal 0.999438 -2.90557e-016 -0.0335117
    outer loop
      vertex 18 -7.75 7.75
      vertex 17.983 -7.75 7.243
      vertex 17.983 -2.5 7.243
    endloop
  endfacet
  facet normal 0.999438 -2.90557e-016 -0.0335117
    outer loop
      vertex 18 -2.5 7.75
      vertex 18 -7.75 7.75
      vertex 17.983 -2.5 7.243
    endloop
  endfacet
  facet normal 0.999438 -2.75675e-016 0.0335117
    outer loop
      vertex 17.983 -2.5 8.257
      vertex 17.983 -7.75 8.257
      vertex 18 -7.75 7.75
    endloop
  endfacet
  facet normal 0.999438 -2.75675e-016 0.0335117
    outer loop
      vertex 18 -2.5 7.75
      vertex 17.983 -2.5 8.257
      vertex 18 -7.75 7.75
    endloop
  endfacet
  facet normal 0.995326 -2.60507e-016 0.0965761
    outer loop
      vertex 17.934 -2.5 8.762
      vertex 17.934 -7.75 8.762
      vertex 17.983 -7.75 8.257
    endloop
  endfacet
  facet normal 0.995326 -2.60507e-016 0.0965761
    outer loop
      vertex 17.983 -2.5 8.257
      vertex 17.934 -2.5 8.762
      vertex 17.983 -7.75 8.257
    endloop
  endfacet
  facet normal 0.9865 -2.43089e-016 0.163759
    outer loop
      vertex 17.851 -2.5 9.262
      vertex 17.851 -7.75 9.262
      vertex 17.934 -7.75 8.762
    endloop
  endfacet
  facet normal 0.9865 -2.43089e-016 0.163759
    outer loop
      vertex 17.934 -2.5 8.762
      vertex 17.851 -2.5 9.262
      vertex 17.934 -7.75 8.762
    endloop
  endfacet
  facet normal 0.973957 -2.25553e-016 0.226731
    outer loop
      vertex 17.736 -2.5 9.756
      vertex 17.736 -7.75 9.756
      vertex 17.851 -7.75 9.262
    endloop
  endfacet
  facet normal 0.973957 -2.25553e-016 0.226731
    outer loop
      vertex 17.851 -2.5 9.262
      vertex 17.736 -2.5 9.756
      vertex 17.851 -7.75 9.262
    endloop
  endfacet
  facet normal 0.957008 -2.0669e-016 0.290062
    outer loop
      vertex 17.589 -2.5 10.241
      vertex 17.589 -7.75 10.241
      vertex 17.736 -7.75 9.756
    endloop
  endfacet
  facet normal 0.957008 -2.0669e-016 0.290062
    outer loop
      vertex 17.736 -2.5 9.756
      vertex 17.589 -2.5 10.241
      vertex 17.736 -7.75 9.756
    endloop
  endfacet
  facet normal 0.935761 -1.86777e-016 0.352634
    outer loop
      vertex 17.41 -2.5 10.716
      vertex 17.41 -7.75 10.716
      vertex 17.589 -7.75 10.241
    endloop
  endfacet
  facet normal 0.935761 -1.86777e-016 0.352634
    outer loop
      vertex 17.589 -2.5 10.241
      vertex 17.41 -2.5 10.716
      vertex 17.589 -7.75 10.241
    endloop
  endfacet
  facet normal 0.911108 -1.66574e-016 0.412168
    outer loop
      vertex 17.201 -2.5 11.178
      vertex 17.201 -7.75 11.178
      vertex 17.41 -7.75 10.716
    endloop
  endfacet
  facet normal 0.911108 -1.66574e-016 0.412168
    outer loop
      vertex 17.41 -2.5 10.716
      vertex 17.201 -2.5 11.178
      vertex 17.41 -7.75 10.716
    endloop
  endfacet
  facet normal 0.881861 -1.45113e-016 0.47151
    outer loop
      vertex 16.962 -2.5 11.625
      vertex 16.962 -7.75 11.625
      vertex 17.201 -7.75 11.178
    endloop
  endfacet
  facet normal 0.881861 -1.45113e-016 0.47151
    outer loop
      vertex 17.201 -2.5 11.178
      vertex 16.962 -2.5 11.625
      vertex 17.201 -7.75 11.178
    endloop
  endfacet
  facet normal 0.849214 -1.2331e-016 0.528049
    outer loop
      vertex 16.694 -2.5 12.056
      vertex 16.694 -7.75 12.056
      vertex 16.962 -7.75 11.625
    endloop
  endfacet
  facet normal 0.849214 -1.2331e-016 0.528049
    outer loop
      vertex 16.962 -2.5 11.625
      vertex 16.694 -2.5 12.056
      vertex 16.962 -7.75 11.625
    endloop
  endfacet
  facet normal 0.812132 -1.005e-016 0.583474
    outer loop
      vertex 16.398 -2.5 12.468
      vertex 16.398 -7.75 12.468
      vertex 16.694 -7.75 12.056
    endloop
  endfacet
  facet normal 0.812132 -1.005e-016 0.583474
    outer loop
      vertex 16.694 -2.5 12.056
      vertex 16.398 -2.5 12.468
      vertex 16.694 -7.75 12.056
    endloop
  endfacet
  facet normal 0.773693 -7.84893e-017 0.63356
    outer loop
      vertex 16.077 -2.5 12.86
      vertex 16.077 -7.75 12.86
      vertex 16.398 -7.75 12.468
    endloop
  endfacet
  facet normal 0.773693 -7.84893e-017 0.63356
    outer loop
      vertex 16.398 -2.5 12.468
      vertex 16.077 -2.5 12.86
      vertex 16.398 -7.75 12.468
    endloop
  endfacet
  facet normal 0.730271 -5.51762e-017 0.683157
    outer loop
      vertex 15.99 -2.5 12.953
      vertex 15.99 -7.75 12.953
      vertex 16.077 -7.75 12.86
    endloop
  endfacet
  facet normal 0.730271 -5.51762e-017 0.683157
    outer loop
      vertex 16.077 -2.5 12.86
      vertex 15.99 -2.5 12.953
      vertex 16.077 -7.75 12.86
    endloop
  endfacet
  facet normal 0.806828 -9.73731e-017 0.590787
    outer loop
      vertex 14.125 -2.5 15.5
      vertex 14.125 -7.75 15.5
      vertex 15.99 -7.75 12.953
    endloop
  endfacet
  facet normal 0.806828 -9.73731e-017 0.590787
    outer loop
      vertex 15.99 -2.5 12.953
      vertex 14.125 -2.5 15.5
      vertex 15.99 -7.75 12.953
    endloop
  endfacet
  facet normal 6.28997e-032 2.22045e-016 1
    outer loop
      vertex 9.75 -2.5 15.5
      vertex 9.75 -7.75 15.5
      vertex 14.125 -7.75 15.5
    endloop
  endfacet
  facet normal 6.28997e-032 2.22045e-016 1
    outer loop
      vertex 14.125 -2.5 15.5
      vertex 9.75 -2.5 15.5
      vertex 14.125 -7.75 15.5
    endloop
  endfacet
  facet normal -0.45399 -1.97843e-016 -0.891007
    outer loop
      vertex 11.8656 -2.5 11.3501
      vertex 11.8656 -7.75 11.3501
      vertex 10.6251 -2.5 11.9822
    endloop
  endfacet
  facet normal -0.45399 -1.97843e-016 -0.891007
    outer loop
      vertex 10.6251 -2.5 11.9822
      vertex 11.8656 -7.75 11.3501
      vertex 10.6251 -7.75 11.9822
    endloop
  endfacet
  facet normal -0.707107 -1.57009e-016 -0.707107
    outer loop
      vertex 12.8501 -2.5 10.3656
      vertex 12.8501 -7.75 10.3656
      vertex 11.8656 -2.5 11.3501
    endloop
  endfacet
  facet normal -0.707107 -1.57009e-016 -0.707107
    outer loop
      vertex 11.8656 -2.5 11.3501
      vertex 12.8501 -7.75 10.3656
      vertex 11.8656 -7.75 11.3501
    endloop
  endfacet
  facet normal -0.891007 -1.00806e-016 -0.45399
    outer loop
      vertex 13.4822 -2.5 9.12513
      vertex 13.4822 -7.75 9.12513
      vertex 12.8501 -2.5 10.3656
    endloop
  endfacet
  facet normal -0.891007 -1.00806e-016 -0.45399
    outer loop
      vertex 12.8501 -2.5 10.3656
      vertex 13.4822 -7.75 9.12513
      vertex 12.8501 -7.75 10.3656
    endloop
  endfacet
  facet normal -0.987688 -3.47355e-017 -0.156435
    outer loop
      vertex 13.7 -2.5 7.75
      vertex 13.7 -7.75 7.75
      vertex 13.4822 -2.5 9.12513
    endloop
  endfacet
  facet normal -0.987688 -3.47355e-017 -0.156435
    outer loop
      vertex 13.4822 -2.5 9.12513
      vertex 13.7 -7.75 7.75
      vertex 13.4822 -7.75 9.12513
    endloop
  endfacet
  facet normal -0.987688 3.47355e-017 0.156435
    outer loop
      vertex 13.7 -2.5 7.75
      vertex 13.4822 -2.5 6.37487
      vertex 13.7 -7.75 7.75
    endloop
  endfacet
  facet normal -0.987688 3.47355e-017 0.156435
    outer loop
      vertex 13.7 -7.75 7.75
      vertex 13.4822 -2.5 6.37487
      vertex 13.4822 -7.75 6.37487
    endloop
  endfacet
  facet normal -0.891007 1.00806e-016 0.45399
    outer loop
      vertex 13.4822 -2.5 6.37487
      vertex 12.8501 -2.5 5.13436
      vertex 13.4822 -7.75 6.37487
    endloop
  endfacet
  facet normal -0.891007 1.00806e-016 0.45399
    outer loop
      vertex 13.4822 -7.75 6.37487
      vertex 12.8501 -2.5 5.13436
      vertex 12.8501 -7.75 5.13436
    endloop
  endfacet
  facet normal -0.707107 1.57009e-016 0.707107
    outer loop
      vertex 12.8501 -2.5 5.13436
      vertex 11.8656 -2.5 4.14987
      vertex 12.8501 -7.75 5.13436
    endloop
  endfacet
  facet normal -0.707107 1.57009e-016 0.707107
    outer loop
      vertex 12.8501 -7.75 5.13436
      vertex 11.8656 -2.5 4.14987
      vertex 11.8656 -7.75 4.14987
    endloop
  endfacet
  facet normal -0.45399 1.97843e-016 0.891007
    outer loop
      vertex 11.8656 -7.75 4.14987
      vertex 11.8656 -2.5 4.14987
      vertex 10.6251 -2.5 3.5178
    endloop
  endfacet
  facet normal -0.45399 1.97843e-016 0.891007
    outer loop
      vertex 10.6251 -7.75 3.5178
      vertex 11.8656 -7.75 4.14987
      vertex 10.6251 -2.5 3.5178
    endloop
  endfacet
  facet normal -0.156435 2.19311e-016 0.987688
    outer loop
      vertex 10.6251 -7.75 3.5178
      vertex 10.6251 -2.5 3.5178
      vertex 9.25 -2.5 3.3
    endloop
  endfacet
  facet normal -0.156435 2.19311e-016 0.987688
    outer loop
      vertex 9.25 -7.75 3.3
      vertex 10.6251 -7.75 3.5178
      vertex 9.25 -2.5 3.3
    endloop
  endfacet
  facet normal 0.156435 2.19311e-016 0.987688
    outer loop
      vertex 9.25 -7.75 3.3
      vertex 9.25 -2.5 3.3
      vertex 7.87487 -2.5 3.5178
    endloop
  endfacet
  facet normal 0.156435 2.19311e-016 0.987688
    outer loop
      vertex 7.87487 -7.75 3.5178
      vertex 9.25 -7.75 3.3
      vertex 7.87487 -2.5 3.5178
    endloop
  endfacet
  facet normal 0.45399 1.97843e-016 0.891007
    outer loop
      vertex 7.87487 -7.75 3.5178
      vertex 7.87487 -2.5 3.5178
      vertex 6.63436 -2.5 4.14987
    endloop
  endfacet
  facet normal 0.45399 1.97843e-016 0.891007
    outer loop
      vertex 6.63436 -7.75 4.14987
      vertex 7.87487 -7.75 3.5178
      vertex 6.63436 -2.5 4.14987
    endloop
  endfacet
  facet normal 0.707107 1.57009e-016 0.707107
    outer loop
      vertex 6.63436 -7.75 4.14987
      vertex 6.63436 -2.5 4.14987
      vertex 5.64987 -2.5 5.13436
    endloop
  endfacet
  facet normal 0.707107 1.57009e-016 0.707107
    outer loop
      vertex 5.64987 -7.75 5.13436
      vertex 6.63436 -7.75 4.14987
      vertex 5.64987 -2.5 5.13436
    endloop
  endfacet
  facet normal 6.28997e-032 2.22045e-016 1
    outer loop
      vertex 14.125 7.75 15.5
      vertex 6.375 7.75 15.5
      vertex 9.75 7.75 15.5
    endloop
  endfacet
  facet normal 6.28997e-032 2.22045e-016 1
    outer loop
      vertex 9.75 2.5 15.5
      vertex 14.125 2.5 15.5
      vertex 9.75 7.75 15.5
    endloop
  endfacet
  facet normal 6.28997e-032 2.22045e-016 1
    outer loop
      vertex 14.125 2.5 15.5
      vertex 14.125 7.75 15.5
      vertex 9.75 7.75 15.5
    endloop
  endfacet
  facet normal 0.806828 -9.73731e-017 0.590787
    outer loop
      vertex 14.125 7.75 15.5
      vertex 14.125 2.5 15.5
      vertex 15.99 2.5 12.953
    endloop
  endfacet
  facet normal 0.806828 -9.73731e-017 0.590787
    outer loop
      vertex 15.99 7.75 12.953
      vertex 14.125 7.75 15.5
      vertex 15.99 2.5 12.953
    endloop
  endfacet
  facet normal 0.730271 -5.51762e-017 0.683157
    outer loop
      vertex 15.99 7.75 12.953
      vertex 15.99 2.5 12.953
      vertex 16.077 2.5 12.86
    endloop
  endfacet
  facet normal 0.730271 -5.51762e-017 0.683157
    outer loop
      vertex 16.077 7.75 12.86
      vertex 15.99 7.75 12.953
      vertex 16.077 2.5 12.86
    endloop
  endfacet
  facet normal 0.773693 -7.84893e-017 0.63356
    outer loop
      vertex 16.077 7.75 12.86
      vertex 16.077 2.5 12.86
      vertex 16.398 2.5 12.468
    endloop
  endfacet
  facet normal 0.773693 -7.84893e-017 0.63356
    outer loop
      vertex 16.398 7.75 12.468
      vertex 16.077 7.75 12.86
      vertex 16.398 2.5 12.468
    endloop
  endfacet
  facet normal 0.812132 -1.005e-016 0.583474
    outer loop
      vertex 16.398 7.75 12.468
      vertex 16.398 2.5 12.468
      vertex 16.694 2.5 12.056
    endloop
  endfacet
  facet normal 0.812132 -1.005e-016 0.583474
    outer loop
      vertex 16.694 7.75 12.056
      vertex 16.398 7.75 12.468
      vertex 16.694 2.5 12.056
    endloop
  endfacet
  facet normal 0.849214 -1.2331e-016 0.528049
    outer loop
      vertex 16.694 7.75 12.056
      vertex 16.694 2.5 12.056
      vertex 16.962 2.5 11.625
    endloop
  endfacet
  facet normal 0.849214 -1.2331e-016 0.528049
    outer loop
      vertex 16.962 7.75 11.625
      vertex 16.694 7.75 12.056
      vertex 16.962 2.5 11.625
    endloop
  endfacet
  facet normal 0.881861 -1.45113e-016 0.47151
    outer loop
      vertex 16.962 7.75 11.625
      vertex 16.962 2.5 11.625
      vertex 17.201 2.5 11.178
    endloop
  endfacet
  facet normal 0.881861 -1.45113e-016 0.47151
    outer loop
      vertex 17.201 7.75 11.178
      vertex 16.962 7.75 11.625
      vertex 17.201 2.5 11.178
    endloop
  endfacet
  facet normal 0.911108 -1.66574e-016 0.412168
    outer loop
      vertex 17.201 7.75 11.178
      vertex 17.201 2.5 11.178
      vertex 17.41 2.5 10.716
    endloop
  endfacet
  facet normal 0.911108 -1.66574e-016 0.412168
    outer loop
      vertex 17.41 7.75 10.716
      vertex 17.201 7.75 11.178
      vertex 17.41 2.5 10.716
    endloop
  endfacet
  facet normal 0.935761 -1.86777e-016 0.352634
    outer loop
      vertex 17.41 7.75 10.716
      vertex 17.41 2.5 10.716
      vertex 17.589 2.5 10.241
    endloop
  endfacet
  facet normal 0.935761 -1.86777e-016 0.352634
    outer loop
      vertex 17.589 7.75 10.241
      vertex 17.41 7.75 10.716
      vertex 17.589 2.5 10.241
    endloop
  endfacet
  facet normal 0.957008 -2.0669e-016 0.290062
    outer loop
      vertex 17.589 7.75 10.241
      vertex 17.589 2.5 10.241
      vertex 17.736 2.5 9.756
    endloop
  endfacet
  facet normal 0.957008 -2.0669e-016 0.290062
    outer loop
      vertex 17.736 7.75 9.756
      vertex 17.589 7.75 10.241
      vertex 17.736 2.5 9.756
    endloop
  endfacet
  facet normal 0.973957 -2.25553e-016 0.226731
    outer loop
      vertex 17.736 7.75 9.756
      vertex 17.736 2.5 9.756
      vertex 17.851 2.5 9.262
    endloop
  endfacet
  facet normal 0.973957 -2.25553e-016 0.226731
    outer loop
      vertex 17.851 7.75 9.262
      vertex 17.736 7.75 9.756
      vertex 17.851 2.5 9.262
    endloop
  endfacet
  facet normal 0.9865 -2.43089e-016 0.163759
    outer loop
      vertex 17.851 7.75 9.262
      vertex 17.851 2.5 9.262
      vertex 17.934 2.5 8.762
    endloop
  endfacet
  facet normal 0.9865 -2.43089e-016 0.163759
    outer loop
      vertex 17.934 7.75 8.762
      vertex 17.851 7.75 9.262
      vertex 17.934 2.5 8.762
    endloop
  endfacet
  facet normal 0.995326 -2.60507e-016 0.0965761
    outer loop
      vertex 17.934 7.75 8.762
      vertex 17.934 2.5 8.762
      vertex 17.983 2.5 8.257
    endloop
  endfacet
  facet normal 0.995326 -2.60507e-016 0.0965761
    outer loop
      vertex 17.983 7.75 8.257
      vertex 17.934 7.75 8.762
      vertex 17.983 2.5 8.257
    endloop
  endfacet
  facet normal 0.999438 -2.75675e-016 0.0335117
    outer loop
      vertex 17.983 7.75 8.257
      vertex 17.983 2.5 8.257
      vertex 18 2.5 7.75
    endloop
  endfacet
  facet normal 0.999438 -2.75675e-016 0.0335117
    outer loop
      vertex 18 7.75 7.75
      vertex 17.983 7.75 8.257
      vertex 18 2.5 7.75
    endloop
  endfacet
  facet normal 0.999438 -2.90557e-016 -0.0335117
    outer loop
      vertex 18 2.5 7.75
      vertex 17.983 2.5 7.243
      vertex 17.983 7.75 7.243
    endloop
  endfacet
  facet normal 0.999438 -2.90557e-016 -0.0335117
    outer loop
      vertex 18 7.75 7.75
      vertex 18 2.5 7.75
      vertex 17.983 7.75 7.243
    endloop
  endfacet
  facet normal 0.995326 -3.03395e-016 -0.0965761
    outer loop
      vertex 17.983 2.5 7.243
      vertex 17.934 2.5 6.738
      vertex 17.934 7.75 6.738
    endloop
  endfacet
  facet normal 0.995326 -3.03395e-016 -0.0965761
    outer loop
      vertex 17.983 7.75 7.243
      vertex 17.983 2.5 7.243
      vertex 17.934 7.75 6.738
    endloop
  endfacet
  facet normal 0.9865 -3.15813e-016 -0.163759
    outer loop
      vertex 17.934 2.5 6.738
      vertex 17.851 2.5 6.238
      vertex 17.851 7.75 6.238
    endloop
  endfacet
  facet normal 0.9865 -3.15813e-016 -0.163759
    outer loop
      vertex 17.934 7.75 6.738
      vertex 17.934 2.5 6.738
      vertex 17.851 7.75 6.238
    endloop
  endfacet
  facet normal 0.973957 -3.26242e-016 -0.226731
    outer loop
      vertex 17.851 2.5 6.238
      vertex 17.736 2.5 5.744
      vertex 17.736 7.75 5.744
    endloop
  endfacet
  facet normal 0.973957 -3.26242e-016 -0.226731
    outer loop
      vertex 17.851 7.75 6.238
      vertex 17.851 2.5 6.238
      vertex 17.736 7.75 5.744
    endloop
  endfacet
  facet normal 0.957008 -3.35503e-016 -0.290062
    outer loop
      vertex 17.736 2.5 5.744
      vertex 17.589 2.5 5.259
      vertex 17.589 7.75 5.259
    endloop
  endfacet
  facet normal 0.957008 -3.35503e-016 -0.290062
    outer loop
      vertex 17.736 7.75 5.744
      vertex 17.736 2.5 5.744
      vertex 17.589 7.75 5.259
    endloop
  endfacet
  facet normal 0.935761 -3.43378e-016 -0.352634
    outer loop
      vertex 17.589 2.5 5.259
      vertex 17.41 2.5 4.784
      vertex 17.41 7.75 4.784
    endloop
  endfacet
  facet normal 0.935761 -3.43378e-016 -0.352634
    outer loop
      vertex 17.589 7.75 5.259
      vertex 17.589 2.5 5.259
      vertex 17.41 7.75 4.784
    endloop
  endfacet
  facet normal 0.911108 -3.49614e-016 -0.412168
    outer loop
      vertex 17.41 2.5 4.784
      vertex 17.201 2.5 4.322
      vertex 17.201 7.75 4.322
    endloop
  endfacet
  facet normal 0.911108 -3.49614e-016 -0.412168
    outer loop
      vertex 17.41 7.75 4.784
      vertex 17.41 2.5 4.784
      vertex 17.201 7.75 4.322
    endloop
  endfacet
  facet normal 0.881861 -3.54505e-016 -0.47151
    outer loop
      vertex 17.201 2.5 4.322
      vertex 16.962 2.5 3.875
      vertex 16.962 7.75 3.875
    endloop
  endfacet
  facet normal 0.881861 -3.54505e-016 -0.47151
    outer loop
      vertex 17.201 7.75 4.322
      vertex 17.201 2.5 4.322
      vertex 16.962 7.75 3.875
    endloop
  endfacet
  facet normal 0.849214 -3.57811e-016 -0.528049
    outer loop
      vertex 16.962 2.5 3.875
      vertex 16.694 2.5 3.444
      vertex 16.694 7.75 3.444
    endloop
  endfacet
  facet normal 0.849214 -3.57811e-016 -0.528049
    outer loop
      vertex 16.962 7.75 3.875
      vertex 16.962 2.5 3.875
      vertex 16.694 7.75 3.444
    endloop
  endfacet
  facet normal 0.812132 -3.59614e-016 -0.583474
    outer loop
      vertex 16.694 2.5 3.444
      vertex 16.398 2.5 3.032
      vertex 16.398 7.75 3.032
    endloop
  endfacet
  facet normal 0.812132 -3.59614e-016 -0.583474
    outer loop
      vertex 16.694 7.75 3.444
      vertex 16.694 2.5 3.444
      vertex 16.398 7.75 3.032
    endloop
  endfacet
  facet normal 0.773693 -3.59847e-016 -0.63356
    outer loop
      vertex 16.398 2.5 3.032
      vertex 16.077 2.5 2.64
      vertex 16.077 7.75 2.64
    endloop
  endfacet
  facet normal 0.773693 -3.59847e-016 -0.63356
    outer loop
      vertex 16.398 7.75 3.032
      vertex 16.398 2.5 3.032
      vertex 16.077 7.75 2.64
    endloop
  endfacet
  facet normal 0.730271 -3.58559e-016 -0.683157
    outer loop
      vertex 16.077 2.5 2.64
      vertex 15.99 2.5 2.547
      vertex 15.99 7.75 2.547
    endloop
  endfacet
  facet normal 0.730271 -3.58559e-016 -0.683157
    outer loop
      vertex 16.077 7.75 2.64
      vertex 16.077 2.5 2.64
      vertex 15.99 7.75 2.547
    endloop
  endfacet
  facet normal 0.806828 -3.59735e-016 -0.590787
    outer loop
      vertex 15.99 2.5 2.547
      vertex 14.125 2.5 -2.27596e-015
      vertex 14.125 7.75 -3.44169e-015
    endloop
  endfacet
  facet normal 0.806828 -3.59735e-016 -0.590787
    outer loop
      vertex 15.99 7.75 2.547
      vertex 15.99 2.5 2.547
      vertex 14.125 7.75 -3.44169e-015
    endloop
  endfacet
  facet normal -6.28997e-032 -2.22045e-016 -1
    outer loop
      vertex 6.375 2.5 -2.27596e-015
      vertex 6.375 7.75 -3.44169e-015
      vertex 14.125 2.5 -2.27596e-015
    endloop
  endfacet
  facet normal -6.28997e-032 -2.22045e-016 -1
    outer loop
      vertex 14.125 2.5 -2.27596e-015
      vertex 6.375 7.75 -3.44169e-015
      vertex 14.125 7.75 -3.44169e-015
    endloop
  endfacet
  facet normal 0.987688 -3.47355e-017 -0.156435
    outer loop
      vertex 4.8 7.75 7.75
      vertex 5.0178 7.75 9.12513
      vertex 5.0178 2.5 9.12513
    endloop
  endfacet
  facet normal 0.987688 -3.47355e-017 -0.156435
    outer loop
      vertex 4.8 2.5 7.75
      vertex 4.8 7.75 7.75
      vertex 5.0178 2.5 9.12513
    endloop
  endfacet
  facet normal 0.987688 3.47355e-017 0.156435
    outer loop
      vertex 5.0178 2.5 6.37487
      vertex 5.0178 7.75 6.37487
      vertex 4.8 7.75 7.75
    endloop
  endfacet
  facet normal 0.987688 3.47355e-017 0.156435
    outer loop
      vertex 4.8 2.5 7.75
      vertex 5.0178 2.5 6.37487
      vertex 4.8 7.75 7.75
    endloop
  endfacet
  facet normal 0.891007 1.00806e-016 0.45399
    outer loop
      vertex 5.64987 2.5 5.13436
      vertex 5.64987 7.75 5.13436
      vertex 5.12164 7.75 6.17108
    endloop
  endfacet
  facet normal 0.891007 1.00806e-016 0.45399
    outer loop
      vertex 5.0178 7.75 6.37487
      vertex 5.64987 2.5 5.13436
      vertex 5.12164 7.75 6.17108
    endloop
  endfacet
  facet normal 0.891007 1.00806e-016 0.45399
    outer loop
      vertex 5.0178 7.75 6.37487
      vertex 5.0178 2.5 6.37487
      vertex 5.64987 2.5 5.13436
    endloop
  endfacet
  facet normal 0.707107 1.57009e-016 0.707107
    outer loop
      vertex 6.63436 2.5 4.14987
      vertex 6.63436 7.75 4.14987
      vertex 5.64987 7.75 5.13436
    endloop
  endfacet
  facet normal 0.707107 1.57009e-016 0.707107
    outer loop
      vertex 5.64987 2.5 5.13436
      vertex 6.63436 2.5 4.14987
      vertex 5.64987 7.75 5.13436
    endloop
  endfacet
  facet normal 0.45399 1.97843e-016 0.891007
    outer loop
      vertex 7.87487 2.5 3.5178
      vertex 7.87487 7.75 3.5178
      vertex 6.63436 7.75 4.14987
    endloop
  endfacet
  facet normal 0.45399 1.97843e-016 0.891007
    outer loop
      vertex 6.63436 2.5 4.14987
      vertex 7.87487 2.5 3.5178
      vertex 6.63436 7.75 4.14987
    endloop
  endfacet
  facet normal 0.156435 2.19311e-016 0.987688
    outer loop
      vertex 9.25 2.5 3.3
      vertex 9.25 7.75 3.3
      vertex 7.87487 7.75 3.5178
    endloop
  endfacet
  facet normal 0.156435 2.19311e-016 0.987688
    outer loop
      vertex 7.87487 2.5 3.5178
      vertex 9.25 2.5 3.3
      vertex 7.87487 7.75 3.5178
    endloop
  endfacet
  facet normal -0.156435 2.19311e-016 0.987688
    outer loop
      vertex 10.6251 2.5 3.5178
      vertex 10.6251 7.75 3.5178
      vertex 9.75 7.75 3.37919
    endloop
  endfacet
  facet normal -0.156435 2.19311e-016 0.987688
    outer loop
      vertex 9.25 7.75 3.3
      vertex 10.6251 2.5 3.5178
      vertex 9.75 7.75 3.37919
    endloop
  endfacet
  facet normal -0.156435 2.19311e-016 0.987688
    outer loop
      vertex 9.25 7.75 3.3
      vertex 9.25 2.5 3.3
      vertex 10.6251 2.5 3.5178
    endloop
  endfacet
  facet normal -0.45399 1.97843e-016 0.891007
    outer loop
      vertex 11.8656 2.5 4.14987
      vertex 11.8656 7.75 4.14987
      vertex 10.6251 7.75 3.5178
    endloop
  endfacet
  facet normal -0.45399 1.97843e-016 0.891007
    outer loop
      vertex 10.6251 2.5 3.5178
      vertex 11.8656 2.5 4.14987
      vertex 10.6251 7.75 3.5178
    endloop
  endfacet
  facet normal -0.707107 1.57009e-016 0.707107
    outer loop
      vertex 12.8501 7.75 5.13436
      vertex 11.8656 7.75 4.14987
      vertex 12.8501 2.5 5.13436
    endloop
  endfacet
  facet normal -0.707107 1.57009e-016 0.707107
    outer loop
      vertex 12.8501 2.5 5.13436
      vertex 11.8656 7.75 4.14987
      vertex 11.8656 2.5 4.14987
    endloop
  endfacet
  facet normal -0.891007 1.00806e-016 0.45399
    outer loop
      vertex 13.4822 7.75 6.37487
      vertex 12.8501 7.75 5.13436
      vertex 13.4822 2.5 6.37487
    endloop
  endfacet
  facet normal -0.891007 1.00806e-016 0.45399
    outer loop
      vertex 13.4822 2.5 6.37487
      vertex 12.8501 7.75 5.13436
      vertex 12.8501 2.5 5.13436
    endloop
  endfacet
  facet normal -0.987688 3.47355e-017 0.156435
    outer loop
      vertex 13.7 7.75 7.75
      vertex 13.4822 7.75 6.37487
      vertex 13.7 2.5 7.75
    endloop
  endfacet
  facet normal -0.987688 3.47355e-017 0.156435
    outer loop
      vertex 13.7 2.5 7.75
      vertex 13.4822 7.75 6.37487
      vertex 13.4822 2.5 6.37487
    endloop
  endfacet
  facet normal -0.987688 -3.47355e-017 -0.156435
    outer loop
      vertex 13.7 7.75 7.75
      vertex 13.7 2.5 7.75
      vertex 13.4822 7.75 9.12513
    endloop
  endfacet
  facet normal -0.987688 -3.47355e-017 -0.156435
    outer loop
      vertex 13.4822 7.75 9.12513
      vertex 13.7 2.5 7.75
      vertex 13.4822 2.5 9.12513
    endloop
  endfacet
  facet normal -0.891007 -1.00806e-016 -0.45399
    outer loop
      vertex 13.4822 7.75 9.12513
      vertex 13.4822 2.5 9.12513
      vertex 12.8501 7.75 10.3656
    endloop
  endfacet
  facet normal -0.891007 -1.00806e-016 -0.45399
    outer loop
      vertex 12.8501 7.75 10.3656
      vertex 13.4822 2.5 9.12513
      vertex 12.8501 2.5 10.3656
    endloop
  endfacet
  facet normal -0.707107 -1.57009e-016 -0.707107
    outer loop
      vertex 12.8501 7.75 10.3656
      vertex 12.8501 2.5 10.3656
      vertex 11.8656 7.75 11.3501
    endloop
  endfacet
  facet normal -0.707107 -1.57009e-016 -0.707107
    outer loop
      vertex 11.8656 7.75 11.3501
      vertex 12.8501 2.5 10.3656
      vertex 11.8656 2.5 11.3501
    endloop
  endfacet
  facet normal -0.45399 -1.97843e-016 -0.891007
    outer loop
      vertex 11.8656 7.75 11.3501
      vertex 11.8656 2.5 11.3501
      vertex 10.6251 7.75 11.9822
    endloop
  endfacet
  facet normal -0.45399 -1.97843e-016 -0.891007
    outer loop
      vertex 10.6251 7.75 11.9822
      vertex 11.8656 2.5 11.3501
      vertex 10.6251 2.5 11.9822
    endloop
  endfacet
  facet normal -0.156435 -2.19311e-016 -0.987688
    outer loop
      vertex 10.6251 7.75 11.9822
      vertex 10.6251 2.5 11.9822
      vertex 9.25 7.75 12.2
    endloop
  endfacet
  facet normal -0.156435 -2.19311e-016 -0.987688
    outer loop
      vertex 9.25 7.75 12.2
      vertex 10.6251 2.5 11.9822
      vertex 9.25 2.5 12.2
    endloop
  endfacet
  facet normal 0.156435 -2.19311e-016 -0.987688
    outer loop
      vertex 9.25 7.75 12.2
      vertex 9.25 2.5 12.2
      vertex 7.87487 7.75 11.9822
    endloop
  endfacet
  facet normal 0.156435 -2.19311e-016 -0.987688
    outer loop
      vertex 7.87487 7.75 11.9822
      vertex 9.25 2.5 12.2
      vertex 7.87487 2.5 11.9822
    endloop
  endfacet
  facet normal 0.45399 -1.97843e-016 -0.891007
    outer loop
      vertex 7.87487 7.75 11.9822
      vertex 7.87487 2.5 11.9822
      vertex 6.63436 7.75 11.3501
    endloop
  endfacet
  facet normal 0.45399 -1.97843e-016 -0.891007
    outer loop
      vertex 6.63436 7.75 11.3501
      vertex 7.87487 2.5 11.9822
      vertex 6.63436 2.5 11.3501
    endloop
  endfacet
  facet normal 0.707107 -1.57009e-016 -0.707107
    outer loop
      vertex 5.64987 7.75 10.3656
      vertex 6.63436 7.75 11.3501
      vertex 6.63436 2.5 11.3501
    endloop
  endfacet
  facet normal 0.707107 -1.57009e-016 -0.707107
    outer loop
      vertex 5.64987 2.5 10.3656
      vertex 5.64987 7.75 10.3656
      vertex 6.63436 2.5 11.3501
    endloop
  endfacet
  facet normal 0.891007 -1.00806e-016 -0.45399
    outer loop
      vertex 5.0178 7.75 9.12513
      vertex 5.64987 7.75 10.3656
      vertex 5.64987 2.5 10.3656
    endloop
  endfacet
  facet normal 0.891007 -1.00806e-016 -0.45399
    outer loop
      vertex 5.0178 2.5 9.12513
      vertex 5.0178 7.75 9.12513
      vertex 5.64987 2.5 10.3656
    endloop
  endfacet
endsolid OpenSCAD_Model
